<svg xmlns="http://www.w3.org/2000/svg" xmlns:xlink="http://www.w3.org/1999/xlink" width="500" zoomAndPan="magnify" viewBox="0 0 375 374.999991" height="500" preserveAspectRatio="xMidYMid meet" version="1.0"><defs><filter x="0%" y="0%" width="100%" height="100%" id="32c6188dcb"><feColorMatrix values="0 0 0 0 1 0 0 0 0 1 0 0 0 0 1 0 0 0 1 0" color-interpolation-filters="sRGB"/></filter><clipPath id="fc6e150601"><path d="M 47.402344 50.375 L 180 50.375 L 180 177.875 L 47.402344 177.875 Z M 47.402344 50.375 " clip-rule="nonzero"/></clipPath><clipPath id="4614eb64f6"><path d="M 158.292969 163.375 L 308 163.375 L 308 274.375 L 158.292969 274.375 Z M 158.292969 163.375 " clip-rule="nonzero"/></clipPath><mask id="1c8f3db17d"><g filter="url(#32c6188dcb)"><rect x="-37.5" width="450" fill="#000000" y="-37.499999" height="449.999989" fill-opacity="0.41"/></g></mask><clipPath id="154b58198a"><path d="M 6 14 L 102 14 L 102 146 L 6 146 Z M 6 14 " clip-rule="nonzero"/></clipPath><clipPath id="8747fc5f2e"><path d="M 0 77 L 29 77 L 29 123 L 0 123 Z M 0 77 " clip-rule="nonzero"/></clipPath><clipPath id="e3efdff040"><path d="M 79 115 L 102 115 L 102 150.375 L 79 150.375 Z M 79 115 " clip-rule="nonzero"/></clipPath><clipPath id="68c308e084"><path d="M 9 0.375 L 27 0.375 L 27 27 L 9 27 Z M 9 0.375 " clip-rule="nonzero"/></clipPath><clipPath id="f3c5b56ab3"><rect x="0" width="102" y="0" height="151"/></clipPath><mask id="964939656a"><g filter="url(#32c6188dcb)"><rect x="-37.5" width="450" fill="#000000" y="-37.499999" height="449.999989" fill-opacity="0.41"/></g></mask><clipPath id="d62fcd738d"><path d="M 7 14 L 102.761719 14 L 102.761719 146 L 7 146 Z M 7 14 " clip-rule="nonzero"/></clipPath><clipPath id="eeab587b2d"><path d="M 0.761719 77 L 29 77 L 29 123 L 0.761719 123 Z M 0.761719 77 " clip-rule="nonzero"/></clipPath><clipPath id="e3aeb25fda"><path d="M 80 115 L 102.761719 115 L 102.761719 150.375 L 80 150.375 Z M 80 115 " clip-rule="nonzero"/></clipPath><clipPath id="968543bc31"><path d="M 10 0.375 L 28 0.375 L 28 27 L 10 27 Z M 10 0.375 " clip-rule="nonzero"/></clipPath><clipPath id="c84e1d0a06"><rect x="0" width="103" y="0" height="151"/></clipPath></defs><path fill="#3387a9" d="M 56.539062 59.507812 L 61.105469 59.507812 L 61.105469 64.070312 L 56.539062 64.070312 Z M 56.539062 59.507812 " fill-opacity="1" fill-rule="nonzero"/><path fill="#3387a9" d="M 65.671875 59.507812 L 70.238281 59.507812 L 70.238281 64.070312 L 65.671875 64.070312 Z M 65.671875 59.507812 " fill-opacity="1" fill-rule="nonzero"/><path fill="#3387a9" d="M 74.804688 59.507812 L 79.367188 59.507812 L 79.367188 64.070312 L 74.804688 64.070312 Z M 74.804688 59.507812 " fill-opacity="1" fill-rule="nonzero"/><g clip-path="url(#fc6e150601)"><path fill="#3387a9" d="M 170.683594 50.375 L 56.539062 50.375 C 55.941406 50.375 55.347656 50.433594 54.761719 50.550781 C 54.171875 50.667969 53.601562 50.84375 53.046875 51.074219 C 52.492188 51.300781 51.96875 51.582031 51.46875 51.917969 C 50.972656 52.25 50.511719 52.628906 50.085938 53.050781 C 49.664062 53.476562 49.285156 53.9375 48.953125 54.4375 C 48.617188 54.933594 48.335938 55.460938 48.105469 56.011719 C 47.878906 56.566406 47.703125 57.136719 47.585938 57.726562 C 47.46875 58.3125 47.410156 58.90625 47.410156 59.507812 L 47.410156 150.820312 C 47.410156 151.417969 47.46875 152.011719 47.585938 152.601562 C 47.703125 153.1875 47.878906 153.757812 48.105469 154.3125 C 48.335938 154.867188 48.617188 155.394531 48.953125 155.890625 C 49.285156 156.390625 49.664062 156.851562 50.085938 157.273438 C 50.511719 157.699219 50.972656 158.078125 51.46875 158.410156 C 51.96875 158.742188 52.492188 159.023438 53.046875 159.253906 C 53.601562 159.484375 54.171875 159.65625 54.761719 159.773438 C 55.347656 159.890625 55.941406 159.953125 56.539062 159.953125 L 96.792969 159.953125 L 95.546875 173.648438 L 88.5 173.648438 L 88.5 178.214844 L 138.722656 178.214844 L 138.722656 173.648438 L 131.675781 173.648438 L 130.429688 159.953125 L 170.683594 159.953125 C 171.28125 159.953125 171.875 159.890625 172.464844 159.773438 C 173.050781 159.65625 173.621094 159.484375 174.175781 159.253906 C 174.730469 159.023438 175.253906 158.742188 175.753906 158.410156 C 176.253906 158.078125 176.714844 157.699219 177.136719 157.273438 C 177.5625 156.851562 177.941406 156.390625 178.273438 155.890625 C 178.605469 155.394531 178.886719 154.867188 179.117188 154.3125 C 179.347656 153.757812 179.519531 153.1875 179.636719 152.601562 C 179.753906 152.011719 179.8125 151.417969 179.816406 150.820312 L 179.816406 59.507812 C 179.8125 58.90625 179.753906 58.3125 179.636719 57.726562 C 179.519531 57.136719 179.347656 56.566406 179.117188 56.011719 C 178.886719 55.460938 178.605469 54.933594 178.273438 54.4375 C 177.941406 53.9375 177.5625 53.476562 177.136719 53.050781 C 176.714844 52.628906 176.253906 52.25 175.753906 51.917969 C 175.253906 51.582031 174.730469 51.300781 174.175781 51.074219 C 173.621094 50.84375 173.050781 50.667969 172.464844 50.550781 C 171.875 50.433594 171.28125 50.375 170.683594 50.375 Z M 56.539062 54.941406 L 170.683594 54.941406 C 170.984375 54.941406 171.28125 54.96875 171.574219 55.027344 C 171.867188 55.089844 172.152344 55.175781 172.429688 55.289062 C 172.707031 55.40625 172.96875 55.546875 173.21875 55.710938 C 173.46875 55.878906 173.699219 56.066406 173.910156 56.28125 C 174.121094 56.492188 174.3125 56.722656 174.476562 56.972656 C 174.644531 57.21875 174.785156 57.484375 174.898438 57.761719 C 175.015625 58.035156 175.101562 58.320312 175.160156 58.617188 C 175.21875 58.910156 175.25 59.207031 175.25 59.507812 L 175.25 68.636719 L 51.976562 68.636719 L 51.976562 59.507812 C 51.976562 59.207031 52.003906 58.910156 52.0625 58.617188 C 52.121094 58.320312 52.210938 58.035156 52.324219 57.761719 C 52.4375 57.484375 52.578125 57.21875 52.746094 56.972656 C 52.914062 56.722656 53.101562 56.492188 53.3125 56.28125 C 53.527344 56.066406 53.757812 55.878906 54.003906 55.710938 C 54.253906 55.546875 54.515625 55.40625 54.792969 55.289062 C 55.070312 55.175781 55.355469 55.089844 55.648438 55.027344 C 55.945312 54.96875 56.242188 54.941406 56.539062 54.941406 Z M 175.25 73.203125 L 175.25 137.125 L 51.976562 137.125 L 51.976562 73.203125 Z M 127.09375 173.648438 L 100.132812 173.648438 L 101.378906 159.953125 L 125.847656 159.953125 Z M 170.683594 155.386719 L 56.539062 155.386719 C 56.242188 155.386719 55.945312 155.355469 55.648438 155.296875 C 55.355469 155.238281 55.070312 155.152344 54.792969 155.039062 C 54.515625 154.921875 54.253906 154.78125 54.003906 154.613281 C 53.757812 154.449219 53.527344 154.257812 53.3125 154.046875 C 53.101562 153.835938 52.914062 153.605469 52.746094 153.355469 C 52.578125 153.105469 52.4375 152.84375 52.324219 152.566406 C 52.210938 152.289062 52.121094 152.003906 52.0625 151.710938 C 52.003906 151.417969 51.976562 151.121094 51.976562 150.820312 L 51.976562 141.6875 L 175.25 141.6875 L 175.25 150.820312 C 175.25 151.121094 175.21875 151.417969 175.160156 151.710938 C 175.101562 152.003906 175.015625 152.289062 174.898438 152.566406 C 174.785156 152.84375 174.644531 153.105469 174.476562 153.355469 C 174.3125 153.605469 174.121094 153.835938 173.910156 154.046875 C 173.699219 154.257812 173.46875 154.449219 173.21875 154.613281 C 172.96875 154.78125 172.707031 154.921875 172.429688 155.039062 C 172.152344 155.152344 171.867188 155.238281 171.574219 155.296875 C 171.28125 155.355469 170.984375 155.386719 170.683594 155.386719 Z M 170.683594 155.386719 " fill-opacity="1" fill-rule="nonzero"/></g><path fill="#3387a9" d="M 111.328125 146.253906 L 115.894531 146.253906 L 115.894531 150.820312 L 111.328125 150.820312 Z M 111.328125 146.253906 " fill-opacity="1" fill-rule="nonzero"/><path fill="#3387a9" d="M 58.824219 98.316406 L 63.390625 98.316406 L 63.390625 102.878906 L 58.824219 102.878906 Z M 58.824219 98.316406 " fill-opacity="1" fill-rule="nonzero"/><path fill="#3387a9" d="M 67.953125 98.316406 L 102.199219 98.316406 L 102.199219 102.878906 L 67.953125 102.878906 Z M 67.953125 98.316406 " fill-opacity="1" fill-rule="nonzero"/><path fill="#3387a9" d="M 58.824219 107.445312 L 63.390625 107.445312 L 63.390625 112.011719 L 58.824219 112.011719 Z M 58.824219 107.445312 " fill-opacity="1" fill-rule="nonzero"/><path fill="#3387a9" d="M 67.953125 107.445312 L 127.308594 107.445312 L 127.308594 112.011719 L 67.953125 112.011719 Z M 67.953125 107.445312 " fill-opacity="1" fill-rule="nonzero"/><path fill="#3387a9" d="M 58.824219 116.578125 L 63.390625 116.578125 L 63.390625 121.144531 L 58.824219 121.144531 Z M 58.824219 116.578125 " fill-opacity="1" fill-rule="nonzero"/><path fill="#3387a9" d="M 67.953125 116.578125 L 111.328125 116.578125 L 111.328125 121.144531 L 67.953125 121.144531 Z M 67.953125 116.578125 " fill-opacity="1" fill-rule="nonzero"/><path fill="#3387a9" d="M 58.824219 125.710938 L 63.390625 125.710938 L 63.390625 130.273438 L 58.824219 130.273438 Z M 58.824219 125.710938 " fill-opacity="1" fill-rule="nonzero"/><path fill="#3387a9" d="M 67.953125 125.710938 L 134.15625 125.710938 L 134.15625 130.273438 L 67.953125 130.273438 Z M 67.953125 125.710938 " fill-opacity="1" fill-rule="nonzero"/><path fill="#3387a9" d="M 59.492188 88.515625 L 64.058594 93.082031 L 67.285156 89.851562 L 64.335938 86.902344 L 67.285156 83.949219 L 64.058594 80.71875 L 59.492188 85.285156 C 59.277344 85.5 59.113281 85.746094 58.996094 86.027344 C 58.882812 86.304688 58.824219 86.597656 58.824219 86.902344 C 58.824219 87.203125 58.882812 87.496094 58.996094 87.773438 C 59.113281 88.054688 59.277344 88.300781 59.492188 88.515625 Z M 59.492188 88.515625 " fill-opacity="1" fill-rule="nonzero"/><path fill="#3387a9" d="M 82.320312 89.851562 L 85.550781 93.082031 L 90.113281 88.515625 C 90.328125 88.300781 90.492188 88.054688 90.609375 87.773438 C 90.726562 87.496094 90.785156 87.203125 90.785156 86.902344 C 90.785156 86.597656 90.726562 86.304688 90.609375 86.027344 C 90.492188 85.746094 90.328125 85.5 90.113281 85.285156 L 85.550781 80.71875 L 82.320312 83.949219 L 85.273438 86.902344 Z M 82.320312 89.851562 " fill-opacity="1" fill-rule="nonzero"/><path fill="#3387a9" d="M 70.355469 93.027344 L 74.921875 79.332031 L 79.253906 80.773438 L 74.6875 94.472656 Z M 70.355469 93.027344 " fill-opacity="1" fill-rule="nonzero"/><path fill="#3387a9" d="M 131.875 107.445312 L 145.570312 107.445312 L 145.570312 112.011719 L 131.875 112.011719 Z M 131.875 107.445312 " fill-opacity="1" fill-rule="nonzero"/><path fill="#3387a9" d="M 138.722656 125.710938 L 143.289062 125.710938 L 143.289062 130.273438 L 138.722656 130.273438 Z M 138.722656 125.710938 " fill-opacity="1" fill-rule="nonzero"/><path fill="#3387a9" d="M 147.855469 125.710938 L 152.421875 125.710938 L 152.421875 130.273438 L 147.855469 130.273438 Z M 147.855469 125.710938 " fill-opacity="1" fill-rule="nonzero"/><path fill="#3387a9" d="M 106.761719 98.316406 L 111.328125 98.316406 L 111.328125 102.878906 L 106.761719 102.878906 Z M 106.761719 98.316406 " fill-opacity="1" fill-rule="nonzero"/><g clip-path="url(#4614eb64f6)"><path fill="#3387a9" d="M 281.738281 163.710938 C 280.558594 163.683594 279.457031 164.304688 278.859375 165.347656 L 250.808594 212.628906 C 242.285156 213.464844 236.195312 216.8125 232.101562 221.566406 C 227.722656 226.652344 225.519531 232.96875 223.5 239.183594 C 221.496094 245.386719 219.695312 251.5625 216.742188 256.585938 C 213.863281 261.480469 210.042969 265.324219 203.476562 267.644531 L 161.863281 267.644531 C 160.695312 267.632812 159.605469 268.242188 159.011719 269.253906 C 158.425781 270.269531 158.425781 271.511719 159.011719 272.527344 C 159.605469 273.542969 160.695312 274.152344 161.863281 274.136719 L 204.070312 274.136719 C 226.796875 274.136719 244.238281 272.578125 256.617188 265.945312 C 268.777344 259.414062 275.246094 247.492188 275.449219 229.570312 L 307.597656 168.503906 C 308.425781 166.917969 307.816406 164.953125 306.230469 164.117188 C 304.644531 163.292969 302.679688 163.902344 301.839844 165.484375 L 270.3125 225.398438 C 267.660156 225.460938 263.84375 224.714844 260.789062 222.949219 C 259.039062 221.9375 257.605469 220.691406 256.792969 219.527344 C 256.058594 218.449219 255.90625 217.5625 256.03125 216.558594 L 284.441406 168.644531 C 285.050781 167.65625 285.089844 166.425781 284.53125 165.398438 C 283.972656 164.382812 282.90625 163.734375 281.738281 163.710938 Z M 249.691406 219.261719 C 250.03125 220.707031 250.640625 222.050781 251.453125 223.21875 C 253 225.460938 255.167969 227.210938 257.542969 228.582031 C 261.066406 230.609375 265.050781 231.917969 268.867188 232.109375 C 268.207031 246.871094 263.234375 255.023438 253.546875 260.226562 C 245.328125 264.636719 232.1875 266.289062 216.488281 266.960938 C 218.769531 264.777344 220.824219 262.445312 222.335938 259.871094 C 225.859375 253.882812 227.722656 247.25 229.691406 241.175781 C 231.644531 235.101562 233.710938 229.648438 237.019531 225.804688 C 239.863281 222.507812 243.566406 220.148438 249.691406 219.261719 Z M 249.691406 219.261719 " fill-opacity="1" fill-rule="nonzero"/></g><g mask="url(#1c8f3db17d)"><g transform="matrix(1, 0, 0, 1, 0, 163)"><g clip-path="url(#f3c5b56ab3)"><g clip-path="url(#154b58198a)"><path stroke-linecap="butt" transform="matrix(0.239707, 0, 0, 0.238826, 4.635675, 16.558938)" fill="none" stroke-linejoin="miter" d="M 148.769921 185.116493 L 79.381841 151.684698 C 79.381841 150.392569 80.310709 147.006863 82.15215 141.543938 C 84.07507 136.015588 87.872022 128.606291 93.559302 119.29969 C 99.246583 110.009446 106.400497 101.291664 115.004749 93.129987 C 123.690481 84.919243 135.896134 77.738931 151.654301 71.589051 C 167.412467 65.439171 185.191329 62.36423 205.023479 62.36423 C 241.526367 62.36423 272.993812 73.077453 299.425814 94.520253 C 325.857816 115.881273 339.073818 142.786999 339.073818 175.204718 C 339.073818 215.162583 312.495152 246.484446 259.321525 269.153951 C 252.102427 272.310672 247.52327 276.645029 245.60035 282.173378 C 243.67743 287.718084 242.71597 295.356366 242.71597 305.120937 L 242.71597 331.519624 L 164.91919 331.519624 L 164.91919 280.096158 C 164.91919 271.574649 165.212516 264.885019 165.831762 260.043623 C 166.451007 255.136804 168.487999 249.755659 171.942736 243.900188 C 175.397474 238.061073 180.432917 232.957981 187.049066 228.574556 C 192.117101 225.417835 198.879912 221.737721 207.337501 217.517856 C 215.860274 213.281636 222.1668 209.89593 226.240783 207.377096 C 230.314766 204.82555 234.079126 200.834671 237.533864 195.371745 C 240.988601 189.843396 242.71597 183.121053 242.71597 175.204718 C 242.71597 163.919034 239.033089 154.645145 231.651032 147.432121 C 224.268975 140.12096 215.241028 136.473558 204.567193 136.473558 C 189.118649 136.473558 176.750036 141.429445 167.445059 151.34122 C 158.140082 161.269351 151.915036 172.522323 148.769921 185.116493 Z M 203.524253 357.901956 C 218.663174 357.901956 231.504369 363.217677 242.031541 373.816407 C 252.558713 384.349712 257.822299 397.140154 257.822299 412.20409 C 257.822299 427.03904 252.558713 439.71499 242.031541 450.248295 C 231.504369 460.765244 218.663174 466.031897 203.524253 466.031897 C 188.776434 466.031897 176.130791 460.765244 165.603619 450.248295 C 155.076447 439.71499 149.81286 427.03904 149.81286 412.20409 C 149.81286 397.140154 155.076447 384.349712 165.603619 373.816407 C 176.130791 363.217677 188.776434 357.901956 203.524253 357.901956 Z M 203.524253 357.901956 " stroke="#ffff" stroke-width="12.689" stroke-opacity="1" stroke-miterlimit="4"/></g><g clip-path="url(#8747fc5f2e)"><path stroke-linecap="butt" transform="matrix(0.0828109, 0, 0, 0.0825064, -6.014767, 78.281517)" fill="none" stroke-linejoin="miter" d="M 148.766108 185.114877 L 79.377971 151.689458 C 79.377971 150.363804 80.321386 147.002324 82.161044 141.557674 C 84.047873 136.018334 87.868702 128.585203 93.576359 119.305625 C 99.236846 110.026047 106.406797 101.267261 114.991869 93.123958 C 123.671282 84.93331 135.8885 77.736903 151.643522 71.582081 C 167.398545 65.427258 185.181908 62.349847 205.040783 62.349847 C 241.503754 62.349847 273.013799 73.097114 299.429405 94.496957 C 325.845011 115.8968 339.099985 142.788638 339.099985 175.219817 C 339.099985 215.178816 312.495696 246.473719 259.334288 269.151872 C 252.069997 272.323972 247.541607 276.632348 245.607607 282.171688 C 243.673607 287.711028 242.730193 295.333538 242.730193 305.133909 L 242.730193 331.504954 L 164.898496 331.504954 L 164.898496 280.088517 C 164.898496 271.566456 165.228691 264.890841 165.841911 260.061673 C 166.45513 255.137815 168.483471 249.740509 171.926934 243.917101 C 175.370397 238.046347 180.417665 232.980455 187.068737 228.57739 C 192.116005 225.405289 198.861418 221.759741 207.352149 217.49871 C 215.842879 213.285024 222.163757 209.923545 226.220439 207.366926 C 230.324292 204.810308 234.050779 200.833346 237.541413 195.388695 C 240.984876 189.849355 242.730193 183.126396 242.730193 175.219817 C 242.730193 163.904413 239.050876 154.624835 231.645072 147.428427 C 224.286439 140.13733 215.22966 136.491782 204.569076 136.491782 C 189.144249 136.491782 176.738348 141.41564 167.445715 151.358045 C 158.153082 161.253105 151.926547 172.521164 148.766108 185.114877 Z M 203.53132 357.923345 C 218.673123 357.923345 231.50356 363.225961 242.022632 373.831193 C 252.541704 384.341735 257.824825 397.124827 257.824825 412.180469 C 257.824825 427.046732 252.541704 439.68779 242.022632 450.245677 C 231.50356 460.75622 218.673123 466.058836 203.53132 466.058836 C 188.766883 466.058836 176.125129 460.75622 165.606057 450.245677 C 155.086985 439.68779 149.803864 427.046732 149.803864 412.180469 C 149.803864 397.124827 155.086985 384.341735 165.606057 373.831193 C 176.125129 363.225961 188.766883 357.923345 203.53132 357.923345 Z M 203.53132 357.923345 " stroke="#ffff" stroke-width="12.689" stroke-opacity="1" stroke-miterlimit="4"/></g><g clip-path="url(#e3efdff040)"><path fill="#ffff" d="M 85.472656 126.117188 L 79.449219 123.21875 C 79.449219 123.109375 79.53125 122.820312 79.695312 122.34375 C 79.859375 121.871094 80.1875 121.230469 80.679688 120.425781 C 81.171875 119.621094 81.792969 118.867188 82.542969 118.164062 C 83.292969 117.457031 84.351562 116.839844 85.714844 116.308594 C 87.078125 115.777344 88.621094 115.511719 90.34375 115.511719 C 93.511719 115.511719 96.238281 116.4375 98.527344 118.289062 C 100.820312 120.136719 101.96875 122.460938 101.96875 125.257812 C 101.96875 128.714844 99.664062 131.421875 95.054688 133.378906 C 94.421875 133.652344 94.023438 134.027344 93.859375 134.503906 C 93.695312 134.976562 93.617188 135.636719 93.617188 136.480469 L 93.617188 138.761719 L 86.863281 138.761719 L 86.863281 134.316406 C 86.863281 133.582031 86.890625 133.003906 86.945312 132.582031 C 86.996094 132.160156 87.171875 131.699219 87.472656 131.195312 C 87.773438 130.691406 88.210938 130.25 88.785156 129.871094 C 89.222656 129.597656 89.808594 129.28125 90.546875 128.914062 C 91.285156 128.542969 91.832031 128.25 92.183594 128.035156 C 92.539062 127.816406 92.863281 127.46875 93.164062 126.992188 C 93.464844 126.515625 93.617188 125.9375 93.617188 125.257812 C 93.617188 124.28125 93.292969 123.480469 92.65625 122.855469 C 92.015625 122.226562 91.230469 121.914062 90.300781 121.914062 C 88.964844 121.914062 87.890625 122.339844 87.085938 123.199219 C 86.28125 124.054688 85.746094 125.027344 85.472656 126.117188 Z M 90.222656 141.046875 C 91.53125 141.046875 92.640625 141.5 93.554688 142.410156 C 94.46875 143.320312 94.925781 144.429688 94.925781 145.738281 C 94.925781 147.015625 94.46875 148.109375 93.554688 149.019531 C 92.640625 149.929688 91.53125 150.386719 90.222656 150.386719 C 88.9375 150.386719 87.835938 149.929688 86.921875 149.019531 C 86.007812 148.109375 85.550781 147.015625 85.550781 145.738281 C 85.550781 144.429688 86.007812 143.320312 86.921875 142.410156 C 87.835938 141.5 88.9375 141.046875 90.222656 141.046875 Z M 90.222656 141.046875 " fill-opacity="1" fill-rule="nonzero"/></g><g clip-path="url(#68c308e084)"><path fill="#ffff" d="M 14.304688 8.332031 L 9.792969 6.164062 C 9.792969 6.082031 9.851562 5.867188 9.972656 5.507812 C 10.097656 5.152344 10.34375 4.675781 10.710938 4.074219 C 11.078125 3.472656 11.542969 2.90625 12.109375 2.378906 C 12.671875 1.847656 13.464844 1.386719 14.488281 0.988281 C 15.507812 0.589844 16.664062 0.386719 17.953125 0.386719 C 20.324219 0.386719 22.371094 1.082031 24.089844 2.46875 C 25.804688 3.855469 26.664062 5.59375 26.664062 7.691406 C 26.664062 10.28125 24.933594 12.308594 21.476562 13.773438 C 21.007812 13.976562 20.710938 14.257812 20.585938 14.617188 C 20.464844 14.972656 20.40625 15.464844 20.40625 16.09375 L 20.40625 17.808594 L 15.347656 17.808594 L 15.347656 14.476562 C 15.347656 13.925781 15.367188 13.492188 15.40625 13.175781 C 15.449219 12.859375 15.578125 12.515625 15.800781 12.136719 C 16.027344 11.761719 16.355469 11.429688 16.789062 11.144531 C 17.113281 10.941406 17.554688 10.703125 18.101562 10.429688 C 18.65625 10.152344 19.066406 9.933594 19.332031 9.773438 C 19.597656 9.609375 19.84375 9.347656 20.066406 8.992188 C 20.292969 8.636719 20.40625 8.203125 20.40625 7.691406 C 20.40625 6.960938 20.164062 6.359375 19.683594 5.890625 C 19.203125 5.421875 18.617188 5.1875 17.921875 5.1875 C 16.917969 5.1875 16.117188 5.507812 15.511719 6.148438 C 14.910156 6.792969 14.507812 7.519531 14.304688 8.332031 Z M 17.859375 19.519531 C 18.84375 19.519531 19.675781 19.863281 20.359375 20.542969 C 21.042969 21.226562 21.386719 22.054688 21.386719 23.035156 C 21.386719 23.992188 21.042969 24.8125 20.359375 25.492188 C 19.675781 26.175781 18.84375 26.515625 17.859375 26.515625 C 16.898438 26.515625 16.074219 26.175781 15.390625 25.492188 C 14.707031 24.8125 14.363281 23.992188 14.363281 23.035156 C 14.363281 22.054688 14.707031 21.226562 15.390625 20.542969 C 16.074219 19.863281 16.898438 19.519531 17.859375 19.519531 Z M 17.859375 19.519531 " fill-opacity="1" fill-rule="nonzero"/></g></g></g></g><g mask="url(#964939656a)"><g transform="matrix(1, 0, 0, 1, 248, 13)"><g clip-path="url(#c84e1d0a06)"><g clip-path="url(#d62fcd738d)"><path stroke-linecap="butt" transform="matrix(0.239707, 0, 0, 0.238826, 5.398035, 16.55895)" fill="none" stroke-linejoin="miter" d="M 148.767246 185.116444 L 79.379167 151.684648 C 79.379167 150.392519 80.308035 147.006814 82.149475 141.543888 C 84.072395 136.015539 87.869347 128.606242 93.556628 119.299641 C 99.243908 110.009396 106.397822 101.291614 115.002074 93.129938 C 123.687806 84.919194 135.909755 77.738882 151.651626 71.589001 C 167.409793 65.439121 185.204951 62.364181 205.020804 62.364181 C 241.523692 62.364181 272.991138 73.077403 299.439436 94.520204 C 325.871438 115.881224 339.087439 142.786949 339.087439 175.204669 C 339.087439 215.162534 312.492477 246.484397 259.31885 269.153902 C 252.099752 272.310622 247.520595 276.644979 245.597675 282.173329 C 243.674755 287.718035 242.713295 295.356317 242.713295 305.120887 L 242.713295 331.519575 L 164.916515 331.519575 L 164.916515 280.096109 C 164.916515 271.5746 165.209842 264.884969 165.829087 260.043574 C 166.448333 255.136755 168.485324 249.75561 171.940062 243.900139 C 175.394799 238.061024 180.430242 232.957932 187.046391 228.574507 C 192.114426 225.417786 198.877238 221.737672 207.334827 217.517807 C 215.857599 213.281586 222.164125 209.895881 226.238108 207.377047 C 230.312091 204.825501 234.076451 200.834621 237.531189 195.371696 C 240.985927 189.843346 242.713295 183.121004 242.713295 175.204669 C 242.713295 163.918984 239.030415 154.645096 231.648357 147.432072 C 224.2663 140.120911 215.238354 136.473509 204.564518 136.473509 C 189.115974 136.473509 176.747362 141.429396 167.442384 151.341171 C 158.153703 161.269302 151.928657 172.522274 148.767246 185.116444 Z M 203.521578 357.901907 C 218.660499 357.901907 231.501694 363.217628 242.028866 373.816357 C 252.556039 384.349663 257.819625 397.140105 257.819625 412.20404 C 257.819625 427.038991 252.556039 439.71494 242.028866 450.248246 C 231.501694 460.765195 218.660499 466.031848 203.521578 466.031848 C 188.77376 466.031848 176.128116 460.765195 165.600944 450.248246 C 155.073772 439.71494 149.810186 427.038991 149.810186 412.20404 C 149.810186 397.140105 155.073772 384.349663 165.600944 373.816357 C 176.128116 363.217628 188.77376 357.901907 203.521578 357.901907 Z M 203.521578 357.901907 " stroke="#ffff" stroke-width="12.689" stroke-opacity="1" stroke-miterlimit="4"/></g><g clip-path="url(#eeab587b2d)"><path stroke-linecap="butt" transform="matrix(0.0828109, 0, 0, 0.0825064, -5.252404, 78.281527)" fill="none" stroke-linejoin="miter" d="M 148.758328 185.114757 L 79.370191 151.689339 C 79.370191 150.363685 80.313605 147.002205 82.153264 141.557554 C 84.087264 136.018215 87.860922 128.585083 93.568579 119.305505 C 99.229066 110.025927 106.399017 101.267142 114.984089 93.123839 C 123.663502 84.933191 135.88072 77.736783 151.682913 71.581961 C 167.390764 65.427139 185.221299 62.349728 205.033003 62.349728 C 241.543145 62.349728 273.006018 73.096994 299.421625 94.496837 C 325.837231 115.896681 339.092205 142.788519 339.092205 175.219697 C 339.092205 215.178696 312.487916 246.4736 259.326508 269.151752 C 252.109387 272.323853 247.533827 276.632228 245.599827 282.171568 C 243.665827 287.710908 242.722413 295.333419 242.722413 305.133789 L 242.722413 331.504835 L 164.937887 331.504835 L 164.937887 280.088398 C 164.937887 271.566336 165.220911 264.890721 165.834131 260.061553 C 166.44735 255.137696 168.475691 249.74039 171.919154 243.916981 C 175.409788 238.046228 180.457055 232.980336 187.060957 228.577271 C 192.108225 225.40517 198.900809 221.759622 207.344369 217.498591 C 215.88227 213.284905 222.155977 209.923425 226.212659 207.366807 C 230.316512 204.810188 234.09017 200.833226 237.533633 195.388576 C 240.977096 189.849236 242.722413 183.126276 242.722413 175.219697 C 242.722413 163.904293 239.043096 154.624715 231.637292 147.428308 C 224.278659 140.137211 215.22188 136.491662 204.561296 136.491662 C 189.136469 136.491662 176.730568 141.41552 167.437935 151.357925 C 158.145302 161.252985 151.918767 172.521044 148.758328 185.114757 Z M 203.52354 357.923225 C 218.665343 357.923225 231.49578 363.225841 242.014852 373.831073 C 252.533924 384.341616 257.817045 397.124708 257.817045 412.18035 C 257.817045 427.046613 252.533924 439.68767 242.014852 450.245558 C 231.49578 460.7561 218.665343 466.058716 203.52354 466.058716 C 188.759103 466.058716 176.117349 460.7561 165.598277 450.245558 C 155.079205 439.68767 149.796084 427.046613 149.796084 412.18035 C 149.796084 397.124708 155.079205 384.341616 165.598277 373.831073 C 176.117349 363.225841 188.759103 357.923225 203.52354 357.923225 Z M 203.52354 357.923225 " stroke="#ffff" stroke-width="12.689" stroke-opacity="1" stroke-miterlimit="4"/></g><g clip-path="url(#e3aeb25fda)"><path fill="#ffff" d="M 86.234375 126.117188 L 80.214844 123.21875 C 80.214844 123.109375 80.292969 122.820312 80.457031 122.34375 C 80.621094 121.871094 80.949219 121.230469 81.441406 120.425781 C 81.933594 119.621094 82.554688 118.867188 83.304688 118.164062 C 84.054688 117.457031 85.113281 116.839844 86.476562 116.308594 C 87.84375 115.777344 89.386719 115.511719 91.105469 115.511719 C 94.273438 115.511719 97 116.4375 99.289062 118.289062 C 101.582031 120.136719 102.730469 122.460938 102.730469 125.257812 C 102.730469 128.714844 100.425781 131.421875 95.816406 133.378906 C 95.183594 133.652344 94.785156 134.027344 94.621094 134.503906 C 94.460938 134.976562 94.378906 135.636719 94.378906 136.480469 L 94.378906 138.761719 L 87.625 138.761719 L 87.625 134.316406 C 87.625 133.582031 87.652344 133.003906 87.707031 132.582031 C 87.757812 132.160156 87.9375 131.699219 88.238281 131.195312 C 88.535156 130.691406 88.972656 130.25 89.546875 129.871094 C 89.984375 129.597656 90.570312 129.28125 91.308594 128.914062 C 92.046875 128.542969 92.59375 128.25 92.945312 128.035156 C 93.300781 127.816406 93.628906 127.46875 93.929688 126.992188 C 94.226562 126.515625 94.378906 125.9375 94.378906 125.257812 C 94.378906 124.28125 94.058594 123.480469 93.417969 122.855469 C 92.777344 122.226562 91.992188 121.914062 91.066406 121.914062 C 89.726562 121.914062 88.652344 122.339844 87.847656 123.199219 C 87.042969 124.054688 86.507812 125.027344 86.234375 126.117188 Z M 90.984375 141.046875 C 92.292969 141.046875 93.402344 141.5 94.316406 142.410156 C 95.230469 143.320312 95.6875 144.429688 95.6875 145.738281 C 95.6875 147.015625 95.230469 148.109375 94.316406 149.019531 C 93.402344 149.929688 92.292969 150.386719 90.984375 150.386719 C 89.699219 150.386719 88.597656 149.929688 87.683594 149.019531 C 86.769531 148.109375 86.316406 147.015625 86.316406 145.738281 C 86.316406 144.429688 86.769531 143.320312 87.683594 142.410156 C 88.597656 141.5 89.699219 141.046875 90.984375 141.046875 Z M 90.984375 141.046875 " fill-opacity="1" fill-rule="nonzero"/></g><g clip-path="url(#968543bc31)"><path fill="#ffff" d="M 15.066406 8.332031 L 10.554688 6.164062 C 10.554688 6.082031 10.613281 5.867188 10.734375 5.507812 C 10.859375 5.152344 11.105469 4.675781 11.476562 4.074219 C 11.839844 3.472656 12.308594 2.90625 12.871094 2.378906 C 13.433594 1.847656 14.226562 1.386719 15.25 0.988281 C 16.269531 0.589844 17.425781 0.386719 18.714844 0.386719 C 21.089844 0.386719 23.132812 1.082031 24.851562 2.46875 C 26.566406 3.855469 27.425781 5.59375 27.425781 7.691406 C 27.425781 10.28125 25.695312 12.308594 22.238281 13.773438 C 21.769531 13.976562 21.472656 14.257812 21.351562 14.617188 C 21.226562 14.972656 21.167969 15.464844 21.167969 16.09375 L 21.167969 17.808594 L 16.109375 17.808594 L 16.109375 14.476562 C 16.109375 13.925781 16.128906 13.492188 16.167969 13.175781 C 16.210938 12.859375 16.339844 12.515625 16.5625 12.136719 C 16.789062 11.761719 17.117188 11.429688 17.550781 11.144531 C 17.875 10.941406 18.316406 10.703125 18.867188 10.429688 C 19.417969 10.152344 19.828125 9.933594 20.09375 9.773438 C 20.359375 9.609375 20.605469 9.347656 20.828125 8.992188 C 21.054688 8.636719 21.167969 8.203125 21.167969 7.691406 C 21.167969 6.960938 20.925781 6.359375 20.445312 5.890625 C 19.964844 5.421875 19.378906 5.1875 18.683594 5.1875 C 17.683594 5.1875 16.878906 5.507812 16.277344 6.148438 C 15.671875 6.792969 15.269531 7.519531 15.066406 8.332031 Z M 18.621094 19.519531 C 19.605469 19.519531 20.4375 19.863281 21.121094 20.542969 C 21.804688 21.226562 22.148438 22.054688 22.148438 23.035156 C 22.148438 23.992188 21.804688 24.8125 21.121094 25.492188 C 20.4375 26.175781 19.605469 26.515625 18.621094 26.515625 C 17.660156 26.515625 16.839844 26.175781 16.152344 25.492188 C 15.46875 24.8125 15.128906 23.992188 15.128906 23.035156 C 15.128906 22.054688 15.46875 21.226562 16.152344 20.542969 C 16.839844 19.863281 17.660156 19.519531 18.621094 19.519531 Z M 18.621094 19.519531 " fill-opacity="1" fill-rule="nonzero"/></g></g></g></g></svg>