<svg xmlns="http://www.w3.org/2000/svg" xmlns:xlink="http://www.w3.org/1999/xlink" width="500" zoomAndPan="magnify" viewBox="0 0 375 374.999991" height="500" preserveAspectRatio="xMidYMid meet" version="1.0"><defs><g/><clipPath id="36819ba2cd"><path d="M 85.132812 183 L 289.882812 183 L 289.882812 218.347656 L 85.132812 218.347656 Z M 85.132812 183 " clip-rule="nonzero"/></clipPath><clipPath id="c1d5fcc38a"><path d="M 85.132812 200 L 289.882812 200 L 289.882812 218.347656 L 85.132812 218.347656 Z M 85.132812 200 " clip-rule="nonzero"/></clipPath></defs><rect x="-37.5" width="450" fill="#ffffff" y="-37.499999" height="449.999989" fill-opacity="1"/><rect x="-37.5" width="450" fill="#ffffff" y="-37.499999" height="449.999989" fill-opacity="1"/><path fill="#b0e4db" d="M 89.578125 115.101562 L 162.53125 115.101562 C 162.53125 115.101562 162.929688 110.117188 149.972656 110.511719 C 149.972656 110.511719 151.566406 104.332031 134.027344 104.929688 C 134.027344 104.929688 132.632812 96.753906 122.464844 97.351562 C 122.464844 97.351562 110.503906 97.324219 108.511719 107.324219 C 108.511719 107.324219 96.753906 106.324219 96.152344 111.710938 C 96.152344 111.710938 89.777344 111.511719 89.578125 115.101562 " fill-opacity="1" fill-rule="nonzero"/><path fill="#55b2af" d="M 142.75 135.734375 L 143.136719 135.734375 L 143.136719 133.96875 L 132.589844 133.96875 L 132.589844 135.734375 L 132.976562 135.734375 L 132.976562 138.039062 L 131.082031 138.039062 L 131.082031 136.960938 L 131.515625 136.960938 L 131.515625 135.066406 L 127.164062 135.066406 L 127.164062 136.960938 L 127.640625 136.960938 L 127.640625 138.039062 L 125.808594 138.039062 L 125.808594 184.464844 L 149.1875 184.464844 L 149.1875 138.039062 L 142.75 138.039062 L 142.75 135.734375 " fill-opacity="1" fill-rule="nonzero"/><path fill="#55b2af" d="M 210.566406 161.226562 L 210.578125 161.226562 L 210.578125 160.464844 L 210.894531 160.464844 L 210.894531 159.039062 L 210.566406 159.039062 L 210.566406 150.554688 L 210.886719 150.554688 L 210.886719 149.132812 L 210.566406 149.132812 L 210.566406 140.371094 L 210.886719 140.371094 L 210.886719 139.050781 L 207.976562 139.050781 L 207.976562 137.082031 L 208.21875 137.082031 L 208.21875 136.640625 L 203.605469 136.640625 L 203.605469 137.082031 L 203.917969 137.082031 L 203.917969 139.050781 L 202.09375 139.050781 L 202.09375 133.027344 L 203.292969 133.027344 L 203.292969 132.664062 L 200.269531 132.664062 L 200.269531 133.027344 L 201.78125 133.027344 L 201.78125 139.050781 L 200.269531 139.050781 L 200.269531 137.332031 L 199.953125 137.332031 L 199.953125 136.835938 L 200.375 136.835938 L 200.375 136.445312 L 192.792969 136.445312 L 192.792969 136.835938 L 193.417969 136.835938 L 193.417969 137.332031 L 193.234375 137.332031 L 193.234375 139.050781 L 188.996094 139.050781 L 188.996094 140.371094 L 189.332031 140.371094 L 189.332031 149.132812 L 188.996094 149.132812 L 188.996094 150.554688 L 189.332031 150.554688 L 189.332031 159.039062 L 189.003906 159.039062 L 189.003906 160.464844 L 189.332031 160.464844 L 189.332031 169.570312 L 189.015625 169.570312 L 189.015625 170.996094 L 189.332031 170.996094 L 189.332031 185.769531 L 210.566406 185.769531 L 210.566406 171.761719 L 210.585938 171.761719 L 210.585938 170.996094 L 210.90625 170.996094 L 210.90625 169.570312 L 210.566406 169.570312 L 210.566406 161.226562 " fill-opacity="1" fill-rule="nonzero"/><path fill="#55b2af" d="M 266.03125 149.136719 L 264.214844 149.136719 L 264.214844 145.871094 L 260.714844 145.871094 L 260.714844 144.871094 L 261.132812 144.871094 L 261.132812 143.023438 L 256.894531 143.023438 L 256.894531 144.871094 L 257.355469 144.871094 L 257.355469 145.871094 L 251.789062 145.871094 L 251.789062 144.007812 L 252.152344 144.007812 L 252.152344 142.25 L 241.851562 142.25 L 241.851562 144.007812 L 242.210938 144.007812 L 242.210938 145.871094 L 240.96875 145.871094 L 240.96875 149.136719 L 226.964844 149.136719 L 226.964844 184.484375 L 279.101562 184.484375 L 279.101562 149.136719 L 266.03125 149.136719 " fill-opacity="1" fill-rule="nonzero"/><g clip-path="url(#36819ba2cd)"><path fill="#57c146" d="M 285.738281 210.113281 L 271.546875 210.113281 C 273.820312 210.113281 275.664062 208.269531 275.664062 205.996094 C 275.664062 203.722656 273.820312 201.878906 271.546875 201.878906 L 285.738281 201.878906 C 288.015625 201.878906 289.855469 200.035156 289.855469 197.761719 C 289.855469 195.488281 288.015625 193.644531 285.738281 193.644531 L 280.824219 193.644531 C 283.390625 193.644531 285.46875 191.5625 285.46875 188.996094 L 285.46875 187.960938 C 285.46875 185.394531 283.390625 183.3125 280.824219 183.3125 L 97.074219 183.3125 C 94.507812 183.3125 92.425781 185.394531 92.425781 187.960938 L 92.425781 188.996094 C 92.425781 191.5625 94.507812 193.644531 97.074219 193.644531 L 103.511719 193.644531 C 101.238281 193.644531 99.394531 195.488281 99.394531 197.761719 C 99.394531 200.035156 101.238281 201.878906 103.511719 201.878906 L 89.316406 201.878906 C 87.042969 201.878906 85.199219 203.722656 85.199219 205.996094 C 85.199219 208.269531 87.042969 210.113281 89.316406 210.113281 L 103.511719 210.113281 C 101.238281 210.113281 99.394531 211.957031 99.394531 214.234375 C 99.394531 216.507812 101.238281 218.351562 103.511719 218.351562 L 285.738281 218.351562 C 288.015625 218.351562 289.855469 216.507812 289.855469 214.234375 C 289.855469 211.957031 288.015625 210.113281 285.738281 210.113281 " fill-opacity="1" fill-rule="nonzero"/></g><g clip-path="url(#c1d5fcc38a)"><path fill="#4eae48" d="M 285.738281 210.113281 L 271.546875 210.113281 C 272.777344 210.113281 273.878906 209.574219 274.632812 208.714844 L 110.21875 208.714844 C 107.949219 208.714844 106.105469 206.871094 106.105469 204.597656 C 106.105469 202.324219 107.949219 200.480469 110.21875 200.480469 L 100.425781 200.480469 C 101.179688 201.335938 102.28125 201.878906 103.511719 201.878906 L 89.316406 201.878906 C 87.042969 201.878906 85.199219 203.722656 85.199219 205.996094 C 85.199219 208.269531 87.042969 210.113281 89.316406 210.113281 L 103.511719 210.113281 C 101.238281 210.113281 99.394531 211.957031 99.394531 214.234375 C 99.394531 216.507812 101.238281 218.351562 103.511719 218.351562 L 285.738281 218.351562 C 288.015625 218.351562 289.855469 216.507812 289.855469 214.234375 C 289.855469 211.957031 288.015625 210.113281 285.738281 210.113281 " fill-opacity="1" fill-rule="nonzero"/></g><path fill="#57c146" d="M 244.277344 134.878906 C 244.277344 134.878906 234.742188 137.257812 232.421875 164.761719 C 231.644531 173.917969 255.011719 175.390625 257.203125 166.324219 C 259.582031 156.492188 249.996094 134.289062 244.277344 134.878906 " fill-opacity="1" fill-rule="nonzero"/><path fill="#69c644" d="M 244.847656 137.742188 C 248.882812 137.324219 254.835938 148.246094 257.164062 158.164062 C 255.445312 147.621094 248.703125 134.421875 244.277344 134.878906 C 244.277344 134.878906 234.742188 137.257812 232.421875 164.761719 C 232.332031 165.785156 232.550781 166.707031 233 167.535156 C 235.335938 140.113281 244.847656 137.742188 244.847656 137.742188 " fill-opacity="1" fill-rule="nonzero"/><path fill="#4eae48" d="M 234.117188 168.972656 C 239.433594 174.105469 255.410156 173.746094 257.203125 166.324219 C 257.957031 163.210938 257.511719 158.863281 256.367188 154.386719 C 254.386719 166.503906 240.429688 168.632812 234.117188 168.972656 " fill-opacity="1" fill-rule="nonzero"/><path fill="#45a64a" d="M 257.414062 159.988281 C 254.542969 168.167969 245.476562 170.792969 239.171875 171.621094 C 246.03125 173.566406 255.820312 172.039062 257.203125 166.324219 C 257.632812 164.546875 257.671875 162.367188 257.414062 159.988281 " fill-opacity="1" fill-rule="nonzero"/><path fill="#5b2e21" d="M 243.023438 171.15625 C 243.023438 171.15625 244.476562 181.167969 239.757812 185.765625 L 249.839844 185.765625 C 249.839844 185.765625 246.457031 182.5 246.957031 171.195312 C 246.957031 171.195312 246.261719 171.734375 245.25 170.144531 C 245.25 170.144531 244.628906 171.269531 243.023438 171.15625 " fill-opacity="1" fill-rule="nonzero"/><path fill="#48231b" d="M 246.957031 171.195312 C 246.957031 171.195312 246.261719 171.734375 245.25 170.144531 C 245.25 170.144531 245.121094 170.375 244.832031 170.617188 C 244.628906 173.992188 244.523438 180.972656 246.570312 185.765625 L 249.839844 185.765625 C 249.839844 185.765625 246.457031 182.5 246.957031 171.195312 " fill-opacity="1" fill-rule="nonzero"/><path fill="#5b2e21" d="M 268.628906 172.117188 C 268.628906 172.117188 267.695312 184.0625 266.726562 185.878906 L 271.375 185.878906 C 271.375 185.878906 270.410156 179.921875 270.132812 172.011719 L 268.628906 172.117188 " fill-opacity="1" fill-rule="nonzero"/><path fill="#48231b" d="M 268.65625 185.878906 L 271.375 185.878906 C 271.375 185.878906 270.410156 179.921875 270.132812 172.011719 L 269.441406 172.058594 C 269.308594 175.289062 268.96875 183.023438 268.65625 185.878906 " fill-opacity="1" fill-rule="nonzero"/><path fill="#57c146" d="M 263.554688 151.867188 C 263.554688 151.867188 262.5 148.359375 266.683594 149.796875 C 266.683594 149.796875 266.980469 148.191406 268.753906 149.457031 C 268.753906 149.457031 271.078125 147.132812 272.980469 150.261719 C 272.980469 150.261719 274.84375 148.375 274.464844 150.523438 C 274.464844 150.523438 277.210938 148.445312 277.503906 151.613281 C 277.503906 151.613281 279.914062 151.234375 278.4375 153.054688 C 278.4375 153.054688 281.308594 153.519531 279.199219 155.378906 C 279.199219 155.378906 281.648438 157.027344 280.210938 158.425781 C 280.210938 158.425781 281.691406 158.761719 280.339844 159.4375 C 280.339844 159.4375 281.523438 160.664062 279.746094 161.425781 C 279.746094 161.425781 281.097656 162.738281 279.621094 163.5 C 279.621094 163.5 282.242188 165.277344 279.746094 167.136719 C 279.746094 167.136719 280.972656 168.828125 278.519531 169.292969 C 278.519531 169.292969 278.859375 171.832031 275.941406 171.027344 C 275.941406 171.027344 276.195312 174.792969 272.8125 171.957031 C 272.8125 171.957031 272.433594 173.90625 270.613281 172.339844 C 270.613281 172.339844 269.9375 174.242188 268.628906 172.550781 C 268.628906 172.550781 266.683594 175.296875 264.949219 172.210938 C 264.949219 172.210938 263.175781 174.199219 262.457031 171.492188 C 262.457031 171.492188 260.257812 173.226562 261.105469 170.351562 C 261.105469 170.351562 258.101562 170.519531 260.085938 167.6875 C 260.085938 167.6875 256.453125 167.6875 259.199219 165.191406 C 259.199219 165.191406 257.253906 163.964844 259.667969 161.511719 C 259.667969 161.511719 257.933594 159.269531 260.382812 157.535156 C 260.382812 157.535156 259.410156 155.761719 260.765625 154.746094 C 260.765625 154.746094 259.875 153.265625 261.90625 152.757812 C 261.90625 152.757812 261.609375 151.277344 263.554688 151.867188 " fill-opacity="1" fill-rule="nonzero"/><path fill="#69c644" d="M 261.480469 171.367188 C 261.480469 171.367188 261.238281 171.519531 260.929688 171.644531 C 261.019531 172.082031 261.382812 172.0625 261.730469 171.921875 C 261.640625 171.769531 261.554688 171.585938 261.480469 171.367188 " fill-opacity="1" fill-rule="nonzero"/><path fill="#69c644" d="M 280.527344 157.144531 C 280.527344 157.144531 280.570312 157.167969 280.640625 157.207031 L 280.609375 157.085938 L 280.527344 157.144531 " fill-opacity="1" fill-rule="nonzero"/><path fill="#69c644" d="M 264.316406 172.003906 C 264.316406 172.003906 263.695312 172.546875 263 172.617188 C 263.578125 173.21875 264.308594 172.773438 264.691406 172.457031 C 264.566406 172.324219 264.441406 172.171875 264.316406 172.003906 " fill-opacity="1" fill-rule="nonzero"/><path fill="#69c644" d="M 260.59375 154.886719 C 260.675781 154.867188 260.761719 154.851562 260.855469 154.832031 C 260.855469 154.832031 260.519531 153.523438 262.730469 154.046875 C 262.730469 154.046875 261.527344 150.949219 266.289062 152.21875 C 266.289062 152.21875 266.625 150.800781 268.644531 151.917969 C 268.644531 151.917969 271.292969 149.867188 273.457031 152.628906 C 273.457031 152.628906 275.570312 150.960938 275.140625 152.859375 C 275.140625 152.859375 278.265625 151.023438 278.601562 153.824219 C 278.601562 153.824219 279.464844 153.71875 279.921875 153.910156 C 279.660156 153.253906 278.4375 153.054688 278.4375 153.054688 C 279.914062 151.234375 277.503906 151.613281 277.503906 151.613281 C 277.210938 148.445312 274.464844 150.523438 274.464844 150.523438 C 274.84375 148.375 272.980469 150.261719 272.980469 150.261719 C 271.078125 147.132812 268.753906 149.457031 268.753906 149.457031 C 266.980469 148.191406 266.683594 149.796875 266.683594 149.796875 C 262.5 148.359375 263.554688 151.867188 263.554688 151.867188 C 261.609375 151.277344 261.90625 152.757812 261.90625 152.757812 C 259.875 153.265625 260.765625 154.746094 260.765625 154.746094 C 260.703125 154.792969 260.644531 154.839844 260.59375 154.886719 " fill-opacity="1" fill-rule="nonzero"/><path fill="#69c644" d="M 270.761719 172.117188 C 270.761719 172.117188 270.71875 172.214844 270.625 172.347656 C 271.660156 173.234375 272.226562 172.980469 272.523438 172.597656 C 272.140625 172.722656 271.578125 172.660156 270.761719 172.117188 " fill-opacity="1" fill-rule="nonzero"/><path fill="#69c644" d="M 268.503906 172.304688 C 268.503906 172.304688 267.15625 173.777344 265.628906 173.132812 C 267.152344 174.632812 268.628906 172.550781 268.628906 172.550781 C 269.816406 174.082031 270.480469 172.664062 270.597656 172.386719 C 270.296875 172.789062 269.59375 173.394531 268.503906 172.304688 " fill-opacity="1" fill-rule="nonzero"/><path fill="#69c644" d="M 276.820312 170.957031 C 276.820312 170.957031 276.832031 171.042969 276.828125 171.179688 C 277.148438 171.199219 277.40625 171.15625 277.617188 171.082031 C 277.378906 171.058594 277.117188 171.019531 276.820312 170.957031 " fill-opacity="1" fill-rule="nonzero"/><path fill="#69c644" d="M 273.261719 171.777344 C 273.261719 171.777344 273.21875 171.96875 273.074219 172.171875 C 274.4375 173.230469 275.15625 173.144531 275.535156 172.710938 C 275.011719 172.695312 274.28125 172.441406 273.261719 171.777344 " fill-opacity="1" fill-rule="nonzero"/><path fill="#4eae48" d="M 272.8125 171.957031 C 276.195312 174.792969 275.941406 171.027344 275.941406 171.027344 C 278.859375 171.832031 278.519531 169.292969 278.519531 169.292969 C 280.972656 168.828125 279.746094 167.136719 279.746094 167.136719 C 282.242188 165.277344 279.621094 163.5 279.621094 163.5 C 281.097656 162.738281 279.746094 161.425781 279.746094 161.425781 C 281.523438 160.664062 280.339844 159.4375 280.339844 159.4375 C 281.691406 158.761719 280.210938 158.425781 280.210938 158.425781 C 280.523438 158.125 280.652344 157.8125 280.664062 157.503906 C 280.085938 158.398438 279.367188 158.769531 279.367188 158.769531 C 280.042969 161.351562 278.4375 161.351562 278.4375 161.351562 C 279.621094 164.605469 277.222656 164.265625 277.222656 164.265625 C 277.1875 168.371094 273.828125 166.339844 273.828125 166.339844 C 273.066406 169.722656 270.246094 167.355469 270.246094 167.355469 C 267.976562 169.851562 266.257812 167.101562 266.257812 167.101562 C 262.707031 168.667969 263 165.285156 263 165.285156 C 260.160156 164.058594 261.730469 161.351562 261.730469 161.351562 C 260.234375 161.078125 259.597656 159.660156 259.335938 158.675781 C 258.585938 160.117188 259.667969 161.511719 259.667969 161.511719 C 257.253906 163.964844 259.199219 165.191406 259.199219 165.191406 C 256.453125 167.6875 260.085938 167.6875 260.085938 167.6875 C 258.101562 170.519531 261.105469 170.351562 261.105469 170.351562 C 260.257812 173.226562 262.457031 171.492188 262.457031 171.492188 C 263.175781 174.199219 264.949219 172.210938 264.949219 172.210938 C 266.683594 175.296875 268.628906 172.550781 268.628906 172.550781 C 269.9375 174.242188 270.613281 172.339844 270.613281 172.339844 C 272.433594 173.90625 272.8125 171.957031 272.8125 171.957031 " fill-opacity="1" fill-rule="nonzero"/><path fill="#45a64a" d="M 279.199219 164.945312 C 279.835938 168.171875 277.617188 167.652344 277.617188 167.652344 C 277.519531 170.105469 275.535156 169.175781 275.535156 169.175781 C 274.996094 171.121094 272.8125 169.722656 272.8125 169.722656 C 272.046875 172.339844 270.246094 170.273438 270.246094 170.273438 C 268.402344 171.964844 267.613281 169.851562 267.613281 169.851562 C 265.753906 172.136719 264.910156 169.722656 264.910156 169.722656 C 263.472656 171.078125 262.625 169.472656 262.625 169.472656 C 260.636719 169.933594 261.144531 167.480469 261.144531 167.480469 C 259.625 166.511719 260.570312 164.945312 260.570312 164.945312 C 259.472656 164.394531 258.96875 163.527344 258.75 162.71875 C 257.894531 164.367188 259.199219 165.191406 259.199219 165.191406 C 256.453125 167.6875 260.085938 167.6875 260.085938 167.6875 C 258.101562 170.519531 261.105469 170.351562 261.105469 170.351562 C 260.257812 173.226562 262.457031 171.492188 262.457031 171.492188 C 263.175781 174.199219 264.949219 172.210938 264.949219 172.210938 C 266.683594 175.296875 268.628906 172.550781 268.628906 172.550781 C 269.9375 174.242188 270.613281 172.339844 270.613281 172.339844 C 272.433594 173.90625 272.8125 171.957031 272.8125 171.957031 C 276.195312 174.792969 275.941406 171.027344 275.941406 171.027344 C 278.859375 171.832031 278.519531 169.292969 278.519531 169.292969 C 280.972656 168.828125 279.746094 167.136719 279.746094 167.136719 C 281.171875 166.074219 280.925781 165.035156 280.453125 164.34375 C 280.054688 165.191406 279.199219 164.945312 279.199219 164.945312 " fill-opacity="1" fill-rule="nonzero"/><path fill="#5b2e21" d="M 104.65625 168.484375 C 104.65625 168.484375 103.59375 182.101562 102.484375 184.175781 L 107.789062 184.175781 C 107.789062 184.175781 106.6875 177.386719 106.371094 168.367188 L 104.65625 168.484375 " fill-opacity="1" fill-rule="nonzero"/><path fill="#48231b" d="M 104.6875 184.175781 L 107.789062 184.175781 C 107.789062 184.175781 106.6875 177.386719 106.371094 168.367188 L 105.582031 168.421875 C 105.429688 172.101562 105.042969 180.921875 104.6875 184.175781 " fill-opacity="1" fill-rule="nonzero"/><path fill="#57c146" d="M 98.871094 145.402344 C 98.871094 145.402344 97.664062 141.398438 102.4375 143.039062 C 102.4375 143.039062 102.777344 141.207031 104.800781 142.652344 C 104.800781 142.652344 107.453125 140 109.621094 143.570312 C 109.621094 143.570312 111.742188 141.414062 111.308594 143.867188 C 111.308594 143.867188 114.441406 141.496094 114.777344 145.113281 C 114.777344 145.113281 117.527344 144.679688 115.835938 146.753906 C 115.835938 146.753906 119.117188 147.28125 116.707031 149.402344 C 116.707031 149.402344 119.5 151.285156 117.863281 152.875 C 117.863281 152.875 119.550781 153.261719 118.007812 154.035156 C 118.007812 154.035156 119.355469 155.429688 117.332031 156.296875 C 117.332031 156.296875 118.875 157.792969 117.1875 158.664062 C 117.1875 158.664062 120.175781 160.6875 117.332031 162.808594 C 117.332031 162.808594 118.730469 164.738281 115.933594 165.269531 C 115.933594 165.269531 116.320312 168.160156 112.992188 167.246094 C 112.992188 167.246094 113.285156 171.535156 109.429688 168.304688 C 109.429688 168.304688 108.992188 170.523438 106.921875 168.738281 C 106.921875 168.738281 106.148438 170.910156 104.65625 168.980469 C 104.65625 168.980469 102.4375 172.113281 100.460938 168.59375 C 100.460938 168.59375 98.4375 170.859375 97.617188 167.773438 C 97.617188 167.773438 95.109375 169.75 96.074219 166.472656 C 96.074219 166.472656 92.652344 166.664062 94.917969 163.433594 C 94.917969 163.433594 90.773438 163.433594 93.90625 160.589844 C 93.90625 160.589844 91.6875 159.191406 94.4375 156.394531 C 94.4375 156.394531 92.460938 153.839844 95.257812 151.863281 C 95.257812 151.863281 94.148438 149.839844 95.691406 148.679688 C 95.691406 148.679688 94.675781 146.992188 96.992188 146.414062 C 96.992188 146.414062 96.65625 144.726562 98.871094 145.402344 " fill-opacity="1" fill-rule="nonzero"/><path fill="#69c644" d="M 96.507812 167.632812 C 96.507812 167.632812 96.226562 167.804688 95.878906 167.949219 C 95.980469 168.449219 96.394531 168.421875 96.792969 168.261719 C 96.6875 168.085938 96.589844 167.878906 96.507812 167.632812 " fill-opacity="1" fill-rule="nonzero"/><path fill="#69c644" d="M 118.222656 151.417969 C 118.222656 151.417969 118.269531 151.441406 118.347656 151.488281 L 118.316406 151.351562 L 118.222656 151.417969 " fill-opacity="1" fill-rule="nonzero"/><path fill="#69c644" d="M 99.742188 168.355469 C 99.742188 168.355469 99.03125 168.972656 98.238281 169.054688 C 98.898438 169.746094 99.730469 169.234375 100.164062 168.871094 C 100.023438 168.722656 99.882812 168.550781 99.742188 168.355469 " fill-opacity="1" fill-rule="nonzero"/><path fill="#69c644" d="M 95.492188 148.84375 C 95.589844 148.820312 95.6875 148.800781 95.792969 148.777344 C 95.792969 148.777344 95.410156 147.289062 97.929688 147.882812 C 97.929688 147.882812 96.5625 144.351562 101.992188 145.800781 C 101.992188 145.800781 102.375 144.183594 104.679688 145.460938 C 104.679688 145.460938 107.691406 143.117188 110.160156 146.269531 C 110.160156 146.269531 112.574219 144.367188 112.078125 146.53125 C 112.078125 146.53125 115.644531 144.4375 116.027344 147.628906 C 116.027344 147.628906 117.007812 147.507812 117.535156 147.722656 C 117.234375 146.976562 115.835938 146.753906 115.835938 146.753906 C 117.527344 144.679688 114.777344 145.113281 114.777344 145.113281 C 114.441406 141.496094 111.308594 143.867188 111.308594 143.867188 C 111.742188 141.414062 109.621094 143.570312 109.621094 143.570312 C 107.453125 140 104.800781 142.652344 104.800781 142.652344 C 102.777344 141.207031 102.4375 143.039062 102.4375 143.039062 C 97.664062 141.398438 98.871094 145.402344 98.871094 145.402344 C 96.65625 144.726562 96.992188 146.414062 96.992188 146.414062 C 94.675781 146.992188 95.691406 148.679688 95.691406 148.679688 C 95.617188 148.734375 95.554688 148.789062 95.492188 148.84375 " fill-opacity="1" fill-rule="nonzero"/><path fill="#69c644" d="M 107.089844 168.484375 C 107.089844 168.484375 107.035156 168.601562 106.933594 168.75 C 108.113281 169.757812 108.757812 169.46875 109.09375 169.035156 C 108.660156 169.175781 108.019531 169.105469 107.089844 168.484375 " fill-opacity="1" fill-rule="nonzero"/><path fill="#69c644" d="M 104.511719 168.695312 C 104.511719 168.695312 102.976562 170.378906 101.234375 169.644531 C 102.972656 171.355469 104.65625 168.980469 104.65625 168.980469 C 106.007812 170.726562 106.769531 169.113281 106.898438 168.792969 C 106.558594 169.25 105.753906 169.941406 104.511719 168.695312 " fill-opacity="1" fill-rule="nonzero"/><path fill="#69c644" d="M 114 167.164062 C 114 167.164062 114.007812 167.265625 114.003906 167.417969 C 114.367188 167.4375 114.664062 167.390625 114.90625 167.304688 C 114.632812 167.28125 114.332031 167.234375 114 167.164062 " fill-opacity="1" fill-rule="nonzero"/><path fill="#69c644" d="M 109.941406 168.101562 C 109.941406 168.101562 109.886719 168.316406 109.726562 168.546875 C 111.277344 169.757812 112.097656 169.65625 112.527344 169.164062 C 111.933594 169.144531 111.105469 168.855469 109.941406 168.101562 " fill-opacity="1" fill-rule="nonzero"/><path fill="#4eae48" d="M 109.429688 168.304688 C 113.285156 171.535156 112.992188 167.246094 112.992188 167.246094 C 116.320312 168.160156 115.933594 165.269531 115.933594 165.269531 C 118.730469 164.738281 117.332031 162.808594 117.332031 162.808594 C 120.175781 160.6875 117.1875 158.664062 117.1875 158.664062 C 118.875 157.792969 117.332031 156.296875 117.332031 156.296875 C 119.355469 155.429688 118.007812 154.035156 118.007812 154.035156 C 119.550781 153.261719 117.863281 152.875 117.863281 152.875 C 118.214844 152.53125 118.363281 152.175781 118.375 151.828125 C 117.71875 152.847656 116.898438 153.269531 116.898438 153.269531 C 117.667969 156.210938 115.835938 156.210938 115.835938 156.210938 C 117.1875 159.921875 114.453125 159.539062 114.453125 159.539062 C 114.417969 164.214844 110.582031 161.902344 110.582031 161.902344 C 109.714844 165.757812 106.503906 163.058594 106.503906 163.058594 C 103.914062 165.902344 101.957031 162.769531 101.957031 162.769531 C 97.90625 164.550781 98.238281 160.695312 98.238281 160.695312 C 95.003906 159.296875 96.792969 156.210938 96.792969 156.210938 C 95.085938 155.902344 94.363281 154.28125 94.0625 153.160156 C 93.207031 154.804688 94.4375 156.394531 94.4375 156.394531 C 91.6875 159.191406 93.90625 160.589844 93.90625 160.589844 C 90.773438 163.433594 94.917969 163.433594 94.917969 163.433594 C 92.652344 166.664062 96.074219 166.472656 96.074219 166.472656 C 95.109375 169.75 97.617188 167.773438 97.617188 167.773438 C 98.4375 170.859375 100.460938 168.59375 100.460938 168.59375 C 102.4375 172.113281 104.65625 168.980469 104.65625 168.980469 C 106.148438 170.910156 106.921875 168.738281 106.921875 168.738281 C 108.992188 170.523438 109.429688 168.304688 109.429688 168.304688 " fill-opacity="1" fill-rule="nonzero"/><path fill="#45a64a" d="M 116.707031 160.308594 C 117.433594 163.988281 114.90625 163.394531 114.90625 163.394531 C 114.792969 166.191406 112.527344 165.128906 112.527344 165.128906 C 111.917969 167.347656 109.429688 165.757812 109.429688 165.757812 C 108.554688 168.738281 106.503906 166.386719 106.503906 166.386719 C 104.394531 168.3125 103.5 165.902344 103.5 165.902344 C 101.378906 168.507812 100.414062 165.757812 100.414062 165.757812 C 98.773438 167.300781 97.8125 165.46875 97.8125 165.46875 C 95.546875 166 96.125 163.203125 96.125 163.203125 C 94.390625 162.09375 95.46875 160.308594 95.46875 160.308594 C 94.21875 159.683594 93.644531 158.691406 93.394531 157.773438 C 92.417969 159.652344 93.90625 160.589844 93.90625 160.589844 C 90.773438 163.433594 94.917969 163.433594 94.917969 163.433594 C 92.652344 166.664062 96.074219 166.472656 96.074219 166.472656 C 95.109375 169.75 97.617188 167.773438 97.617188 167.773438 C 98.4375 170.859375 100.460938 168.59375 100.460938 168.59375 C 102.4375 172.113281 104.65625 168.980469 104.65625 168.980469 C 106.148438 170.910156 106.921875 168.738281 106.921875 168.738281 C 108.992188 170.523438 109.429688 168.304688 109.429688 168.304688 C 113.285156 171.535156 112.992188 167.246094 112.992188 167.246094 C 116.320312 168.160156 115.933594 165.269531 115.933594 165.269531 C 118.730469 164.738281 117.332031 162.808594 117.332031 162.808594 C 118.957031 161.59375 118.675781 160.410156 118.136719 159.621094 C 117.683594 160.589844 116.707031 160.308594 116.707031 160.308594 " fill-opacity="1" fill-rule="nonzero"/><path fill="#b0e4db" d="M 205.347656 97.324219 L 278.304688 97.324219 C 278.304688 97.324219 278.703125 92.335938 265.746094 92.734375 C 265.746094 92.734375 267.34375 86.554688 249.800781 87.152344 C 249.800781 87.152344 248.402344 78.976562 238.238281 79.574219 C 238.238281 79.574219 226.277344 79.542969 224.285156 89.546875 C 224.285156 89.546875 212.523438 88.546875 211.925781 93.933594 C 211.925781 93.933594 205.546875 93.730469 205.347656 97.324219 " fill-opacity="1" fill-rule="nonzero"/><path fill="#b0e4db" d="M 167.402344 79.542969 L 205.980469 79.542969 C 205.980469 79.542969 206.195312 76.910156 199.34375 77.117188 C 199.34375 77.117188 200.183594 73.851562 190.910156 74.164062 C 190.910156 74.164062 190.171875 69.84375 184.796875 70.160156 C 184.796875 70.160156 178.46875 70.144531 177.417969 75.433594 C 177.417969 75.433594 171.199219 74.902344 170.882812 77.75 C 170.882812 77.75 167.511719 77.648438 167.402344 79.542969 " fill-opacity="1" fill-rule="nonzero"/><path fill="#b0e4db" d="M 112.554688 86.535156 L 151.132812 86.535156 C 151.132812 86.535156 151.34375 83.898438 144.492188 84.109375 C 144.492188 84.109375 145.335938 80.839844 136.0625 81.160156 C 136.0625 81.160156 135.324219 76.835938 129.949219 77.152344 C 129.949219 77.152344 123.621094 77.132812 122.566406 82.421875 C 122.566406 82.421875 116.351562 81.898438 116.035156 84.742188 C 116.035156 84.742188 112.660156 84.636719 112.554688 86.535156 " fill-opacity="1" fill-rule="nonzero"/><path fill="#a8dbdb" d="M 114.296875 129.070312 L 114.296875 186.765625 L 143.34375 186.765625 L 143.34375 129.070312 L 114.296875 129.070312 " fill-opacity="1" fill-rule="nonzero"/><path fill="#88c9c6" d="M 134.734375 129.070312 L 134.734375 186.765625 L 143.34375 186.765625 L 143.34375 129.070312 L 134.734375 129.070312 " fill-opacity="1" fill-rule="nonzero"/><path fill="#4ec4cb" d="M 142.0625 186.765625 L 115.578125 186.765625 L 115.578125 133.40625 L 142.0625 133.40625 L 142.0625 186.765625 " fill-opacity="1" fill-rule="nonzero"/><path fill="#3a9197" d="M 142.0625 180.503906 L 115.578125 180.503906 L 115.578125 177.800781 L 142.0625 177.800781 L 142.0625 180.503906 " fill-opacity="1" fill-rule="nonzero"/><path fill="#3f9ea8" d="M 142.0625 175.554688 L 131.988281 175.554688 L 131.988281 133.40625 L 142.0625 133.40625 L 142.0625 175.554688 " fill-opacity="1" fill-rule="nonzero"/><path fill="#3a9197" d="M 137.085938 133.40625 L 137.085938 175.554688 L 142.0625 175.554688 L 142.0625 133.40625 L 137.085938 133.40625 " fill-opacity="1" fill-rule="nonzero"/><path fill="#cfeff1" d="M 142.867188 177.800781 L 114.777344 177.800781 L 114.777344 175.554688 L 142.867188 175.554688 L 142.867188 177.800781 " fill-opacity="1" fill-rule="nonzero"/><path fill="#cfeff1" d="M 121.074219 186.765625 L 120.191406 186.765625 L 120.191406 177.160156 L 121.074219 177.160156 L 121.074219 186.765625 " fill-opacity="1" fill-rule="nonzero"/><path fill="#cfeff1" d="M 126.535156 186.765625 L 125.652344 186.765625 L 125.652344 177.160156 L 126.535156 177.160156 L 126.535156 186.765625 " fill-opacity="1" fill-rule="nonzero"/><path fill="#cfeff1" d="M 131.988281 186.765625 L 131.109375 186.765625 L 131.109375 177.160156 L 131.988281 177.160156 L 131.988281 186.765625 " fill-opacity="1" fill-rule="nonzero"/><path fill="#cfeff1" d="M 137.449219 186.765625 L 136.566406 186.765625 L 136.566406 177.160156 L 137.449219 177.160156 L 137.449219 186.765625 " fill-opacity="1" fill-rule="nonzero"/><path fill="#cfeff1" d="M 142.0625 169.371094 L 115.578125 169.371094 L 115.578125 168.890625 L 142.0625 168.890625 L 142.0625 169.371094 " fill-opacity="1" fill-rule="nonzero"/><path fill="#cfeff1" d="M 142.0625 162.707031 L 115.578125 162.707031 L 115.578125 162.226562 L 142.0625 162.226562 L 142.0625 162.707031 " fill-opacity="1" fill-rule="nonzero"/><path fill="#cfeff1" d="M 142.0625 156.082031 L 115.578125 156.082031 L 115.578125 155.578125 L 142.0625 155.578125 L 142.0625 156.082031 " fill-opacity="1" fill-rule="nonzero"/><path fill="#cfeff1" d="M 142.0625 149.382812 L 115.578125 149.382812 L 115.578125 148.898438 L 142.0625 148.898438 L 142.0625 149.382812 " fill-opacity="1" fill-rule="nonzero"/><path fill="#cfeff1" d="M 142.0625 142.71875 L 115.578125 142.71875 L 115.578125 142.234375 L 142.0625 142.234375 L 142.0625 142.71875 " fill-opacity="1" fill-rule="nonzero"/><path fill="#cfeff1" d="M 142.0625 136.054688 L 115.578125 136.054688 L 115.578125 135.570312 L 142.0625 135.570312 L 142.0625 136.054688 " fill-opacity="1" fill-rule="nonzero"/><path fill="#537a7e" d="M 120.847656 129.070312 L 116.566406 129.070312 L 116.566406 126.394531 L 120.847656 126.394531 L 120.847656 129.070312 " fill-opacity="1" fill-rule="nonzero"/><path fill="#6a9095" d="M 121.382812 127.730469 L 115.980469 127.730469 L 115.980469 125.375 L 121.382812 125.375 L 121.382812 127.730469 " fill-opacity="1" fill-rule="nonzero"/><path fill="#85c0bf" d="M 135.347656 129.070312 L 123.203125 129.070312 L 123.203125 124.652344 L 135.347656 124.652344 L 135.347656 129.070312 " fill-opacity="1" fill-rule="nonzero"/><path fill="#5c9296" d="M 135.828125 126.207031 L 122.722656 126.207031 L 122.722656 124.011719 L 135.828125 124.011719 L 135.828125 126.207031 " fill-opacity="1" fill-rule="nonzero"/><path fill="#852e29" d="M 216.191406 163.074219 L 236.925781 163.074219 L 236.925781 171.390625 L 216.191406 171.390625 L 216.191406 163.074219 " fill-opacity="1" fill-rule="nonzero"/><path fill="#c9a870" d="M 236.078125 185.6875 L 227.398438 185.6875 L 227.398438 171.8125 L 236.078125 171.8125 L 236.078125 185.6875 " fill-opacity="1" fill-rule="nonzero"/><path fill="#ac8448" d="M 230.28125 185.679688 L 228.125 185.679688 L 228.125 172.363281 L 230.28125 172.363281 L 230.28125 185.679688 " fill-opacity="1" fill-rule="nonzero"/><path fill="#ac8448" d="M 236.078125 173.613281 L 228.125 173.613281 L 228.125 172.363281 L 236.078125 172.363281 L 236.078125 173.613281 " fill-opacity="1" fill-rule="nonzero"/><path fill="#d9bf93" d="M 228.125 185.6875 L 204.863281 185.6875 L 204.863281 169.800781 L 216.492188 164.292969 L 228.125 169.800781 L 228.125 185.6875 " fill-opacity="1" fill-rule="nonzero"/><path fill="#b99a62" d="M 228.125 172.554688 L 228.125 169.800781 L 216.492188 164.292969 L 204.863281 169.800781 L 204.863281 172.554688 L 216.492188 167.574219 L 228.125 172.554688 " fill-opacity="1" fill-rule="nonzero"/><path fill="#edefad" d="M 192.882812 185.6875 L 207.019531 185.6875 L 207.019531 173.929688 L 192.882812 173.929688 Z M 192.882812 185.6875 " fill-opacity="1" fill-rule="nonzero"/><path fill="#a5433a" d="M 216.492188 161.699219 L 202.519531 168.371094 L 202.519531 170.964844 L 216.492188 164.292969 L 230.46875 170.964844 L 230.46875 168.371094 L 216.492188 161.699219 " fill-opacity="1" fill-rule="nonzero"/><path fill="#b6c4d4" d="M 194.289062 185.6875 L 205.613281 185.6875 L 205.613281 176.15625 L 194.289062 176.15625 Z M 194.289062 185.6875 " fill-opacity="1" fill-rule="nonzero"/><path fill="#88a3b5" d="M 194.914062 185.6875 L 204.984375 185.6875 L 204.984375 177.214844 L 194.914062 177.214844 Z M 194.914062 185.6875 " fill-opacity="1" fill-rule="nonzero"/><path fill="#7691a4" d="M 194.914062 178.007812 L 204.984375 178.007812 L 204.984375 177.214844 L 194.914062 177.214844 Z M 194.914062 178.007812 " fill-opacity="1" fill-rule="nonzero"/><path fill="#5d8099" d="M 204.984375 177.796875 L 194.914062 177.796875 L 194.914062 177.515625 L 204.984375 177.515625 L 204.984375 177.796875 " fill-opacity="1" fill-rule="nonzero"/><path fill="#5d8099" d="M 204.984375 178.445312 L 194.914062 178.445312 L 194.914062 178.164062 L 204.984375 178.164062 L 204.984375 178.445312 " fill-opacity="1" fill-rule="nonzero"/><path fill="#5d8099" d="M 204.984375 179.09375 L 194.914062 179.09375 L 194.914062 178.8125 L 204.984375 178.8125 L 204.984375 179.09375 " fill-opacity="1" fill-rule="nonzero"/><path fill="#5d8099" d="M 204.984375 179.742188 L 194.914062 179.742188 L 194.914062 179.460938 L 204.984375 179.460938 L 204.984375 179.742188 " fill-opacity="1" fill-rule="nonzero"/><path fill="#5d8099" d="M 204.984375 180.390625 L 194.914062 180.390625 L 194.914062 180.109375 L 204.984375 180.109375 L 204.984375 180.390625 " fill-opacity="1" fill-rule="nonzero"/><path fill="#5d8099" d="M 204.984375 181.039062 L 194.914062 181.039062 L 194.914062 180.757812 L 204.984375 180.757812 L 204.984375 181.039062 " fill-opacity="1" fill-rule="nonzero"/><path fill="#5d8099" d="M 204.984375 181.6875 L 194.914062 181.6875 L 194.914062 181.40625 L 204.984375 181.40625 L 204.984375 181.6875 " fill-opacity="1" fill-rule="nonzero"/><path fill="#5d8099" d="M 204.984375 182.335938 L 194.914062 182.335938 L 194.914062 182.054688 L 204.984375 182.054688 L 204.984375 182.335938 " fill-opacity="1" fill-rule="nonzero"/><path fill="#5d8099" d="M 204.984375 182.984375 L 194.914062 182.984375 L 194.914062 182.703125 L 204.984375 182.703125 L 204.984375 182.984375 " fill-opacity="1" fill-rule="nonzero"/><path fill="#5d8099" d="M 204.984375 183.632812 L 194.914062 183.632812 L 194.914062 183.351562 L 204.984375 183.351562 L 204.984375 183.632812 " fill-opacity="1" fill-rule="nonzero"/><path fill="#5d8099" d="M 204.984375 184.285156 L 194.914062 184.285156 L 194.914062 184 L 204.984375 184 L 204.984375 184.285156 " fill-opacity="1" fill-rule="nonzero"/><path fill="#5d8099" d="M 204.984375 184.929688 L 194.914062 184.929688 L 194.914062 184.648438 L 204.984375 184.648438 L 204.984375 184.929688 " fill-opacity="1" fill-rule="nonzero"/><path fill="#5d8099" d="M 204.984375 185.582031 L 194.914062 185.582031 L 194.914062 185.296875 L 204.984375 185.296875 L 204.984375 185.582031 " fill-opacity="1" fill-rule="nonzero"/><path fill="#c6c77e" d="M 206.222656 185.6875 L 205.613281 185.6875 L 205.613281 176.472656 L 206.222656 176.472656 L 206.222656 185.6875 " fill-opacity="1" fill-rule="nonzero"/><path fill="#b99a62" d="M 216.191406 177.617188 L 208.816406 177.617188 L 208.816406 172.707031 L 216.191406 172.707031 L 216.191406 177.617188 " fill-opacity="1" fill-rule="nonzero"/><path fill="#8b3133" d="M 216.003906 177.269531 L 208.628906 177.269531 L 208.628906 172.363281 L 216.003906 172.363281 L 216.003906 177.269531 " fill-opacity="1" fill-rule="nonzero"/><path fill="#50a6c3" d="M 215.359375 176.84375 L 209.273438 176.84375 L 209.273438 172.792969 L 215.359375 172.792969 L 215.359375 176.84375 " fill-opacity="1" fill-rule="nonzero"/><path fill="#8b3133" d="M 212.503906 177.269531 L 212.199219 177.269531 L 212.199219 172.488281 L 212.503906 172.488281 L 212.503906 177.269531 " fill-opacity="1" fill-rule="nonzero"/><path fill="#8b3133" d="M 216.003906 174.730469 L 216.003906 175.03125 L 208.628906 175.03125 L 208.628906 174.730469 L 216.003906 174.730469 " fill-opacity="1" fill-rule="nonzero"/><path fill="#b99a62" d="M 225.714844 177.65625 L 218.339844 177.65625 L 218.339844 172.75 L 225.714844 172.75 L 225.714844 177.65625 " fill-opacity="1" fill-rule="nonzero"/><path fill="#8b3133" d="M 225.535156 177.3125 L 218.15625 177.3125 L 218.15625 172.40625 L 225.535156 172.40625 L 225.535156 177.3125 " fill-opacity="1" fill-rule="nonzero"/><path fill="#50a6c3" d="M 224.886719 176.882812 L 218.800781 176.882812 L 218.800781 172.832031 L 224.886719 172.832031 L 224.886719 176.882812 " fill-opacity="1" fill-rule="nonzero"/><path fill="#8b3133" d="M 222.027344 177.3125 L 221.730469 177.3125 L 221.730469 172.527344 L 222.027344 172.527344 L 222.027344 177.3125 " fill-opacity="1" fill-rule="nonzero"/><path fill="#8b3133" d="M 225.535156 174.769531 L 225.535156 175.070312 L 218.15625 175.070312 L 218.15625 174.769531 L 225.535156 174.769531 " fill-opacity="1" fill-rule="nonzero"/><path fill="#ffffff" d="M 236.925781 172.363281 L 228.125 172.363281 L 228.125 171.390625 L 236.925781 171.390625 L 236.925781 172.363281 " fill-opacity="1" fill-rule="nonzero"/><path fill="#99554e" d="M 233.992188 185.679688 L 229.484375 185.679688 L 229.484375 178.164062 L 233.992188 178.164062 L 233.992188 185.679688 " fill-opacity="1" fill-rule="nonzero"/><path fill="#844141" d="M 233.574219 185.679688 L 229.898438 185.679688 L 229.898438 178.621094 L 233.574219 178.621094 L 233.574219 185.679688 " fill-opacity="1" fill-rule="nonzero"/><path fill="#742e31" d="M 233.574219 179.089844 L 233.574219 178.621094 L 229.898438 178.621094 L 229.898438 179.089844 L 233.574219 179.089844 " fill-opacity="1" fill-rule="nonzero"/><path fill="#b99a62" d="M 208.339844 185.6875 L 207.019531 185.6875 L 207.019531 174.835938 L 208.339844 174.835938 L 208.339844 185.6875 " fill-opacity="1" fill-rule="nonzero"/><path fill="#537a7e" d="M 153.953125 113.394531 L 150.976562 113.394531 L 150.976562 111.535156 L 153.953125 111.535156 L 153.953125 113.394531 " fill-opacity="1" fill-rule="nonzero"/><path fill="#6a9095" d="M 154.324219 112.464844 L 150.566406 112.464844 L 150.566406 110.824219 L 154.324219 110.824219 L 154.324219 112.464844 " fill-opacity="1" fill-rule="nonzero"/><path fill="#85c0bf" d="M 166.148438 113.394531 L 157.007812 113.394531 L 157.007812 110.070312 L 166.148438 110.070312 L 166.148438 113.394531 " fill-opacity="1" fill-rule="nonzero"/><path fill="#5c9296" d="M 166.511719 111.238281 L 156.644531 111.238281 L 156.644531 109.589844 L 166.511719 109.589844 L 166.511719 111.238281 " fill-opacity="1" fill-rule="nonzero"/><path fill="#e5732b" d="M 191.148438 186.066406 L 168.523438 186.066406 L 168.523438 119.59375 L 191.148438 119.59375 L 191.148438 186.066406 " fill-opacity="1" fill-rule="nonzero"/><path fill="#b6532c" d="M 175.25 186.066406 L 172.445312 186.066406 L 172.445312 119.59375 L 175.25 119.59375 L 175.25 186.066406 " fill-opacity="1" fill-rule="nonzero"/><path fill="#f1b624" d="M 172.445312 186.066406 L 147.066406 186.066406 L 147.066406 114.113281 L 172.445312 114.113281 L 172.445312 186.066406 " fill-opacity="1" fill-rule="nonzero"/><path fill="#e78f2c" d="M 166.992188 178.734375 L 153.160156 178.734375 L 153.160156 175.09375 L 166.992188 175.09375 L 166.992188 178.734375 " fill-opacity="1" fill-rule="nonzero"/><path fill="#e78f2c" d="M 147.066406 137.082031 L 172.445312 137.082031 L 172.445312 135.925781 L 147.066406 135.925781 L 147.066406 137.082031 " fill-opacity="1" fill-rule="nonzero"/><path fill="#e78f2c" d="M 147.066406 155.214844 L 172.445312 155.214844 L 172.445312 154.058594 L 147.066406 154.058594 L 147.066406 155.214844 " fill-opacity="1" fill-rule="nonzero"/><path fill="#e78f2c" d="M 147.066406 173.253906 L 172.445312 173.253906 L 172.445312 172.097656 L 147.066406 172.097656 L 147.066406 173.253906 " fill-opacity="1" fill-rule="nonzero"/><path fill="#f8d996" d="M 172.863281 172.097656 L 146.648438 172.097656 L 146.648438 169.941406 L 172.863281 169.941406 L 172.863281 172.097656 " fill-opacity="1" fill-rule="nonzero"/><path fill="#f8d996" d="M 172.863281 154.058594 L 146.648438 154.058594 L 146.648438 151.902344 L 172.863281 151.902344 L 172.863281 154.058594 " fill-opacity="1" fill-rule="nonzero"/><path fill="#f8d996" d="M 172.863281 135.925781 L 146.648438 135.925781 L 146.648438 133.769531 L 172.863281 133.769531 L 172.863281 135.925781 " fill-opacity="1" fill-rule="nonzero"/><path fill="#f8d996" d="M 172.863281 115.550781 L 146.648438 115.550781 L 146.648438 113.394531 L 172.863281 113.394531 L 172.863281 115.550781 " fill-opacity="1" fill-rule="nonzero"/><path fill="#4ec4cb" d="M 170.660156 133.769531 L 148.632812 133.769531 L 148.632812 117.792969 L 170.660156 117.792969 L 170.660156 133.769531 " fill-opacity="1" fill-rule="nonzero"/><path fill="#3f9ea8" d="M 161.78125 117.792969 L 161.78125 133.769531 L 170.660156 133.769531 L 170.660156 117.792969 L 161.78125 117.792969 " fill-opacity="1" fill-rule="nonzero"/><path fill="#3a9197" d="M 166.390625 117.792969 L 166.390625 133.769531 L 170.660156 133.769531 L 170.660156 117.792969 L 166.390625 117.792969 " fill-opacity="1" fill-rule="nonzero"/><path fill="#4ec4cb" d="M 170.769531 151.902344 L 148.742188 151.902344 L 148.742188 135.925781 L 170.769531 135.925781 L 170.769531 151.902344 " fill-opacity="1" fill-rule="nonzero"/><path fill="#3f9ea8" d="M 161.890625 135.925781 L 161.890625 151.902344 L 170.769531 151.902344 L 170.769531 135.925781 L 161.890625 135.925781 " fill-opacity="1" fill-rule="nonzero"/><path fill="#3a9197" d="M 166.5 135.925781 L 166.5 151.902344 L 170.769531 151.902344 L 170.769531 135.925781 L 166.5 135.925781 " fill-opacity="1" fill-rule="nonzero"/><path fill="#4ec4cb" d="M 170.769531 169.941406 L 148.742188 169.941406 L 148.742188 153.96875 L 170.769531 153.96875 L 170.769531 169.941406 " fill-opacity="1" fill-rule="nonzero"/><path fill="#3f9ea8" d="M 161.890625 153.96875 L 161.890625 169.941406 L 170.769531 169.941406 L 170.769531 153.96875 L 161.890625 153.96875 " fill-opacity="1" fill-rule="nonzero"/><path fill="#3a9197" d="M 166.5 153.96875 L 166.5 169.941406 L 170.769531 169.941406 L 170.769531 153.96875 L 166.5 153.96875 " fill-opacity="1" fill-rule="nonzero"/><path fill="#f1b624" d="M 155.34375 133.769531 L 154.515625 133.769531 L 154.515625 117.792969 L 155.34375 117.792969 L 155.34375 133.769531 " fill-opacity="1" fill-rule="nonzero"/><path fill="#f1b624" d="M 164.773438 133.769531 L 163.945312 133.769531 L 163.945312 117.792969 L 164.773438 117.792969 L 164.773438 133.769531 " fill-opacity="1" fill-rule="nonzero"/><path fill="#f1b624" d="M 155.34375 151.902344 L 154.515625 151.902344 L 154.515625 135.925781 L 155.34375 135.925781 L 155.34375 151.902344 " fill-opacity="1" fill-rule="nonzero"/><path fill="#f1b624" d="M 164.773438 151.902344 L 163.945312 151.902344 L 163.945312 135.925781 L 164.773438 135.925781 L 164.773438 151.902344 " fill-opacity="1" fill-rule="nonzero"/><path fill="#f1b624" d="M 155.34375 169.941406 L 154.515625 169.941406 L 154.515625 153.96875 L 155.34375 153.96875 L 155.34375 169.941406 " fill-opacity="1" fill-rule="nonzero"/><path fill="#f1b624" d="M 164.773438 169.941406 L 163.945312 169.941406 L 163.945312 153.96875 L 164.773438 153.96875 L 164.773438 169.941406 " fill-opacity="1" fill-rule="nonzero"/><path fill="#f8d996" d="M 171.410156 176.074219 L 148.742188 176.074219 L 148.742188 174.113281 L 171.410156 174.113281 L 171.410156 176.074219 " fill-opacity="1" fill-rule="nonzero"/><path fill="#f8d996" d="M 154.082031 186.765625 L 152.238281 186.765625 L 152.238281 176.074219 L 154.082031 176.074219 L 154.082031 186.765625 " fill-opacity="1" fill-rule="nonzero"/><path fill="#f8d996" d="M 167.914062 186.765625 L 166.066406 186.765625 L 166.066406 176.074219 L 167.914062 176.074219 L 167.914062 186.765625 " fill-opacity="1" fill-rule="nonzero"/><path fill="#4ec4cb" d="M 188.898438 181.417969 L 176.027344 181.417969 L 176.027344 124.886719 L 188.898438 124.886719 L 188.898438 181.417969 " fill-opacity="1" fill-rule="nonzero"/><path fill="#3f9ea8" d="M 182.773438 124.886719 L 182.773438 181.417969 L 188.898438 181.417969 L 188.898438 124.886719 L 182.773438 124.886719 " fill-opacity="1" fill-rule="nonzero"/><path fill="#3a9197" d="M 186.214844 124.886719 L 186.214844 181.417969 L 188.898438 181.417969 L 188.898438 124.886719 L 186.214844 124.886719 " fill-opacity="1" fill-rule="nonzero"/><path fill="#e5732b" d="M 179.835938 181.417969 L 180.433594 181.417969 L 180.433594 124.886719 L 179.835938 124.886719 L 179.835938 181.417969 " fill-opacity="1" fill-rule="nonzero"/><path fill="#e5732b" d="M 185.023438 181.417969 L 185.617188 181.417969 L 185.617188 124.886719 L 185.023438 124.886719 L 185.023438 181.417969 " fill-opacity="1" fill-rule="nonzero"/><path fill="#b6532c" d="M 191.148438 121.148438 L 172.445312 121.148438 L 172.445312 119.59375 L 191.148438 119.59375 L 191.148438 121.148438 " fill-opacity="1" fill-rule="nonzero"/><path fill="#e78f2c" d="M 147.066406 116.707031 L 172.445312 116.707031 L 172.445312 115.550781 L 147.066406 115.550781 L 147.066406 116.707031 " fill-opacity="1" fill-rule="nonzero"/><path fill="#ffffff" d="M 165.1875 186.066406 L 154.929688 186.066406 L 154.929688 176.914062 L 165.1875 176.914062 L 165.1875 186.066406 " fill-opacity="1" fill-rule="nonzero"/><path fill="#4ec4cb" d="M 164.707031 186.066406 L 155.410156 186.066406 L 155.410156 177.769531 L 164.707031 177.769531 L 164.707031 186.066406 " fill-opacity="1" fill-rule="nonzero"/><path fill="#ffffff" d="M 160.609375 186.066406 L 159.753906 186.066406 L 159.753906 176.914062 L 160.609375 176.914062 L 160.609375 186.066406 " fill-opacity="1" fill-rule="nonzero"/><g fill="#1d7b1a" fill-opacity="1"><g transform="translate(72.269531, 255.530184)"><g><path d="M 8.359375 -23.40625 L 8.359375 -16.40625 L 17.765625 -16.40625 L 17.765625 -11.953125 L 8.359375 -11.953125 L 8.359375 -4.5625 L 18.953125 -4.5625 L 18.953125 0 L 2.765625 0 L 2.765625 -27.953125 L 18.953125 -27.953125 L 18.953125 -23.40625 Z M 8.359375 -23.40625 "/></g></g></g><g fill="#1d7b1a" fill-opacity="1"><g transform="translate(93.547415, 255.530184)"><g><path d="M 1.40625 -14 C 1.40625 -16.75 2.023438 -19.207031 3.265625 -21.375 C 4.503906 -23.550781 6.195312 -25.242188 8.34375 -26.453125 C 10.488281 -27.671875 12.894531 -28.28125 15.5625 -28.28125 C 18.675781 -28.28125 21.40625 -27.476562 23.75 -25.875 C 26.101562 -24.28125 27.75 -22.066406 28.6875 -19.234375 L 22.234375 -19.234375 C 21.597656 -20.566406 20.695312 -21.566406 19.53125 -22.234375 C 18.375 -22.898438 17.035156 -23.234375 15.515625 -23.234375 C 13.890625 -23.234375 12.441406 -22.851562 11.171875 -22.09375 C 9.910156 -21.332031 8.925781 -20.257812 8.21875 -18.875 C 7.507812 -17.488281 7.15625 -15.863281 7.15625 -14 C 7.15625 -12.15625 7.507812 -10.535156 8.21875 -9.140625 C 8.925781 -7.742188 9.910156 -6.664062 11.171875 -5.90625 C 12.441406 -5.144531 13.890625 -4.765625 15.515625 -4.765625 C 17.035156 -4.765625 18.375 -5.101562 19.53125 -5.78125 C 20.695312 -6.457031 21.597656 -7.460938 22.234375 -8.796875 L 28.6875 -8.796875 C 27.75 -5.941406 26.113281 -3.722656 23.78125 -2.140625 C 21.445312 -0.554688 18.707031 0.234375 15.5625 0.234375 C 12.894531 0.234375 10.488281 -0.367188 8.34375 -1.578125 C 6.195312 -2.796875 4.503906 -4.484375 3.265625 -6.640625 C 2.023438 -8.796875 1.40625 -11.25 1.40625 -14 Z M 1.40625 -14 "/></g></g></g><g fill="#1d7b1a" fill-opacity="1"><g transform="translate(124.264363, 255.530184)"><g><path d="M 15.71875 0.28125 C 13.101562 0.28125 10.703125 -0.332031 8.515625 -1.5625 C 6.328125 -2.789062 4.59375 -4.488281 3.3125 -6.65625 C 2.039062 -8.832031 1.40625 -11.296875 1.40625 -14.046875 C 1.40625 -16.765625 2.039062 -19.207031 3.3125 -21.375 C 4.59375 -23.550781 6.328125 -25.25 8.515625 -26.46875 C 10.703125 -27.695312 13.101562 -28.3125 15.71875 -28.3125 C 18.363281 -28.3125 20.769531 -27.695312 22.9375 -26.46875 C 25.113281 -25.25 26.832031 -23.550781 28.09375 -21.375 C 29.363281 -19.207031 30 -16.765625 30 -14.046875 C 30 -11.296875 29.363281 -8.832031 28.09375 -6.65625 C 26.832031 -4.488281 25.109375 -2.789062 22.921875 -1.5625 C 20.734375 -0.332031 18.332031 0.28125 15.71875 0.28125 Z M 15.71875 -4.71875 C 17.394531 -4.71875 18.875 -5.097656 20.15625 -5.859375 C 21.4375 -6.617188 22.4375 -7.703125 23.15625 -9.109375 C 23.875 -10.523438 24.234375 -12.171875 24.234375 -14.046875 C 24.234375 -15.910156 23.875 -17.539062 23.15625 -18.9375 C 22.4375 -20.34375 21.4375 -21.414062 20.15625 -22.15625 C 18.875 -22.90625 17.394531 -23.28125 15.71875 -23.28125 C 14.039062 -23.28125 12.550781 -22.90625 11.25 -22.15625 C 9.957031 -21.414062 8.953125 -20.34375 8.234375 -18.9375 C 7.515625 -17.539062 7.15625 -15.910156 7.15625 -14.046875 C 7.15625 -12.171875 7.515625 -10.523438 8.234375 -9.109375 C 8.953125 -7.703125 9.957031 -6.617188 11.25 -5.859375 C 12.550781 -5.097656 14.039062 -4.71875 15.71875 -4.71875 Z M 15.71875 -4.71875 "/></g></g></g><g fill="#1d7b1a" fill-opacity="1"><g transform="translate(155.661238, 255.530184)"><g><path d="M 33.203125 -27.921875 L 33.203125 0 L 27.59375 0 L 27.59375 -18.15625 L 20.125 0 L 15.875 0 L 8.359375 -18.15625 L 8.359375 0 L 2.765625 0 L 2.765625 -27.921875 L 9.125 -27.921875 L 18 -7.15625 L 26.875 -27.921875 Z M 33.203125 -27.921875 "/></g></g></g><g fill="#1d7b1a" fill-opacity="1"><g transform="translate(191.617668, 255.530184)"><g><path d="M 19.875 -5.3125 L 8.765625 -5.3125 L 6.921875 0 L 1.046875 0 L 11.078125 -27.953125 L 17.59375 -27.953125 L 27.640625 0 L 21.71875 0 Z M 18.359375 -9.796875 L 14.3125 -21.484375 L 10.28125 -9.796875 Z M 18.359375 -9.796875 "/></g></g></g><g fill="#1d7b1a" fill-opacity="1"><g transform="translate(220.254824, 255.530184)"><g><path d="M 21.765625 -27.921875 L 21.765625 -23.40625 L 14.3125 -23.40625 L 14.3125 0 L 8.71875 0 L 8.71875 -23.40625 L 1.28125 -23.40625 L 1.28125 -27.921875 Z M 21.765625 -27.921875 "/></g></g></g><g fill="#1d7b1a" fill-opacity="1"><g transform="translate(243.332532, 255.530184)"><g><path d="M 1.40625 -14 C 1.40625 -16.75 2.023438 -19.207031 3.265625 -21.375 C 4.503906 -23.550781 6.195312 -25.242188 8.34375 -26.453125 C 10.488281 -27.671875 12.894531 -28.28125 15.5625 -28.28125 C 18.675781 -28.28125 21.40625 -27.476562 23.75 -25.875 C 26.101562 -24.28125 27.75 -22.066406 28.6875 -19.234375 L 22.234375 -19.234375 C 21.597656 -20.566406 20.695312 -21.566406 19.53125 -22.234375 C 18.375 -22.898438 17.035156 -23.234375 15.515625 -23.234375 C 13.890625 -23.234375 12.441406 -22.851562 11.171875 -22.09375 C 9.910156 -21.332031 8.925781 -20.257812 8.21875 -18.875 C 7.507812 -17.488281 7.15625 -15.863281 7.15625 -14 C 7.15625 -12.15625 7.507812 -10.535156 8.21875 -9.140625 C 8.925781 -7.742188 9.910156 -6.664062 11.171875 -5.90625 C 12.441406 -5.144531 13.890625 -4.765625 15.515625 -4.765625 C 17.035156 -4.765625 18.375 -5.101562 19.53125 -5.78125 C 20.695312 -6.457031 21.597656 -7.460938 22.234375 -8.796875 L 28.6875 -8.796875 C 27.75 -5.941406 26.113281 -3.722656 23.78125 -2.140625 C 21.445312 -0.554688 18.707031 0.234375 15.5625 0.234375 C 12.894531 0.234375 10.488281 -0.367188 8.34375 -1.578125 C 6.195312 -2.796875 4.503906 -4.484375 3.265625 -6.640625 C 2.023438 -8.796875 1.40625 -11.25 1.40625 -14 Z M 1.40625 -14 "/></g></g></g><g fill="#1d7b1a" fill-opacity="1"><g transform="translate(274.04948, 255.530184)"><g><path d="M 25.921875 -27.921875 L 25.921875 0 L 20.3125 0 L 20.3125 -11.875 L 8.359375 -11.875 L 8.359375 0 L 2.765625 0 L 2.765625 -27.921875 L 8.359375 -27.921875 L 8.359375 -16.4375 L 20.3125 -16.4375 L 20.3125 -27.921875 Z M 25.921875 -27.921875 "/></g></g></g><g fill="#80cc28" fill-opacity="1"><g transform="translate(110.265993, 275.883673)"><g><path d="M 2.859375 0.125 C 2.171875 0.125 1.597656 -0.00390625 1.140625 -0.265625 C 0.679688 -0.535156 0.347656 -0.894531 0.140625 -1.34375 L 1.046875 -2.4375 L 1.1875 -2.4375 C 1.332031 -2.082031 1.539062 -1.800781 1.8125 -1.59375 C 2.09375 -1.382812 2.414062 -1.28125 2.78125 -1.28125 C 3.1875 -1.28125 3.484375 -1.398438 3.671875 -1.640625 C 3.867188 -1.878906 3.96875 -2.265625 3.96875 -2.796875 L 3.96875 -8.171875 L 5.59375 -8.171875 L 5.59375 -2.765625 C 5.59375 -1.773438 5.363281 -1.046875 4.90625 -0.578125 C 4.457031 -0.109375 3.773438 0.125 2.859375 0.125 Z M 2.859375 0.125 "/></g></g></g><g fill="#80cc28" fill-opacity="1"><g transform="translate(119.935357, 275.883673)"><g><path d="M 4.453125 0.125 C 3.703125 0.125 3.039062 -0.0234375 2.46875 -0.328125 C 1.894531 -0.640625 1.445312 -1.109375 1.125 -1.734375 C 0.800781 -2.367188 0.640625 -3.15625 0.640625 -4.09375 C 0.640625 -5.019531 0.800781 -5.796875 1.125 -6.421875 C 1.445312 -7.054688 1.894531 -7.523438 2.46875 -7.828125 C 3.039062 -8.140625 3.703125 -8.296875 4.453125 -8.296875 C 5.203125 -8.296875 5.863281 -8.140625 6.4375 -7.828125 C 7.007812 -7.523438 7.457031 -7.054688 7.78125 -6.421875 C 8.101562 -5.796875 8.265625 -5.019531 8.265625 -4.09375 C 8.265625 -3.15625 8.101562 -2.367188 7.78125 -1.734375 C 7.457031 -1.109375 7.007812 -0.640625 6.4375 -0.328125 C 5.863281 -0.0234375 5.203125 0.125 4.453125 0.125 Z M 4.453125 -1.28125 C 5.148438 -1.28125 5.679688 -1.503906 6.046875 -1.953125 C 6.410156 -2.398438 6.59375 -3.113281 6.59375 -4.09375 C 6.59375 -5.0625 6.410156 -5.769531 6.046875 -6.21875 C 5.679688 -6.664062 5.148438 -6.890625 4.453125 -6.890625 C 3.753906 -6.890625 3.222656 -6.664062 2.859375 -6.21875 C 2.492188 -5.769531 2.3125 -5.0625 2.3125 -4.09375 C 2.3125 -3.113281 2.492188 -2.398438 2.859375 -1.953125 C 3.222656 -1.503906 3.753906 -1.28125 4.453125 -1.28125 Z M 4.453125 -1.28125 "/></g></g></g><g fill="#80cc28" fill-opacity="1"><g transform="translate(131.913578, 275.883673)"><g><path d="M 3.96875 0.125 C 3.289062 0.125 2.703125 -0.03125 2.203125 -0.34375 C 1.703125 -0.65625 1.316406 -1.125 1.046875 -1.75 C 0.773438 -2.382812 0.640625 -3.164062 0.640625 -4.09375 C 0.640625 -5.019531 0.800781 -5.796875 1.125 -6.421875 C 1.445312 -7.054688 1.894531 -7.523438 2.46875 -7.828125 C 3.050781 -8.140625 3.722656 -8.296875 4.484375 -8.296875 C 5.265625 -8.296875 5.929688 -8.148438 6.484375 -7.859375 C 7.035156 -7.566406 7.425781 -7.132812 7.65625 -6.5625 L 6.46875 -5.84375 L 6.328125 -5.84375 C 6.160156 -6.207031 5.925781 -6.472656 5.625 -6.640625 C 5.320312 -6.816406 4.941406 -6.90625 4.484375 -6.90625 C 3.773438 -6.90625 3.234375 -6.679688 2.859375 -6.234375 C 2.492188 -5.785156 2.3125 -5.070312 2.3125 -4.09375 C 2.3125 -3.101562 2.484375 -2.382812 2.828125 -1.9375 C 3.179688 -1.488281 3.695312 -1.265625 4.375 -1.265625 C 4.96875 -1.265625 5.398438 -1.394531 5.671875 -1.65625 C 5.953125 -1.925781 6.09375 -2.320312 6.09375 -2.84375 L 6.09375 -3.203125 L 4.171875 -3.203125 L 4.171875 -4.515625 L 7.703125 -4.515625 L 7.703125 0 L 6.15625 0 L 6.15625 -1.09375 L 6.046875 -1.109375 C 5.878906 -0.722656 5.625 -0.421875 5.28125 -0.203125 C 4.9375 0.015625 4.5 0.125 3.96875 0.125 Z M 3.96875 0.125 "/></g></g></g><g fill="#80cc28" fill-opacity="1"><g transform="translate(143.511649, 275.883673)"><g><path d="M 4.453125 0.125 C 3.703125 0.125 3.039062 -0.0234375 2.46875 -0.328125 C 1.894531 -0.640625 1.445312 -1.109375 1.125 -1.734375 C 0.800781 -2.367188 0.640625 -3.15625 0.640625 -4.09375 C 0.640625 -5.019531 0.800781 -5.796875 1.125 -6.421875 C 1.445312 -7.054688 1.894531 -7.523438 2.46875 -7.828125 C 3.039062 -8.140625 3.703125 -8.296875 4.453125 -8.296875 C 5.203125 -8.296875 5.863281 -8.140625 6.4375 -7.828125 C 7.007812 -7.523438 7.457031 -7.054688 7.78125 -6.421875 C 8.101562 -5.796875 8.265625 -5.019531 8.265625 -4.09375 C 8.265625 -3.15625 8.101562 -2.367188 7.78125 -1.734375 C 7.457031 -1.109375 7.007812 -0.640625 6.4375 -0.328125 C 5.863281 -0.0234375 5.203125 0.125 4.453125 0.125 Z M 4.453125 -1.28125 C 5.148438 -1.28125 5.679688 -1.503906 6.046875 -1.953125 C 6.410156 -2.398438 6.59375 -3.113281 6.59375 -4.09375 C 6.59375 -5.0625 6.410156 -5.769531 6.046875 -6.21875 C 5.679688 -6.664062 5.148438 -6.890625 4.453125 -6.890625 C 3.753906 -6.890625 3.222656 -6.664062 2.859375 -6.21875 C 2.492188 -5.769531 2.3125 -5.0625 2.3125 -4.09375 C 2.3125 -3.113281 2.492188 -2.398438 2.859375 -1.953125 C 3.222656 -1.503906 3.753906 -1.28125 4.453125 -1.28125 Z M 4.453125 -1.28125 "/></g></g></g><g fill="#80cc28" fill-opacity="1"><g transform="translate(155.48987, 275.883673)"><g/></g></g><g fill="#80cc28" fill-opacity="1"><g transform="translate(161.262705, 275.883673)"><g><path d="M 4 -8.171875 C 5.332031 -8.171875 6.347656 -7.828125 7.046875 -7.140625 C 7.742188 -6.460938 8.09375 -5.445312 8.09375 -4.09375 C 8.09375 -2.738281 7.742188 -1.71875 7.046875 -1.03125 C 6.347656 -0.34375 5.332031 0 4 0 L 1.0625 0 L 1.0625 -8.171875 Z M 3.90625 -1.359375 C 4.75 -1.359375 5.378906 -1.570312 5.796875 -2 C 6.210938 -2.4375 6.421875 -3.132812 6.421875 -4.09375 C 6.421875 -5.050781 6.210938 -5.742188 5.796875 -6.171875 C 5.378906 -6.597656 4.75 -6.8125 3.90625 -6.8125 L 2.671875 -6.8125 L 2.671875 -1.359375 Z M 3.90625 -1.359375 "/></g></g></g><g fill="#80cc28" fill-opacity="1"><g transform="translate(173.073213, 275.883673)"><g><path d="M 7.84375 0 L 6.140625 0 L 5.53125 -1.890625 L 2.40625 -1.890625 L 1.78125 0 L 0.125 0 L 2.953125 -8.171875 L 5.015625 -8.171875 Z M 3.890625 -6.46875 L 2.828125 -3.25 L 5.078125 -3.25 L 4.03125 -6.46875 Z M 3.890625 -6.46875 "/></g></g></g><g fill="#80cc28" fill-opacity="1"><g transform="translate(184.11224, 275.883673)"><g/></g></g><g fill="#80cc28" fill-opacity="1"><g transform="translate(189.885074, 275.883673)"><g><path d="M 2.546875 0 L 1.0625 0 L 1.0625 -8.171875 L 3.171875 -8.171875 L 5.25 -2.171875 L 5.359375 -2.171875 L 7.421875 -8.171875 L 9.484375 -8.171875 L 9.484375 0 L 7.953125 0 L 7.953125 -5.40625 L 7.8125 -5.421875 L 5.921875 0 L 4.578125 0 L 2.6875 -5.421875 L 2.546875 -5.40625 Z M 2.546875 0 "/></g></g></g><g fill="#80cc28" fill-opacity="1"><g transform="translate(203.506885, 275.883673)"><g><path d="M 2.671875 -3.59375 L 2.671875 -1.359375 L 6.578125 -1.359375 L 6.578125 0 L 1.0625 0 L 1.0625 -8.171875 L 6.5 -8.171875 L 6.5 -6.828125 L 2.671875 -6.828125 L 2.671875 -4.90625 L 6.015625 -4.90625 L 6.015625 -3.59375 Z M 2.671875 -3.59375 "/></g></g></g><g fill="#80cc28" fill-opacity="1"><g transform="translate(213.606719, 275.883673)"><g><path d="M 2.546875 0 L 1.0625 0 L 1.0625 -8.171875 L 3.171875 -8.171875 L 5.25 -2.171875 L 5.359375 -2.171875 L 7.421875 -8.171875 L 9.484375 -8.171875 L 9.484375 0 L 7.953125 0 L 7.953125 -5.40625 L 7.8125 -5.421875 L 5.921875 0 L 4.578125 0 L 2.6875 -5.421875 L 2.546875 -5.40625 Z M 2.546875 0 "/></g></g></g><g fill="#80cc28" fill-opacity="1"><g transform="translate(227.228529, 275.883673)"><g><path d="M 4.453125 0.125 C 3.703125 0.125 3.039062 -0.0234375 2.46875 -0.328125 C 1.894531 -0.640625 1.445312 -1.109375 1.125 -1.734375 C 0.800781 -2.367188 0.640625 -3.15625 0.640625 -4.09375 C 0.640625 -5.019531 0.800781 -5.796875 1.125 -6.421875 C 1.445312 -7.054688 1.894531 -7.523438 2.46875 -7.828125 C 3.039062 -8.140625 3.703125 -8.296875 4.453125 -8.296875 C 5.203125 -8.296875 5.863281 -8.140625 6.4375 -7.828125 C 7.007812 -7.523438 7.457031 -7.054688 7.78125 -6.421875 C 8.101562 -5.796875 8.265625 -5.019531 8.265625 -4.09375 C 8.265625 -3.15625 8.101562 -2.367188 7.78125 -1.734375 C 7.457031 -1.109375 7.007812 -0.640625 6.4375 -0.328125 C 5.863281 -0.0234375 5.203125 0.125 4.453125 0.125 Z M 4.453125 -1.28125 C 5.148438 -1.28125 5.679688 -1.503906 6.046875 -1.953125 C 6.410156 -2.398438 6.59375 -3.113281 6.59375 -4.09375 C 6.59375 -5.0625 6.410156 -5.769531 6.046875 -6.21875 C 5.679688 -6.664062 5.148438 -6.890625 4.453125 -6.890625 C 3.753906 -6.890625 3.222656 -6.664062 2.859375 -6.21875 C 2.492188 -5.769531 2.3125 -5.0625 2.3125 -4.09375 C 2.3125 -3.113281 2.492188 -2.398438 2.859375 -1.953125 C 3.222656 -1.503906 3.753906 -1.28125 4.453125 -1.28125 Z M 4.984375 -8.65625 L 3.890625 -8.65625 L 3.890625 -8.765625 L 4.640625 -10.328125 L 6.421875 -10.328125 L 6.421875 -10.21875 Z M 4.984375 -8.65625 "/></g></g></g><g fill="#80cc28" fill-opacity="1"><g transform="translate(239.20675, 275.883673)"><g><path d="M 1.0625 0 L 1.0625 -8.171875 L 4.34375 -8.171875 C 5.1875 -8.171875 5.820312 -7.972656 6.25 -7.578125 C 6.6875 -7.191406 6.90625 -6.660156 6.90625 -5.984375 C 6.90625 -5.484375 6.78125 -5.070312 6.53125 -4.75 C 6.28125 -4.4375 5.90625 -4.195312 5.40625 -4.03125 L 5.40625 -3.921875 C 5.65625 -3.804688 5.859375 -3.640625 6.015625 -3.421875 C 6.179688 -3.203125 6.332031 -2.875 6.46875 -2.4375 L 7.296875 0 L 5.625 0 L 4.828125 -2.4375 C 4.742188 -2.6875 4.648438 -2.878906 4.546875 -3.015625 C 4.453125 -3.148438 4.320312 -3.25 4.15625 -3.3125 C 4 -3.375 3.796875 -3.40625 3.546875 -3.40625 L 2.671875 -3.40625 L 2.671875 0 Z M 4.15625 -4.6875 C 4.9375 -4.6875 5.328125 -5.050781 5.328125 -5.78125 C 5.328125 -6.519531 4.9375 -6.890625 4.15625 -6.890625 L 2.671875 -6.890625 L 2.671875 -4.6875 Z M 4.15625 -4.6875 "/></g></g></g><g fill="#80cc28" fill-opacity="1"><g transform="translate(249.921532, 275.883673)"><g><path d="M 2.671875 0 L 1.0625 0 L 1.0625 -8.171875 L 2.671875 -8.171875 Z M 2.671875 0 "/></g></g></g><g fill="#80cc28" fill-opacity="1"><g transform="translate(256.739773, 275.883673)"><g><path d="M 7.84375 0 L 6.140625 0 L 5.53125 -1.890625 L 2.40625 -1.890625 L 1.78125 0 L 0.125 0 L 2.953125 -8.171875 L 5.015625 -8.171875 Z M 3.890625 -6.46875 L 2.828125 -3.25 L 5.078125 -3.25 L 4.03125 -6.46875 Z M 3.890625 -6.46875 "/></g></g></g></svg>