<svg xmlns="http://www.w3.org/2000/svg" xmlns:xlink="http://www.w3.org/1999/xlink" width="500" zoomAndPan="magnify" viewBox="0 0 375 374.999991" height="500" preserveAspectRatio="xMidYMid meet" version="1.0"><defs><clipPath id="bbeca70c78"><path d="M 2.042969 2.042969 L 373 2.042969 L 373 373 L 2.042969 373 Z M 2.042969 2.042969 " clip-rule="nonzero"/></clipPath></defs><g clip-path="url(#bbeca70c78)"><path fill="#3ba3cc" d="M 187.496094 2.042969 C 289.921875 2.042969 372.953125 85.074219 372.953125 187.496094 C 372.953125 289.921875 289.921875 372.953125 187.496094 372.953125 C 85.074219 372.953125 2.042969 289.921875 2.042969 187.496094 C 2.042969 85.074219 85.074219 2.042969 187.496094 2.042969 Z M 297.859375 264.855469 C 298.34375 264.855469 298.820312 264.808594 299.292969 264.714844 C 299.769531 264.617188 300.226562 264.480469 300.675781 264.292969 C 301.121094 264.109375 301.542969 263.882812 301.945312 263.613281 C 302.347656 263.34375 302.71875 263.039062 303.058594 262.699219 C 303.402344 262.355469 303.707031 261.984375 303.976562 261.582031 C 304.242188 261.183594 304.46875 260.757812 304.65625 260.3125 C 304.839844 259.867188 304.980469 259.40625 305.074219 258.933594 C 305.167969 258.460938 305.21875 257.980469 305.21875 257.496094 L 305.21875 118.507812 L 192.726562 207.839844 C 192.355469 208.132812 191.964844 208.394531 191.550781 208.621094 C 191.140625 208.847656 190.710938 209.039062 190.265625 209.195312 C 189.820312 209.351562 189.367188 209.46875 188.902344 209.546875 C 188.4375 209.625 187.96875 209.664062 187.496094 209.664062 C 187.023438 209.664062 186.558594 209.625 186.09375 209.546875 C 185.628906 209.46875 185.171875 209.351562 184.726562 209.195312 C 184.28125 209.039062 183.851562 208.847656 183.441406 208.621094 C 183.027344 208.394531 182.636719 208.132812 182.265625 207.839844 L 69.777344 118.507812 L 69.777344 257.496094 C 69.777344 257.980469 69.824219 258.460938 69.917969 258.933594 C 70.015625 259.40625 70.152344 259.867188 70.339844 260.3125 C 70.523438 260.757812 70.75 261.183594 71.019531 261.582031 C 71.289062 261.984375 71.59375 262.355469 71.933594 262.699219 C 72.277344 263.039062 72.648438 263.34375 73.046875 263.613281 C 73.449219 263.882812 73.875 264.109375 74.320312 264.292969 C 74.765625 264.480469 75.226562 264.617188 75.699219 264.714844 C 76.171875 264.808594 76.652344 264.855469 77.132812 264.855469 Z M 288.71875 110.136719 L 86.277344 110.136719 L 187.496094 190.519531 Z M 288.71875 110.136719 " fill-opacity="1" fill-rule="evenodd"/></g></svg>