<svg xmlns="http://www.w3.org/2000/svg" xmlns:xlink="http://www.w3.org/1999/xlink" width="500" zoomAndPan="magnify" viewBox="0 0 375 374.999991" height="500" preserveAspectRatio="xMidYMid meet" version="1.0"><defs><clipPath id="8b0aa561a2"><path d="M 10.800781 11.445312 L 364.050781 11.445312 L 364.050781 363.195312 L 10.800781 363.195312 Z M 10.800781 11.445312 " clip-rule="nonzero"/></clipPath></defs><g clip-path="url(#8b0aa561a2)"><path fill="#3ba3cc" d="M 187.574219 11.566406 C 89.929688 11.566406 10.800781 90.691406 10.800781 188.335938 C 10.800781 276.035156 74.777344 348.886719 158.492188 362.660156 L 158.492188 242.820312 L 113.496094 242.820312 L 113.496094 190.328125 L 158.492188 190.328125 L 158.492188 152.21875 C 158.492188 110.894531 192.011719 82.886719 233.335938 82.886719 C 251.699219 82.886719 263.179688 85.640625 263.179688 85.640625 L 263.179688 129.71875 L 233.335938 129.71875 C 220.9375 129.71875 210.835938 139.820312 210.835938 152.21875 L 210.835938 190.328125 L 259.046875 190.328125 L 252.3125 242.820312 L 210.835938 242.820312 L 210.835938 363.425781 C 297.308594 351.945312 364.039062 277.871094 364.039062 188.335938 C 364.191406 90.691406 285.066406 11.566406 187.574219 11.566406 Z M 187.574219 11.566406 " fill-opacity="1" fill-rule="nonzero"/></g></svg>