<svg xmlns="http://www.w3.org/2000/svg" xmlns:xlink="http://www.w3.org/1999/xlink" width="500" zoomAndPan="magnify" viewBox="0 0 375 374.999991" height="500" preserveAspectRatio="xMidYMid meet" version="1.0"><path fill="#3ba3cc" d="M 163.371094 14.796875 C 80.683594 23.960938 13.308594 90.679688 3.328125 173.234375 C 3.007812 175.828125 2.742188 178.425781 2.527344 181.027344 C 2.316406 183.632812 2.164062 186.238281 2.0625 188.847656 C 1.964844 191.457031 1.917969 194.066406 1.933594 196.679688 C 1.945312 199.292969 2.011719 201.902344 2.136719 204.511719 C 2.261719 207.121094 2.441406 209.722656 2.675781 212.324219 C 2.914062 214.925781 3.203125 217.519531 3.550781 220.109375 C 3.898438 222.699219 4.300781 225.277344 4.757812 227.847656 C 5.214844 230.421875 5.730469 232.980469 6.296875 235.53125 C 6.863281 238.078125 7.484375 240.617188 8.160156 243.136719 C 8.835938 245.660156 9.566406 248.167969 10.351562 250.660156 C 11.132812 253.152344 11.96875 255.625 12.859375 258.078125 C 13.75 260.535156 14.691406 262.972656 15.683594 265.386719 C 16.679688 267.800781 17.722656 270.195312 18.820312 272.566406 C 19.917969 274.933594 21.0625 277.28125 22.261719 279.601562 C 23.457031 281.921875 24.703125 284.21875 26 286.484375 C 27.292969 288.753906 28.636719 290.992188 30.027344 293.203125 C 31.417969 295.414062 32.855469 297.59375 34.339844 299.742188 C 35.828125 301.890625 37.355469 304.007812 38.929688 306.089844 C 40.507812 308.171875 42.125 310.222656 43.789062 312.234375 C 45.453125 314.25 47.15625 316.226562 48.90625 318.167969 C 50.652344 320.105469 52.441406 322.007812 54.269531 323.875 C 56.101562 325.738281 57.96875 327.5625 59.875 329.34375 C 61.785156 331.128906 63.730469 332.871094 65.710938 334.570312 C 67.695312 336.273438 69.710938 337.929688 71.765625 339.542969 C 73.816406 341.15625 75.90625 342.726562 78.023438 344.25 C 80.144531 345.777344 82.296875 347.253906 84.480469 348.6875 C 86.664062 350.121094 88.878906 351.503906 91.121094 352.84375 C 93.363281 354.179688 95.636719 355.46875 97.933594 356.710938 C 100.234375 357.949219 102.558594 359.140625 104.90625 360.28125 C 107.253906 361.421875 109.628906 362.511719 112.023438 363.550781 C 114.421875 364.589844 116.839844 365.574219 119.277344 366.511719 C 121.714844 367.445312 124.171875 368.328125 126.648438 369.160156 C 135.773438 370.617188 138.691406 364.964844 138.691406 360.046875 L 138.691406 329.222656 C 88.183594 340.195312 77.433594 304.800781 77.433594 304.800781 C 69.066406 283.648438 57.191406 277.992188 57.191406 277.992188 C 40.59375 266.6875 58.484375 267.0625 58.484375 267.0625 C 76.710938 268.351562 86.378906 285.839844 86.378906 285.839844 C 102.242188 313.554688 129.035156 305.34375 139.425781 300.96875 C 141.066406 289.121094 145.882812 281.089844 150.914062 276.535156 C 110.371094 271.980469 67.945312 256.296875 67.945312 186.839844 C 67.945312 166.601562 74.875 150.375 86.726562 137.429688 C 84.90625 132.875 78.515625 113.914062 88.546875 89.296875 C 88.546875 89.296875 103.867188 84.367188 138.691406 107.898438 C 146.121094 105.898438 153.652344 104.390625 161.28125 103.382812 C 168.910156 102.375 176.574219 101.871094 184.269531 101.871094 C 191.964844 101.871094 199.625 102.375 207.253906 103.382812 C 214.882812 104.390625 222.414062 105.898438 229.84375 107.898438 C 264.695312 84.367188 279.988281 89.296875 279.988281 89.296875 C 290.007812 113.914062 283.628906 132.875 281.808594 137.429688 C 293.660156 150.335938 300.589844 166.601562 300.589844 186.839844 C 300.589844 256.476562 257.917969 271.796875 217.273438 276.355469 C 223.828125 282.007812 229.84375 293.132812 229.84375 310.082031 L 229.84375 360.046875 C 229.84375 364.964844 232.761719 370.796875 242.066406 369.160156 C 244.710938 368.273438 247.332031 367.328125 249.933594 366.324219 C 252.53125 365.316406 255.105469 364.253906 257.65625 363.128906 C 260.207031 362.003906 262.730469 360.824219 265.230469 359.582031 C 267.726562 358.34375 270.191406 357.046875 272.628906 355.695312 C 275.066406 354.34375 277.472656 352.9375 279.84375 351.472656 C 282.21875 350.011719 284.554688 348.496094 286.859375 346.925781 C 289.164062 345.355469 291.429688 343.734375 293.660156 342.058594 C 295.886719 340.386719 298.078125 338.664062 300.226562 336.886719 C 302.378906 335.113281 304.484375 333.292969 306.550781 331.421875 C 308.617188 329.550781 310.640625 327.632812 312.621094 325.671875 C 314.597656 323.707031 316.53125 321.699219 318.417969 319.648438 C 320.304688 317.597656 322.144531 315.503906 323.933594 313.367188 C 325.726562 311.230469 327.464844 309.054688 329.15625 306.839844 C 330.847656 304.625 332.488281 302.371094 334.074219 300.078125 C 335.664062 297.789062 337.199219 295.460938 338.679688 293.101562 C 340.160156 290.738281 341.585938 288.34375 342.960938 285.917969 C 344.332031 283.492188 345.644531 281.035156 346.90625 278.550781 C 348.164062 276.0625 349.367188 273.546875 350.507812 271.003906 C 351.652344 268.464844 352.738281 265.898438 353.765625 263.304688 C 354.789062 260.714844 355.757812 258.101562 356.664062 255.464844 C 357.570312 252.828125 358.414062 250.171875 359.199219 247.5 C 359.984375 244.824219 360.707031 242.132812 361.371094 239.425781 C 362.03125 236.714844 362.628906 233.996094 363.167969 231.261719 C 363.703125 228.523438 364.175781 225.777344 364.589844 223.023438 C 365 220.265625 365.347656 217.5 365.632812 214.726562 C 365.914062 211.953125 366.136719 209.175781 366.292969 206.394531 C 366.449219 203.609375 366.542969 200.824219 366.574219 198.039062 C 366.601562 195.25 366.566406 192.464844 366.46875 189.679688 C 366.371094 186.894531 366.207031 184.109375 365.984375 181.332031 C 365.757812 178.554688 365.46875 175.78125 365.113281 173.019531 C 364.761719 170.253906 364.347656 167.496094 363.867188 164.75 C 363.386719 162.003906 362.847656 159.273438 362.242188 156.550781 C 361.636719 153.828125 360.972656 151.125 360.242188 148.433594 C 359.515625 145.742188 358.726562 143.070312 357.875 140.414062 C 357.023438 137.761719 356.113281 135.128906 355.140625 132.515625 C 354.171875 129.902344 353.140625 127.3125 352.050781 124.746094 C 350.960938 122.183594 349.8125 119.644531 348.605469 117.128906 C 347.398438 114.617188 346.136719 112.132812 344.816406 109.679688 C 343.496094 107.222656 342.117188 104.800781 340.6875 102.410156 C 339.257812 100.015625 337.769531 97.660156 336.230469 95.335938 C 334.691406 93.011719 333.101562 90.722656 331.457031 88.472656 C 329.8125 86.222656 328.117188 84.011719 326.371094 81.835938 C 324.628906 79.664062 322.832031 77.53125 320.988281 75.441406 C 319.144531 73.347656 317.257812 71.300781 315.320312 69.296875 C 313.382812 67.292969 311.402344 65.332031 309.375 63.417969 C 307.347656 61.507812 305.277344 59.640625 303.164062 57.820312 C 301.054688 56.003906 298.898438 54.234375 296.707031 52.511719 C 294.511719 50.792969 292.28125 49.125 290.011719 47.503906 C 287.742188 45.886719 285.4375 44.324219 283.09375 42.808594 C 280.753906 41.296875 278.378906 39.839844 275.96875 38.4375 C 273.5625 37.035156 271.121094 35.6875 268.652344 34.394531 C 266.183594 33.101562 263.683594 31.867188 261.15625 30.691406 C 258.632812 29.511719 256.078125 28.394531 253.5 27.335938 C 250.921875 26.273438 248.324219 25.273438 245.699219 24.332031 C 243.074219 23.390625 240.429688 22.511719 237.765625 21.691406 C 235.101562 20.871094 232.421875 20.113281 229.722656 19.414062 C 227.023438 18.71875 224.308594 18.082031 221.582031 17.511719 C 218.855469 16.9375 216.113281 16.429688 213.363281 15.980469 C 210.613281 15.535156 207.851562 15.148438 205.082031 14.828125 C 202.3125 14.507812 199.539062 14.25 196.757812 14.058594 C 193.976562 13.863281 191.195312 13.734375 188.40625 13.667969 C 185.621094 13.601562 182.835938 13.597656 180.046875 13.660156 C 177.261719 13.722656 174.476562 13.847656 171.695312 14.039062 C 168.914062 14.226562 166.140625 14.480469 163.371094 14.796875 Z M 163.371094 14.796875 " fill-opacity="1" fill-rule="nonzero"/></svg>