<svg xmlns="http://www.w3.org/2000/svg" xmlns:xlink="http://www.w3.org/1999/xlink" width="500" zoomAndPan="magnify" viewBox="0 0 375 374.999991" height="500" preserveAspectRatio="xMidYMid meet" version="1.0"><defs><filter x="0%" y="0%" width="100%" height="100%" id="f9830dc812"><feColorMatrix values="0 0 0 0 1 0 0 0 0 1 0 0 0 0 1 0 0 0 1 0" color-interpolation-filters="sRGB"/></filter><mask id="51776161eb"><g filter="url(#f9830dc812)"><rect x="-37.5" width="450" fill="#000000" y="-37.499999" height="449.999989" fill-opacity="0.11"/></g></mask><clipPath id="e1d464247e"><path d="M 5 10 L 71.011719 10 L 71.011719 100 L 5 100 Z M 5 10 " clip-rule="nonzero"/></clipPath><clipPath id="9b50697851"><path d="M 1.261719 53 L 21 53 L 21 85 L 1.261719 85 Z M 1.261719 53 " clip-rule="nonzero"/></clipPath><clipPath id="08cb006e8b"><path d="M 55 79 L 71.011719 79 L 71.011719 103.269531 L 55 103.269531 Z M 55 79 " clip-rule="nonzero"/></clipPath><clipPath id="7c1463e15e"><path d="M 7 0.519531 L 20 0.519531 L 20 19 L 7 19 Z M 7 0.519531 " clip-rule="nonzero"/></clipPath><clipPath id="eec510d75b"><rect x="0" width="72" y="0" height="104"/></clipPath><mask id="2642c3d0b0"><g filter="url(#f9830dc812)"><rect x="-37.5" width="450" fill="#000000" y="-37.499999" height="449.999989" fill-opacity="0.11"/></g></mask><clipPath id="71de0e006a"><path d="M 6 10 L 77.683594 10 L 77.683594 109 L 6 109 Z M 6 10 " clip-rule="nonzero"/></clipPath><clipPath id="920d1421cf"><path d="M 1.933594 57 L 23 57 L 23 92 L 1.933594 92 Z M 1.933594 57 " clip-rule="nonzero"/></clipPath><clipPath id="2fa00710eb"><path d="M 61 86 L 77.683594 86 L 77.683594 112.058594 L 61 112.058594 Z M 61 86 " clip-rule="nonzero"/></clipPath><clipPath id="c39682c179"><path d="M 9 0.308594 L 22 0.308594 L 22 20 L 9 20 Z M 9 0.308594 " clip-rule="nonzero"/></clipPath><clipPath id="7e6236549d"><rect x="0" width="79" y="0" height="113"/></clipPath><clipPath id="54c40e120e"><path d="M 78.855469 84.410156 L 293.355469 84.410156 L 293.355469 298.910156 L 78.855469 298.910156 Z M 78.855469 84.410156 " clip-rule="nonzero"/></clipPath></defs><g mask="url(#51776161eb)"><g transform="matrix(1, 0, 0, 1, 9, 234)"><g clip-path="url(#eec510d75b)"><g clip-path="url(#e1d464247e)"><path stroke-linecap="butt" transform="matrix(0.16395, 0, 0, 0.16395, 4.431856, 11.628558)" fill="none" stroke-linejoin="miter" d="M 148.779114 185.128865 L 79.374455 151.701218 C 79.374455 150.390797 80.303663 147.007528 82.162078 141.551412 C 84.068145 136.023818 87.880279 128.613983 93.550828 119.298082 C 99.245202 110.006006 106.392953 101.28575 114.99408 93.137314 C 123.69051 84.917401 135.913163 77.721999 151.66204 71.574933 C 167.410918 65.427867 185.208817 62.354335 205.031912 62.354335 C 241.533092 62.354335 272.983195 73.075961 299.429873 94.519213 C 325.87655 115.890987 339.076063 142.790355 339.076063 175.217318 C 339.076063 215.173244 312.48643 246.480392 259.307166 269.162587 C 252.087937 272.307598 247.513377 276.6439 245.60731 282.171493 C 243.677417 287.699087 242.724384 295.34718 242.724384 305.115773 L 242.724384 331.514799 L 164.909205 331.514799 L 164.909205 280.098646 C 164.909205 271.568997 165.218941 264.897763 165.838413 260.037292 C 166.457884 255.12917 168.48308 249.744531 171.937827 243.907202 C 175.392573 238.069872 180.44365 232.971143 187.043406 228.587189 C 192.118309 225.418353 198.884847 221.749174 207.343018 217.508176 C 215.848841 213.291003 222.162688 209.907734 226.236906 207.382196 C 230.311124 204.832831 234.075606 200.830091 237.530352 195.373975 C 240.985098 189.846381 242.724384 183.127495 242.724384 175.217318 C 242.724384 163.900046 239.031379 154.655622 231.64537 147.436393 C 224.283187 140.121862 215.253196 136.476509 204.555395 136.476509 C 189.116254 136.476509 176.750645 141.432283 167.458569 151.34383 C 158.142668 161.255378 151.924125 172.524998 148.779114 185.128865 Z M 203.530885 357.913825 C 218.66029 357.913825 231.502415 363.20316 242.033435 373.805657 C 252.564454 384.336676 257.829964 397.13115 257.829964 412.189078 C 257.829964 427.032574 252.564454 439.707918 242.033435 450.238937 C 231.502415 460.769957 218.66029 466.035466 203.530885 466.035466 C 188.758866 466.035466 176.131174 460.769957 165.600154 450.238937 C 155.069135 439.707918 149.803625 427.032574 149.803625 412.189078 C 149.803625 397.13115 155.069135 384.336676 165.600154 373.805657 C 176.131174 363.20316 188.758866 357.913825 203.530885 357.913825 Z M 203.530885 357.913825 " stroke="#d9d9d9" stroke-width="12.689" stroke-opacity="1" stroke-miterlimit="4"/></g><g clip-path="url(#9b50697851)"><path stroke-linecap="butt" transform="matrix(0.0566394, 0, 0, 0.0566394, -2.852626, 54.000156)" fill="none" stroke-linejoin="miter" d="M 148.780639 185.104728 L 79.399815 151.724689 C 79.399815 150.414316 80.296386 147.034932 82.158496 141.51757 C 84.089572 136.000208 87.882758 128.620737 93.538054 119.310189 C 99.262317 109.999641 106.36592 101.309796 114.986798 93.171688 C 123.676643 84.895645 135.883806 77.723075 151.677254 71.58501 C 167.401735 65.446945 185.195227 62.343429 204.988762 62.343429 C 241.541284 62.343429 272.990246 73.102284 299.404615 94.551028 C 325.887952 115.861838 339.060653 142.758976 339.060653 175.173477 C 339.060653 215.17435 312.50835 246.485378 259.334775 269.175528 C 252.093238 272.279044 247.541415 276.623966 245.610338 282.141328 C 243.679261 287.727657 242.713723 295.382996 242.713723 305.107347 L 242.713723 331.521716 L 164.918922 331.521716 L 164.918922 280.141285 C 164.918922 271.589374 165.19479 264.899573 165.815493 260.071881 C 166.436197 255.106255 168.505207 249.726828 171.953558 243.933598 C 175.40191 238.071401 180.436502 232.967841 187.057336 228.553952 C 192.091929 225.450436 198.850697 221.726217 207.333641 217.519228 C 215.885552 213.31224 222.161551 209.932856 226.230605 207.381076 C 230.299659 204.829296 234.092845 200.829209 237.541197 195.380814 C 240.989548 189.863453 242.713723 183.104684 242.713723 175.173477 C 242.713723 163.931852 239.058471 154.621304 231.679 147.448734 C 224.299528 140.13823 215.264848 136.482977 204.57496 136.482977 C 189.126347 136.482977 176.78125 141.448603 167.470702 151.379854 C 158.160154 161.242138 151.953122 172.483763 148.780639 185.104728 Z M 203.540455 357.936085 C 218.644232 357.936085 231.472099 363.177579 242.024053 373.798501 C 252.576007 384.350455 257.817501 397.178321 257.817501 412.213132 C 257.817501 427.041042 252.576007 439.730974 242.024053 450.213961 C 231.472099 460.765915 218.644232 466.007409 203.540455 466.007409 C 188.781512 466.007409 176.160547 460.765915 165.608592 450.213961 C 155.056638 439.730974 149.815144 427.041042 149.815144 412.213132 C 149.815144 397.178321 155.056638 384.350455 165.608592 373.798501 C 176.160547 363.177579 188.781512 357.936085 203.540455 357.936085 Z M 203.540455 357.936085 " stroke="#d9d9d9" stroke-width="12.689" stroke-opacity="1" stroke-miterlimit="4"/></g><g clip-path="url(#08cb006e8b)"><path fill="#ffffff" d="M 59.71875 86.835938 L 55.601562 84.847656 C 55.601562 84.773438 55.65625 84.574219 55.769531 84.25 C 55.882812 83.921875 56.105469 83.484375 56.445312 82.929688 C 56.78125 82.378906 57.203125 81.863281 57.71875 81.378906 C 58.230469 80.894531 58.953125 80.46875 59.886719 80.105469 C 60.820312 79.738281 61.875 79.558594 63.050781 79.558594 C 65.21875 79.558594 67.085938 80.191406 68.652344 81.464844 C 70.21875 82.734375 71.003906 84.328125 71.003906 86.25 C 71.003906 88.621094 69.425781 90.480469 66.273438 91.824219 C 65.84375 92.011719 65.570312 92.269531 65.457031 92.59375 C 65.347656 92.921875 65.289062 93.371094 65.289062 93.953125 L 65.289062 95.519531 L 60.671875 95.519531 L 60.671875 92.46875 C 60.671875 91.960938 60.691406 91.566406 60.726562 91.277344 C 60.761719 90.984375 60.882812 90.667969 61.089844 90.324219 C 61.296875 89.980469 61.59375 89.675781 61.988281 89.414062 C 62.285156 89.230469 62.6875 89.007812 63.191406 88.757812 C 63.695312 88.503906 64.070312 88.304688 64.3125 88.15625 C 64.554688 88.007812 64.777344 87.765625 64.984375 87.441406 C 65.1875 87.113281 65.289062 86.714844 65.289062 86.25 C 65.289062 85.578125 65.070312 85.027344 64.632812 84.597656 C 64.195312 84.167969 63.660156 83.953125 63.023438 83.953125 C 62.109375 83.953125 61.375 84.246094 60.824219 84.835938 C 60.273438 85.421875 59.90625 86.089844 59.71875 86.835938 Z M 62.96875 97.085938 C 63.863281 97.085938 64.625 97.398438 65.25 98.023438 C 65.875 98.648438 66.1875 99.410156 66.1875 100.308594 C 66.1875 101.183594 65.875 101.9375 65.25 102.558594 C 64.625 103.183594 63.863281 103.496094 62.96875 103.496094 C 62.089844 103.496094 61.335938 103.183594 60.714844 102.558594 C 60.085938 101.9375 59.777344 101.183594 59.777344 100.308594 C 59.777344 99.410156 60.085938 98.648438 60.714844 98.023438 C 61.335938 97.398438 62.089844 97.085938 62.96875 97.085938 Z M 62.96875 97.085938 " fill-opacity="1" fill-rule="nonzero"/></g><g clip-path="url(#7c1463e15e)"><path fill="#ffffff" d="M 11.042969 5.980469 L 7.957031 4.492188 C 7.957031 4.4375 8 4.289062 8.082031 4.042969 C 8.167969 3.800781 8.335938 3.46875 8.589844 3.058594 C 8.839844 2.644531 9.15625 2.257812 9.542969 1.894531 C 9.929688 1.53125 10.46875 1.210938 11.167969 0.9375 C 11.867188 0.664062 12.65625 0.527344 13.539062 0.527344 C 15.164062 0.527344 16.5625 1.003906 17.738281 1.957031 C 18.910156 2.90625 19.496094 4.101562 19.496094 5.542969 C 19.496094 7.316406 18.316406 8.710938 15.953125 9.71875 C 15.628906 9.855469 15.425781 10.050781 15.34375 10.296875 C 15.257812 10.539062 15.21875 10.878906 15.21875 11.308594 L 15.21875 12.484375 L 11.757812 12.484375 L 11.757812 10.199219 C 11.757812 9.820312 11.769531 9.523438 11.800781 9.304688 C 11.828125 9.089844 11.917969 8.851562 12.070312 8.59375 C 12.222656 8.335938 12.449219 8.109375 12.742188 7.910156 C 12.96875 7.773438 13.265625 7.609375 13.644531 7.421875 C 14.019531 7.230469 14.300781 7.082031 14.484375 6.96875 C 14.664062 6.859375 14.832031 6.679688 14.984375 6.433594 C 15.140625 6.191406 15.21875 5.890625 15.21875 5.542969 C 15.21875 5.039062 15.050781 4.628906 14.722656 4.304688 C 14.394531 3.984375 13.992188 3.820312 13.519531 3.820312 C 12.832031 3.820312 12.285156 4.042969 11.871094 4.484375 C 11.457031 4.921875 11.183594 5.421875 11.042969 5.980469 Z M 13.476562 13.664062 C 14.148438 13.664062 14.71875 13.898438 15.1875 14.363281 C 15.65625 14.832031 15.890625 15.402344 15.890625 16.074219 C 15.890625 16.730469 15.65625 17.292969 15.1875 17.761719 C 14.71875 18.230469 14.148438 18.464844 13.476562 18.464844 C 12.820312 18.464844 12.257812 18.230469 11.789062 17.761719 C 11.320312 17.292969 11.085938 16.730469 11.085938 16.074219 C 11.085938 15.402344 11.320312 14.832031 11.789062 14.363281 C 12.257812 13.898438 12.820312 13.664062 13.476562 13.664062 Z M 13.476562 13.664062 " fill-opacity="1" fill-rule="nonzero"/></g></g></g></g><g mask="url(#2642c3d0b0)"><g transform="matrix(1, 0, 0, 1, 271, 24)"><g clip-path="url(#7e6236549d)"><g clip-path="url(#71de0e006a)"><path stroke-linecap="butt" transform="matrix(0.178466, 0, 0, 0.178466, 5.384713, 12.402174)" fill="none" stroke-linejoin="miter" d="M 148.761304 185.12868 L 79.37671 151.683992 C 79.37671 150.392607 80.296001 146.999985 82.156471 141.549902 C 84.060717 136.012267 87.869209 128.614162 93.560059 119.311811 C 99.250909 110.00946 106.38636 101.276194 115.010186 93.133901 C 123.677788 84.925944 135.913116 77.72483 151.650505 71.574334 C 167.409782 65.423839 185.204632 62.359535 205.035056 62.359535 C 241.52216 62.359535 272.996938 73.084598 299.437503 94.512837 C 325.85618 115.875413 339.076462 142.775623 339.076462 175.213468 C 339.076462 215.158858 312.50457 246.480421 259.31701 269.15627 C 252.094008 272.308125 247.51944 276.641926 245.593306 282.179561 C 243.68906 287.717196 242.725993 295.356068 242.725993 305.118064 L 242.725993 331.514853 L 164.914563 331.514853 L 164.914563 280.100212 C 164.914563 271.563937 165.220994 264.888132 165.833854 260.050909 C 166.446715 255.126135 168.482288 249.741716 171.940574 243.897651 C 175.39886 238.075473 180.433074 232.953708 187.043215 228.576131 C 192.121204 225.424276 198.88456 221.747111 207.333284 217.500862 C 215.847671 213.2765 222.17327 209.905766 226.244416 207.366771 C 230.315563 204.827776 234.080279 200.844181 237.538565 195.37221 C 240.996851 189.856463 242.725993 183.114995 242.725993 175.213468 C 242.725993 163.91932 239.026941 154.660745 231.650724 147.437743 C 224.274507 140.127189 215.256698 136.471912 204.553522 136.471912 C 189.122564 136.471912 176.755909 141.440462 167.453558 151.355674 C 158.151207 161.270886 151.91316 172.521258 148.761304 185.12868 Z M 203.524792 357.911642 C 218.671208 357.911642 231.497509 363.20851 242.025581 373.824134 C 252.553654 384.352207 257.828634 397.134732 257.828634 412.193596 C 257.828634 427.033582 252.553654 439.706667 242.025581 450.23474 C 231.497509 460.762812 218.671208 466.037793 203.524792 466.037793 C 188.772358 466.037793 176.12116 460.762812 165.593088 450.23474 C 155.086903 439.706667 149.811923 427.033582 149.811923 412.193596 C 149.811923 397.134732 155.086903 384.352207 165.593088 373.824134 C 176.12116 363.20851 188.772358 357.911642 203.524792 357.911642 Z M 203.524792 357.911642 " stroke="#d9d9d9" stroke-width="12.689" stroke-opacity="1" stroke-miterlimit="4"/></g><g clip-path="url(#920d1421cf)"><path stroke-linecap="butt" transform="matrix(0.0616542, 0, 0, 0.0616542, -2.54472, 58.525336)" fill="none" stroke-linejoin="miter" d="M 148.791512 185.09944 L 79.351835 151.710106 C 79.351835 150.379601 80.302195 147.021661 82.139559 141.572927 C 84.04028 135.997478 87.841722 128.584666 93.543885 119.33449 C 99.246049 110.020956 106.405432 101.277639 115.022034 93.167896 C 123.701994 84.931438 135.929966 77.708698 151.642594 71.563033 C 167.418579 65.417368 185.222 62.376214 205.052857 62.376214 C 241.546702 62.376214 272.971958 73.08361 299.455339 94.498401 C 325.875362 115.913192 339.053695 142.776717 339.053695 175.21569 C 339.053695 215.194191 312.506957 246.492732 259.286766 269.17467 C 252.064026 272.279182 247.502295 276.65084 245.601574 282.162931 C 243.700853 287.73838 242.687135 295.341264 242.687135 305.098299 L 242.687135 331.518323 L 164.947642 331.518323 L 164.947642 280.135496 C 164.947642 271.582251 165.201071 264.866369 165.834645 260.051209 C 166.468219 255.109334 168.495654 249.723958 171.916952 243.89508 C 175.401608 238.066202 180.40684 232.934255 187.059364 228.562596 C 192.127954 225.394728 198.907192 221.72 207.333722 217.538414 C 215.886967 213.29347 222.159347 209.872172 226.214219 207.337877 C 230.332448 204.803582 234.070533 200.812068 237.555188 195.363334 C 240.976486 189.851243 242.687135 183.135362 242.687135 175.21569 C 242.687135 163.938079 239.012407 154.624545 231.662953 147.401805 C 224.25014 140.115707 215.253394 136.504337 204.545998 136.504337 C 189.150157 136.504337 176.732113 141.446212 167.481936 151.329962 C 158.168403 161.277069 151.896023 172.491324 148.791512 185.09944 Z M 203.53228 357.938346 C 218.674692 357.938346 231.536238 363.197008 242.053561 373.841046 C 252.570885 384.35837 257.829546 397.156558 257.829546 412.172255 C 257.829546 427.061237 252.570885 439.732711 242.053561 450.250035 C 231.536238 460.767358 218.674692 466.02602 203.53228 466.02602 C 188.770013 466.02602 176.098539 460.767358 165.581215 450.250035 C 155.063892 439.732711 149.80523 427.061237 149.80523 412.172255 C 149.80523 397.156558 155.063892 384.35837 165.581215 373.841046 C 176.098539 363.197008 188.770013 357.938346 203.53228 357.938346 Z M 203.53228 357.938346 " stroke="#d9d9d9" stroke-width="12.689" stroke-opacity="1" stroke-miterlimit="4"/></g><g clip-path="url(#2fa00710eb)"><path fill="#ffffff" d="M 65.566406 94.269531 L 61.085938 92.105469 C 61.085938 92.023438 61.144531 91.808594 61.265625 91.453125 C 61.390625 91.097656 61.632812 90.617188 62 90.019531 C 62.367188 89.417969 62.828125 88.855469 63.386719 88.328125 C 63.945312 87.800781 64.734375 87.339844 65.75 86.941406 C 66.765625 86.542969 67.914062 86.34375 69.195312 86.34375 C 71.554688 86.34375 73.585938 87.039062 75.289062 88.421875 C 76.996094 89.800781 77.851562 91.539062 77.851562 93.628906 C 77.851562 96.210938 76.132812 98.234375 72.703125 99.699219 C 72.230469 99.902344 71.933594 100.183594 71.8125 100.539062 C 71.691406 100.890625 71.632812 101.382812 71.632812 102.015625 L 71.632812 103.71875 L 66.605469 103.71875 L 66.605469 100.398438 C 66.605469 99.847656 66.625 99.417969 66.664062 99.101562 C 66.703125 98.785156 66.835938 98.441406 67.058594 98.066406 C 67.28125 97.691406 67.609375 97.359375 68.035156 97.078125 C 68.359375 96.871094 68.796875 96.632812 69.347656 96.359375 C 69.894531 96.085938 70.300781 95.867188 70.566406 95.707031 C 70.828125 95.542969 71.074219 95.28125 71.296875 94.925781 C 71.519531 94.570312 71.632812 94.136719 71.632812 93.628906 C 71.632812 92.898438 71.394531 92.300781 70.917969 91.832031 C 70.4375 91.363281 69.855469 91.128906 69.164062 91.128906 C 68.167969 91.128906 67.371094 91.449219 66.769531 92.089844 C 66.171875 92.730469 65.773438 93.457031 65.566406 94.269531 Z M 69.105469 105.425781 C 70.078125 105.425781 70.90625 105.765625 71.585938 106.445312 C 72.265625 107.128906 72.609375 107.957031 72.609375 108.933594 C 72.609375 109.886719 72.265625 110.707031 71.585938 111.386719 C 70.90625 112.066406 70.078125 112.40625 69.105469 112.40625 C 68.148438 112.40625 67.328125 112.066406 66.648438 111.386719 C 65.96875 110.707031 65.628906 109.886719 65.628906 108.933594 C 65.628906 107.957031 65.96875 107.128906 66.648438 106.445312 C 67.328125 105.765625 68.148438 105.425781 69.105469 105.425781 Z M 69.105469 105.425781 " fill-opacity="1" fill-rule="nonzero"/></g><g clip-path="url(#c39682c179)"><path fill="#ffffff" d="M 12.582031 6.253906 L 9.222656 4.632812 C 9.222656 4.574219 9.269531 4.410156 9.359375 4.144531 C 9.453125 3.878906 9.636719 3.523438 9.910156 3.070312 C 10.183594 2.621094 10.527344 2.199219 10.949219 1.804688 C 11.367188 1.410156 11.957031 1.0625 12.71875 0.765625 C 13.480469 0.46875 14.339844 0.320312 15.296875 0.320312 C 17.066406 0.320312 18.589844 0.835938 19.867188 1.875 C 21.144531 2.910156 21.785156 4.210938 21.785156 5.777344 C 21.785156 7.710938 20.496094 9.226562 17.925781 10.320312 C 17.574219 10.472656 17.351562 10.683594 17.261719 10.949219 C 17.171875 11.21875 17.125 11.585938 17.125 12.054688 L 17.125 13.335938 L 13.359375 13.335938 L 13.359375 10.84375 C 13.359375 10.433594 13.375 10.109375 13.402344 9.875 C 13.433594 9.636719 13.53125 9.378906 13.699219 9.097656 C 13.867188 8.816406 14.109375 8.570312 14.433594 8.355469 C 14.675781 8.207031 15.003906 8.027344 15.410156 7.820312 C 15.824219 7.617188 16.128906 7.453125 16.328125 7.332031 C 16.523438 7.210938 16.707031 7.015625 16.875 6.746094 C 17.039062 6.480469 17.125 6.160156 17.125 5.777344 C 17.125 5.230469 16.945312 4.78125 16.585938 4.429688 C 16.230469 4.082031 15.792969 3.902344 15.277344 3.902344 C 14.53125 3.902344 13.933594 4.144531 13.484375 4.625 C 13.035156 5.105469 12.734375 5.648438 12.582031 6.253906 Z M 15.230469 14.617188 C 15.960938 14.617188 16.582031 14.871094 17.089844 15.378906 C 17.601562 15.890625 17.855469 16.511719 17.855469 17.242188 C 17.855469 17.957031 17.601562 18.570312 17.089844 19.078125 C 16.582031 19.589844 15.960938 19.84375 15.230469 19.84375 C 14.515625 19.84375 13.902344 19.589844 13.394531 19.078125 C 12.882812 18.570312 12.628906 17.957031 12.628906 17.242188 C 12.628906 16.511719 12.882812 15.890625 13.394531 15.378906 C 13.902344 14.871094 14.515625 14.617188 15.230469 14.617188 Z M 15.230469 14.617188 " fill-opacity="1" fill-rule="nonzero"/></g></g></g></g><g clip-path="url(#54c40e120e)"><path fill="#3fa6cf" d="M 181.222656 185.296875 L 190.71875 185.296875 C 220.851562 185.296875 245.488281 209.933594 245.488281 240.066406 C 245.488281 248.628906 238.488281 255.628906 229.925781 255.628906 L 142.128906 255.628906 C 133.53125 255.628906 126.511719 248.609375 126.511719 240.011719 C 126.511719 209.914062 151.128906 185.296875 181.222656 185.296875 Z M 186 94.113281 C 132.179688 94.113281 88.539062 137.738281 88.539062 191.554688 C 88.539062 245.375 132.179688 289.015625 186 289.015625 C 239.820312 289.015625 283.460938 245.375 283.460938 191.554688 C 283.460938 137.738281 239.820312 94.113281 186 94.113281 Z M 186 84.410156 C 245.183594 84.410156 293.144531 132.390625 293.144531 191.554688 C 293.144531 250.722656 245.183594 298.699219 186 298.699219 C 126.832031 298.699219 78.855469 250.722656 78.855469 191.554688 C 78.855469 132.390625 126.832031 84.410156 186 84.410156 Z M 186 116.066406 C 204.015625 116.066406 218.625 130.679688 218.625 148.695312 C 218.625 166.710938 204.015625 181.320312 186 181.320312 C 167.984375 181.320312 153.371094 166.710938 153.371094 148.695312 C 153.371094 130.679688 167.984375 116.066406 186 116.066406 " fill-opacity="1" fill-rule="nonzero"/></g></svg>