<svg xmlns="http://www.w3.org/2000/svg" xmlns:xlink="http://www.w3.org/1999/xlink" width="500" zoomAndPan="magnify" viewBox="0 0 375 374.999991" height="500" preserveAspectRatio="xMidYMid meet" version="1.0"><defs><clipPath id="ebf97fedf4"><path d="M 11.632812 6.683594 L 368.632812 6.683594 L 368.632812 363.683594 L 11.632812 363.683594 Z M 11.632812 6.683594 " clip-rule="nonzero"/></clipPath></defs><path fill="#3ba3cc" d="M 189.96875 145.492188 C 168.199219 145.492188 150.441406 163.25 150.441406 185.019531 C 150.441406 206.789062 168.199219 224.546875 189.96875 224.546875 C 211.742188 224.546875 229.496094 206.789062 229.496094 185.019531 C 229.496094 163.25 211.742188 145.492188 189.96875 145.492188 Z M 189.96875 145.492188 " fill-opacity="1" fill-rule="nonzero"/><path fill="#3ba3cc" d="M 243.085938 88.054688 L 136.855469 88.054688 C 112.769531 88.054688 93.003906 107.664062 93.003906 131.90625 L 93.003906 238.132812 C 93.003906 262.222656 112.613281 281.984375 136.855469 281.984375 L 243.085938 281.984375 C 267.171875 281.984375 286.933594 262.375 286.933594 238.132812 L 286.933594 131.90625 C 286.78125 107.664062 267.171875 88.054688 243.085938 88.054688 Z M 189.96875 244.464844 C 157.082031 244.464844 130.371094 217.753906 130.371094 184.863281 C 130.371094 151.976562 157.082031 125.265625 189.96875 125.265625 C 222.859375 125.265625 249.570312 151.976562 249.570312 184.863281 C 249.414062 217.753906 222.703125 244.464844 189.96875 244.464844 Z M 253.738281 135.300781 C 245.863281 135.300781 239.378906 128.816406 239.378906 120.941406 C 239.378906 113.066406 245.863281 106.582031 253.738281 106.582031 C 261.613281 106.582031 268.097656 113.066406 268.097656 120.941406 C 268.097656 128.96875 261.765625 135.300781 253.738281 135.300781 Z M 253.738281 135.300781 " fill-opacity="1" fill-rule="nonzero"/><g clip-path="url(#ebf97fedf4)"><path fill="#3ba3cc" d="M 189.96875 6.683594 C 91.460938 6.683594 11.632812 86.507812 11.632812 185.019531 C 11.632812 283.527344 91.460938 363.355469 189.96875 363.355469 C 288.480469 363.355469 368.304688 283.527344 368.304688 185.019531 C 368.152344 86.507812 288.324219 6.683594 189.96875 6.683594 Z M 306.851562 238.132812 C 306.851562 273.335938 278.132812 302.058594 242.929688 302.058594 L 136.855469 302.058594 C 101.652344 302.058594 72.933594 273.335938 72.933594 238.132812 L 72.933594 131.90625 C 72.933594 96.699219 101.652344 67.980469 136.855469 67.980469 L 243.085938 67.980469 C 278.289062 67.980469 307.007812 96.699219 307.007812 131.90625 L 307.007812 238.132812 Z M 306.851562 238.132812 " fill-opacity="1" fill-rule="nonzero"/></g></svg>