<svg xmlns="http://www.w3.org/2000/svg" xmlns:xlink="http://www.w3.org/1999/xlink" width="500" zoomAndPan="magnify" viewBox="0 0 375 374.999991" height="500" preserveAspectRatio="xMidYMid meet" version="1.0"><defs><clipPath id="52985a545f"><path d="M 85.257812 166 L 169 166 L 169 290.007812 L 85.257812 290.007812 Z M 85.257812 166 " clip-rule="nonzero"/></clipPath><clipPath id="221497cf74"><path d="M 207 85.257812 L 290.007812 85.257812 L 290.007812 209 L 207 209 Z M 207 85.257812 " clip-rule="nonzero"/></clipPath></defs><rect x="-37.5" width="450" fill="#ffffff" y="-37.499999" height="449.999989" fill-opacity="1"/><rect x="-37.5" width="450" fill="#ffffff" y="-37.499999" height="449.999989" fill-opacity="1"/><path fill="#982cdb" d="M 192.113281 250.378906 L 225.886719 250.378906 L 225.886719 231.324219 L 239.394531 231.324219 L 239.394531 205.546875 L 224.761719 205.546875 L 224.761719 127.089844 L 183.105469 127.089844 L 133.570312 205.546875 L 133.570312 231.324219 L 192.113281 231.324219 Z M 193.382812 205.246094 L 193.382812 160.113281 L 165.777344 205.246094 Z M 193.382812 205.246094 " fill-opacity="1" fill-rule="evenodd"/><g clip-path="url(#52985a545f)"><path fill="#982cdb" d="M 118.160156 262.863281 L 118.160156 166.71875 L 85.257812 166.71875 L 85.257812 290.007812 L 168.078125 290.007812 L 168.078125 262.863281 Z M 118.160156 262.863281 " fill-opacity="1" fill-rule="nonzero"/></g><g clip-path="url(#221497cf74)"><path fill="#982cdb" d="M 257.109375 112.40625 L 257.109375 208.550781 L 290.007812 208.550781 L 290.007812 85.257812 L 207.1875 85.257812 L 207.1875 112.40625 Z M 257.109375 112.40625 " fill-opacity="1" fill-rule="nonzero"/></g></svg>