<svg xmlns="http://www.w3.org/2000/svg" xmlns:xlink="http://www.w3.org/1999/xlink" width="500" zoomAndPan="magnify" viewBox="0 0 375 374.999991" height="500" preserveAspectRatio="xMidYMid meet" version="1.0"><defs><clipPath id="b156b840c0"><path d="M 65.410156 162 L 165 162 L 165 309.910156 L 65.410156 309.910156 Z M 65.410156 162 " clip-rule="nonzero"/></clipPath><clipPath id="596472d6ef"><path d="M 211 65.410156 L 309.910156 65.410156 L 309.910156 213 L 211 213 Z M 211 65.410156 " clip-rule="nonzero"/></clipPath></defs><rect x="-37.5" width="450" fill="#ffffff" y="-37.499999" height="449.999989" fill-opacity="1"/><rect x="-37.5" width="450" fill="#ffffff" y="-37.499999" height="449.999989" fill-opacity="1"/><path fill="#982cdb" d="M 193.007812 262.585938 L 233.335938 262.585938 L 233.335938 239.832031 L 249.46875 239.832031 L 249.46875 209.050781 L 231.992188 209.050781 L 231.992188 115.359375 L 182.25 115.359375 L 123.097656 209.050781 L 123.097656 239.832031 L 193.007812 239.832031 Z M 194.527344 208.691406 L 194.527344 154.796875 L 161.558594 208.691406 Z M 194.527344 208.691406 " fill-opacity="1" fill-rule="evenodd"/><g clip-path="url(#b156b840c0)"><path fill="#982cdb" d="M 104.695312 277.492188 L 104.695312 162.683594 L 65.410156 162.683594 L 65.410156 309.910156 L 164.308594 309.910156 L 164.308594 277.492188 Z M 104.695312 277.492188 " fill-opacity="1" fill-rule="nonzero"/></g><g clip-path="url(#596472d6ef)"><path fill="#982cdb" d="M 270.621094 97.824219 L 270.621094 212.632812 L 309.910156 212.632812 L 309.910156 65.410156 L 211.007812 65.410156 L 211.007812 97.824219 Z M 270.621094 97.824219 " fill-opacity="1" fill-rule="nonzero"/></g></svg>