<svg xmlns="http://www.w3.org/2000/svg" xmlns:xlink="http://www.w3.org/1999/xlink" width="500" zoomAndPan="magnify" viewBox="0 0 375 374.999991" height="500" preserveAspectRatio="xMidYMid meet" version="1.0"><defs><g/><clipPath id="b9956df62c"><path d="M 64.09375 74.808594 L 80.109375 74.808594 L 80.109375 271.121094 L 64.09375 271.121094 Z M 64.09375 74.808594 " clip-rule="nonzero"/></clipPath></defs><rect x="-37.5" width="450" fill="#ffffff" y="-37.499999" height="449.999989" fill-opacity="1"/><rect x="-37.5" width="450" fill="#1d2031" y="-37.499999" height="449.999989" fill-opacity="1"/><g fill="#ffffff" fill-opacity="1"><g transform="translate(35.731925, 320.273588)"><g><path d="M 8.632812 -287.722656 L 8.632812 -284.847656 C 33.375 -284.847656 35.101562 -264.417969 35.101562 -207.738281 L 35.101562 -79.988281 C 35.101562 -23.304688 33.375 -2.878906 8.632812 -2.878906 L 8.632812 0 L 86.316406 0 L 86.316406 -2.878906 C 61.574219 -2.878906 37.980469 -23.59375 37.980469 -107.320312 L 37.980469 -143.863281 L 38.265625 -267.296875 C 82 -173.496094 107.898438 -117.679688 153.070312 -21.003906 L 155.660156 -21.003906 C 191.050781 -115.953125 220.109375 -195.078125 251.183594 -278.230469 L 251.183594 -79.988281 C 251.183594 -23.304688 249.457031 -2.878906 224.710938 -2.878906 L 224.710938 0 L 302.398438 0 L 302.398438 -2.878906 C 277.652344 -2.878906 275.929688 -23.304688 275.929688 -79.988281 L 275.929688 -207.738281 C 275.929688 -264.417969 277.652344 -284.847656 302.398438 -284.847656 L 302.398438 -287.722656 L 251.757812 -287.722656 L 165.441406 -55.820312 L 54.957031 -287.722656 Z M 8.632812 -287.722656 "/></g></g></g><g clip-path="url(#b9956df62c)"><path fill="#1d2031" d="M 80.109375 74.808594 L 80.109375 271.121094 L 64.09375 271.121094 L 64.09375 74.808594 Z M 80.109375 74.808594 " fill-opacity="1" fill-rule="nonzero"/></g><g fill="#ffffff" fill-opacity="1"><g transform="translate(106.843602, 304.130405)"><g><path d="M 0.855469 -71.484375 C 0.746094 -71.589844 -0.105469 -72.125 -1.28125 -72.765625 L -3.417969 -73.941406 L -6.199219 -75.757812 L -8.226562 -77.148438 C -9.832031 -78.214844 -13.570312 -80.996094 -13.675781 -81.101562 C -13.785156 -81.316406 -15.28125 -82.382812 -15.386719 -82.382812 L -15.707031 -82.597656 L -17.203125 -83.773438 L -20.089844 -85.910156 L -21.15625 -86.871094 L -33.230469 -97.023438 L -33.765625 -97.449219 L -38.46875 -101.9375 C -41.246094 -104.824219 -42.3125 -105.785156 -42.953125 -106.316406 L -44.664062 -108.132812 C -45.304688 -108.777344 -45.945312 -109.417969 -46.265625 -109.523438 L -46.695312 -109.953125 C -46.695312 -110.058594 -47.121094 -110.59375 -47.761719 -111.125 C -49.046875 -112.300781 -50.648438 -114.011719 -51.289062 -114.867188 C -51.824219 -115.722656 -54.066406 -118.390625 -55.242188 -119.675781 L -57.59375 -122.238281 C -58.984375 -123.84375 -59.410156 -124.054688 -59.730469 -123.519531 C -60.050781 -123.09375 -59.835938 -122.453125 -58.769531 -121.382812 C -58.234375 -120.742188 -57.699219 -120.101562 -57.699219 -119.996094 C -57.59375 -119.78125 -57.488281 -119.675781 -57.378906 -119.675781 C -57.058594 -119.675781 -51.074219 -112.410156 -50.753906 -111.554688 L -49.898438 -109.953125 L -46.585938 -104.179688 C -46.160156 -103.433594 -45.519531 -102.472656 -45.199219 -102.042969 C -44.769531 -101.617188 -44.558594 -101.1875 -44.558594 -101.082031 L -43.808594 -99.90625 C -43.382812 -99.371094 -42.742188 -98.519531 -42.527344 -97.984375 L -41.566406 -96.59375 C -41.136719 -96.058594 -39.109375 -92.855469 -39.109375 -92.640625 L -38.679688 -92 L -38.359375 -91.359375 C -38.46875 -91.359375 -38.144531 -90.824219 -37.71875 -90.289062 L -37.503906 -89.96875 L -36.328125 -87.941406 C -35.796875 -86.976562 -35.261719 -86.015625 -35.261719 -85.910156 C -35.261719 -85.800781 -35.15625 -85.589844 -35.046875 -85.480469 C -34.300781 -84.949219 -32.695312 -81.101562 -32.589844 -79.820312 C -32.484375 -78.964844 -32.484375 -78.855469 -32.804688 -79.070312 C -33.015625 -79.070312 -33.445312 -79.390625 -33.871094 -79.605469 L -34.832031 -80.246094 L -36.007812 -81.101562 C -36.542969 -81.421875 -37.503906 -82.167969 -38.253906 -82.597656 L -39.855469 -83.558594 L -41.351562 -84.734375 C -42.527344 -85.589844 -44.558594 -87.40625 -45.519531 -88.261719 L -48.082031 -90.824219 L -49.472656 -92 C -50.433594 -92.855469 -51.289062 -93.601562 -52.25 -94.566406 C -52.464844 -94.777344 -52.785156 -94.992188 -52.785156 -94.992188 C -52.890625 -94.992188 -53.855469 -96.058594 -55.027344 -97.34375 L -57.914062 -100.546875 L -59.089844 -101.722656 C -61.226562 -104.5 -62.296875 -105.675781 -63.148438 -106.316406 L -64.21875 -107.386719 L -65.074219 -108.132812 L -67.53125 -110.378906 L -71.058594 -113.691406 C -71.804688 -114.4375 -72.339844 -114.972656 -73.195312 -115.722656 L -74.15625 -116.574219 L -75.117188 -117.539062 C -76.507812 -118.714844 -77.359375 -118.714844 -77.359375 -117.429688 C -77.359375 -117.109375 -77.148438 -116.683594 -76.398438 -116.042969 L -72.339844 -112.195312 C -71.804688 -111.554688 -71.058594 -110.804688 -70.628906 -110.484375 C -70.09375 -110.164062 -69.453125 -109.523438 -69.027344 -109.097656 C -67.210938 -107.386719 -66.25 -106.425781 -64.644531 -105.035156 C -63.148438 -103.648438 -60.585938 -100.976562 -60.585938 -100.65625 C -60.585938 -100.441406 -58.449219 -98.089844 -58.339844 -98.199219 C -58.339844 -98.304688 -57.273438 -97.234375 -56.097656 -95.953125 C -53.855469 -93.496094 -53.320312 -92.960938 -51.183594 -91.039062 C -50.542969 -90.503906 -50.007812 -89.96875 -50.007812 -89.863281 C -50.113281 -89.757812 -50.113281 -89.648438 -50.007812 -89.757812 C -49.898438 -89.863281 -49.152344 -89.328125 -48.402344 -88.582031 L -45.199219 -85.589844 C -44.128906 -84.734375 -42.742188 -83.558594 -42.101562 -83.132812 L -41.03125 -82.382812 C -40.710938 -82.0625 -37.613281 -80.03125 -37.503906 -80.03125 L -36.4375 -79.285156 C -35.15625 -78.324219 -32.589844 -76.933594 -32.164062 -76.933594 C -30.878906 -76.933594 -31.09375 -79.820312 -32.484375 -82.917969 C -33.125 -84.519531 -34.511719 -86.871094 -34.941406 -87.296875 C -35.15625 -87.40625 -35.261719 -87.617188 -35.261719 -87.726562 C -35.261719 -87.832031 -35.476562 -88.367188 -35.796875 -88.902344 L -38.46875 -93.175781 L -39.960938 -95.847656 C -39.960938 -95.953125 -40.175781 -96.167969 -40.390625 -96.273438 C -40.605469 -96.488281 -40.816406 -96.703125 -40.816406 -96.808594 C -40.816406 -96.914062 -41.03125 -97.234375 -41.351562 -97.664062 C -41.671875 -98.089844 -42.101562 -98.625 -42.207031 -98.839844 L -42.632812 -99.695312 C -43.0625 -100.226562 -43.917969 -101.617188 -44.128906 -101.9375 L -44.558594 -102.578125 C -45.089844 -103.21875 -46.375 -105.464844 -46.375 -105.675781 C -46.375 -105.785156 -46.480469 -105.996094 -46.695312 -106.105469 C -46.910156 -106.316406 -47.230469 -106.746094 -47.441406 -107.171875 L -48.511719 -109.308594 L -47.65625 -108.5625 L -44.449219 -105.355469 C -44.238281 -105.25 -42.207031 -103.328125 -41.566406 -102.578125 C -41.03125 -101.9375 -39.535156 -100.546875 -38.46875 -99.695312 L -37.078125 -98.519531 L -35.796875 -97.128906 L -34.300781 -95.953125 L -30.558594 -92.640625 L -28.742188 -91.253906 L -27.78125 -90.398438 C -27.355469 -90.078125 -26.925781 -89.757812 -26.925781 -89.648438 C -26.925781 -89.542969 -26.820312 -89.542969 -26.714844 -89.542969 C -26.5 -89.542969 -24.148438 -87.617188 -23.933594 -87.296875 L -22.546875 -86.230469 L -20.835938 -84.839844 L -18.914062 -83.34375 L -15.921875 -81.207031 L -13.464844 -79.5 C -10.578125 -77.574219 -8.761719 -76.292969 -8.441406 -75.972656 C -8.226562 -75.757812 -8.121094 -75.652344 -8.121094 -75.757812 C -8.121094 -75.757812 -7.800781 -75.652344 -7.480469 -75.4375 L -4.167969 -73.40625 L -1.175781 -71.910156 C -0.105469 -71.378906 0.960938 -71.164062 0.855469 -71.484375 Z M 2.457031 -11.539062 C 3.097656 -12.824219 2.566406 -15.921875 1.28125 -18.914062 C 1.070312 -19.339844 0.746094 -20.089844 0.746094 -20.515625 C 0.425781 -21.90625 -4.808594 -32.484375 -5.769531 -33.550781 L -7.265625 -35.796875 C -8.546875 -37.824219 -8.441406 -37.71875 -9.511719 -38.894531 L -11.433594 -41.351562 L -13.996094 -44.449219 L -15.707031 -46.375 L -16.667969 -47.65625 C -17.097656 -48.191406 -17.84375 -49.152344 -18.484375 -49.792969 L -27.140625 -60.050781 C -28.636719 -61.761719 -30.878906 -64.433594 -31.84375 -65.820312 C -32.589844 -66.78125 -33.445312 -67.746094 -33.765625 -67.746094 C -33.980469 -67.746094 -34.726562 -68.597656 -34.621094 -68.8125 C -34.621094 -68.917969 -34.621094 -69.132812 -34.832031 -69.347656 L -39.855469 -75.332031 C -40.070312 -75.542969 -40.390625 -75.757812 -40.710938 -75.867188 C -40.925781 -75.972656 -41.246094 -76.1875 -41.351562 -76.507812 C -41.457031 -76.933594 -43.273438 -79.070312 -44.34375 -80.03125 L -45.414062 -81.101562 L -51.183594 -87.296875 C -51.929688 -88.152344 -53.105469 -89.222656 -53.746094 -89.648438 C -54.386719 -90.078125 -54.816406 -90.503906 -54.707031 -90.71875 C -54.707031 -90.824219 -54.707031 -90.929688 -54.816406 -90.929688 C -55.027344 -90.929688 -55.992188 -92 -56.3125 -92.535156 C -56.417969 -92.746094 -56.632812 -92.855469 -56.84375 -92.855469 C -57.058594 -92.746094 -57.167969 -92.855469 -57.167969 -93.175781 C -57.167969 -93.496094 -57.378906 -93.710938 -57.699219 -93.816406 C -58.019531 -93.921875 -58.234375 -94.136719 -58.234375 -94.242188 C -58.234375 -94.457031 -58.984375 -95.3125 -60.800781 -97.34375 L -62.617188 -99.480469 C -64.324219 -101.617188 -65.714844 -103.003906 -66.035156 -102.898438 C -66.355469 -102.683594 -66.355469 -102.152344 -65.929688 -101.9375 C -65.820312 -101.832031 -65.285156 -101.296875 -64.753906 -100.65625 C -63.148438 -98.730469 -59.515625 -94.886719 -59.089844 -94.671875 C -58.875 -94.566406 -58.769531 -94.457031 -58.769531 -94.351562 C -58.875 -94.242188 -58.449219 -93.710938 -58.019531 -93.28125 L -56.523438 -91.679688 C -56.203125 -91.359375 -55.671875 -90.824219 -55.347656 -90.609375 C -55.027344 -90.398438 -54.816406 -90.078125 -54.816406 -89.96875 C -54.816406 -89.96875 -53.320312 -88.261719 -51.503906 -86.445312 C -46.480469 -81.101562 -43.382812 -77.789062 -43.382812 -77.683594 C -43.382812 -77.574219 -40.925781 -75.011719 -39.109375 -72.980469 L -37.183594 -70.738281 C -36.757812 -70.09375 -36.007812 -69.347656 -35.6875 -68.917969 C -35.261719 -68.597656 -34.941406 -68.171875 -34.941406 -68.066406 C -34.941406 -67.957031 -34.726562 -67.636719 -34.40625 -67.316406 L -29.8125 -61.652344 L -28.101562 -59.515625 C -27.78125 -59.195312 -27.675781 -58.875 -27.675781 -58.875 C -27.675781 -58.769531 -27.460938 -58.554688 -27.246094 -58.339844 L -24.789062 -55.5625 C -22.332031 -52.464844 -21.585938 -51.609375 -19.769531 -49.578125 C -18.914062 -48.617188 -18.058594 -47.550781 -17.953125 -47.230469 C -17.738281 -46.800781 -17.628906 -46.480469 -17.523438 -46.480469 C -17.417969 -46.480469 -16.777344 -45.945312 -16.132812 -45.199219 L -14.53125 -43.488281 C -14.210938 -43.273438 -13.996094 -42.953125 -13.996094 -42.742188 C -13.996094 -42.632812 -13.785156 -42.3125 -13.464844 -41.992188 C -13.035156 -41.671875 -12.714844 -41.246094 -12.609375 -40.925781 C -12.609375 -40.710938 -12.289062 -40.175781 -12.074219 -39.960938 L -11.21875 -39 C -11.113281 -38.789062 -10.578125 -38.359375 -10.257812 -38.039062 C -9.832031 -37.71875 -9.511719 -37.503906 -9.617188 -37.398438 C -9.617188 -37.292969 -9.296875 -36.652344 -8.761719 -35.902344 C -8.226562 -35.15625 -7.800781 -34.40625 -7.800781 -34.300781 L -6.410156 -32.054688 C -5.664062 -30.878906 -4.914062 -29.597656 -4.808594 -29.171875 L -3.847656 -27.460938 L -2.777344 -25.109375 C -1.601562 -22.226562 -1.390625 -21.691406 -0.960938 -20.515625 L 0 -17.84375 C 0.320312 -17.097656 0.535156 -16.027344 0.535156 -14.960938 C 0.640625 -13.144531 0.640625 -13.144531 0.105469 -13.355469 C -1.070312 -13.675781 -1.390625 -13.675781 -1.601562 -13.25 C -1.816406 -13.035156 -1.816406 -12.714844 -1.710938 -12.289062 C -1.390625 -11.433594 -0.535156 -10.898438 0.855469 -10.792969 L 2.136719 -10.683594 Z M 2.457031 -11.539062 "/></g></g></g><g fill="#ffffff" fill-opacity="1"><g transform="translate(106.843602, 195.35467)"><g><path d="M -36.757812 -4.488281 C -36.863281 -4.914062 -37.613281 -5.34375 -38.039062 -5.234375 C -38.253906 -5.234375 -38.46875 -5.023438 -38.574219 -4.914062 C -38.894531 -4.488281 -38.679688 -4.058594 -38.039062 -3.953125 C -37.71875 -3.953125 -37.503906 -3.847656 -37.398438 -3.738281 C -37.183594 -3.417969 -36.542969 -4.058594 -36.757812 -4.488281 Z M -29.0625 1.601562 C -29.171875 0.425781 -29.8125 -1.601562 -30.558594 -3.3125 L -32.695312 -8.015625 L -33.230469 -9.296875 C -33.445312 -9.617188 -33.765625 -9.617188 -33.871094 -9.402344 L -33.980469 -9.1875 L -33.980469 -8.976562 L -33.871094 -8.761719 C -31.84375 -4.058594 -30.558594 -0.855469 -30.238281 0.640625 C -30.238281 0.640625 -29.917969 1.496094 -30.132812 1.921875 C -30.558594 1.921875 -30.988281 1.816406 -31.414062 1.496094 L -32.910156 -0.320312 C -33.980469 -1.601562 -34.511719 -1.921875 -34.726562 -1.390625 C -34.832031 -1.175781 -34.511719 -0.320312 -33.980469 0.425781 C -32.375 2.351562 -31.308594 3.207031 -30.238281 3.207031 L -29.917969 3.207031 C -29.277344 3.207031 -28.957031 2.671875 -29.0625 1.601562 Z M -29.0625 1.601562 "/></g></g></g><g fill="#ffffff" fill-opacity="1"><g transform="translate(106.843602, 186.379059)"><g><path d="M 2.671875 35.6875 C 2.566406 34.621094 1.816406 32.589844 0.960938 30.988281 L 0.105469 29.492188 L -0.535156 28.421875 L -2.242188 25.964844 L -5.664062 21.476562 L -9.722656 16.457031 C -11.539062 14.210938 -15.28125 10.363281 -17.308594 8.65625 C -18.378906 7.800781 -19.234375 6.839844 -19.339844 6.730469 C -19.769531 6.410156 -20.941406 3.847656 -21.585938 1.816406 C -21.691406 1.390625 -21.90625 1.070312 -22.011719 0.960938 C -22.117188 0.855469 -22.117188 0.746094 -22.117188 0.640625 C -22.011719 0.535156 -22.117188 0.320312 -22.226562 0.105469 C -22.332031 0 -22.4375 -0.425781 -22.546875 -0.640625 C -22.546875 -0.960938 -22.652344 -1.28125 -22.757812 -1.390625 C -22.757812 -1.496094 -22.972656 -1.921875 -23.082031 -2.566406 L -25.644531 -12.394531 C -25.75 -12.824219 -25.964844 -13.785156 -26.070312 -14.640625 C -26.285156 -15.921875 -26.285156 -16.027344 -25.964844 -15.8125 C -25.644531 -15.492188 -25.429688 -15.601562 -25.324219 -16.027344 C -25.21875 -16.347656 -25.21875 -16.5625 -25.539062 -17.203125 L -25.964844 -18.164062 C -25.964844 -18.273438 -26.070312 -18.378906 -26.285156 -18.59375 C -26.605469 -18.804688 -27.035156 -18.59375 -27.140625 -18.164062 C -27.246094 -17.628906 -27.035156 -16.027344 -26.820312 -14.851562 L -26.285156 -12.5 L -24.789062 -6.519531 C -24.253906 -4.382812 -23.722656 -2.566406 -22.757812 0.320312 L -21.90625 2.777344 L -21.585938 4.167969 L -21.15625 5.34375 C -20.941406 5.769531 -28.101562 -0.640625 -29.0625 -1.390625 L -30.878906 -2.777344 L -32.695312 -3.953125 C -33.125 -4.273438 -33.550781 -4.488281 -33.660156 -4.488281 C -33.765625 -4.488281 -33.980469 -4.382812 -34.300781 -4.382812 C -35.15625 -4.382812 -35.476562 -3.417969 -35.046875 -2.03125 C -34.832031 -1.28125 -33.980469 0.320312 -33.550781 0.960938 L -32.804688 1.921875 C -32.695312 2.03125 -32.695312 2.242188 -32.589844 2.457031 L -32.164062 2.886719 C -31.84375 3.3125 -31.09375 3.3125 -30.773438 2.992188 C -30.558594 2.777344 -30.453125 1.28125 -30.667969 0.960938 L -31.734375 -1.601562 C -31.949219 -2.136719 -24.46875 4.382812 -22.117188 6.199219 C -20.089844 7.695312 -19.660156 8.546875 -19.445312 9.296875 C -19.339844 9.722656 -19.125 10.363281 -18.914062 10.578125 C -18.804688 10.898438 -18.59375 11.21875 -18.59375 11.328125 C -18.699219 11.539062 -15.8125 17.417969 -15.066406 18.914062 C -14.640625 19.554688 -14.425781 20.089844 -14.425781 20.195312 C -14.425781 20.300781 -14.316406 20.410156 -14.316406 20.410156 C -14.210938 20.410156 -13.996094 20.730469 -13.890625 21.050781 C -13.785156 21.371094 -13.25 22.226562 -12.714844 22.972656 L -11.753906 24.574219 C -11.433594 25.109375 -10.042969 27.140625 -8.867188 28.53125 C -7.265625 30.667969 -2.566406 35.046875 -1.921875 35.15625 C -1.816406 35.15625 -1.601562 35.261719 -1.496094 35.367188 L -1.496094 35.476562 C -1.175781 35.6875 -0.855469 35.902344 -0.640625 36.117188 C -0.105469 36.222656 0.320312 36.4375 0.746094 36.757812 L 1.496094 36.863281 C 2.457031 36.972656 2.777344 36.757812 2.671875 35.6875 Z M -31.523438 1.710938 C -31.523438 2.03125 -31.523438 2.03125 -31.84375 1.710938 C -32.269531 1.28125 -33.125 0 -33.550781 -1.070312 C -33.980469 -1.921875 -34.085938 -2.992188 -33.765625 -2.992188 C -33.230469 -2.992188 -31.523438 0.640625 -31.523438 1.710938 Z M 1.816406 35.902344 C 1.710938 36.117188 0.960938 35.902344 0 35.476562 C -2.457031 34.085938 -3.847656 33.015625 -5.984375 30.878906 C -7.800781 28.957031 -8.121094 28.53125 -9.9375 26.179688 C -10.792969 25.003906 -13.570312 20.621094 -13.570312 20.410156 L -14.105469 19.445312 C -14.425781 19.019531 -15.171875 17.628906 -15.8125 16.347656 C -16.347656 15.171875 -16.882812 14.105469 -16.988281 14.105469 C -17.097656 13.996094 -17.097656 13.890625 -17.097656 13.675781 L -17.203125 13.25 C -17.308594 13.25 -17.523438 12.714844 -17.738281 12.289062 L -18.273438 10.898438 C -18.699219 9.832031 -18.699219 9.722656 -18.484375 9.722656 C -18.378906 9.722656 -18.273438 9.832031 -18.273438 9.832031 C -18.273438 9.9375 -18.164062 10.042969 -18.164062 10.042969 C -17.628906 10.042969 -13.890625 13.890625 -9.617188 18.59375 L -6.839844 21.691406 C -6.410156 22.117188 -5.984375 22.652344 -5.769531 22.972656 L -5.128906 23.828125 C -4.488281 24.574219 -2.03125 28.101562 -2.03125 28.316406 C -2.03125 28.421875 -1.921875 28.53125 -1.816406 28.53125 C -1.710938 28.636719 -1.601562 28.742188 -1.601562 28.851562 C -1.601562 28.957031 -1.28125 29.492188 -0.855469 30.132812 C 0.320312 31.84375 0.855469 33.015625 1.390625 34.40625 Z M 1.816406 35.902344 "/></g></g></g><g fill="#ffffff" fill-opacity="1"><g transform="translate(106.843602, 174.091027)"><g><path d="M -22.011719 4.703125 C -22.011719 4.59375 -22.546875 4.488281 -23.722656 4.273438 C -25.644531 4.058594 -27.035156 3.417969 -29.382812 1.816406 C -31.523438 0.425781 -36.863281 -3.738281 -36.863281 -3.953125 C -36.972656 -4.058594 -37.078125 -4.167969 -37.183594 -4.167969 C -37.398438 -4.382812 -37.503906 -4.59375 -37.613281 -4.808594 L -38.894531 -6.730469 C -39.429688 -7.695312 -39.535156 -7.90625 -40.175781 -8.761719 L -40.816406 -9.722656 C -40.816406 -9.832031 -41.457031 -10.898438 -41.992188 -11.539062 C -42.527344 -12.289062 -43.808594 -14.316406 -44.023438 -14.640625 L -44.769531 -15.707031 L -45.625 -16.882812 L -46.695312 -18.273438 L -48.832031 -20.941406 C -50.007812 -22.546875 -53.320312 -26.285156 -54.28125 -26.5 C -55.136719 -26.714844 -55.5625 -26.070312 -55.136719 -24.898438 C -54.816406 -23.722656 -53.855469 -22.117188 -53.210938 -21.261719 C -52.570312 -20.300781 -51.929688 -19.019531 -51.183594 -18.058594 C -49.152344 -15.28125 -46.910156 -12.394531 -44.449219 -9.617188 C -43.382812 -8.441406 -41.03125 -5.984375 -40.605469 -5.449219 L -38.46875 -3.3125 C -38.359375 -3.097656 -38.359375 -2.992188 -38.359375 -2.992188 C -38.46875 -2.886719 -38.359375 -2.777344 -38.359375 -2.777344 C -38.144531 -2.777344 -37.824219 -1.601562 -37.933594 -1.390625 C -38.039062 -1.28125 -37.933594 -1.175781 -37.824219 -1.175781 C -37.613281 -1.175781 -37.078125 -1.710938 -37.078125 -1.921875 L -37.078125 -2.136719 C -36.757812 -1.816406 -36.542969 -1.710938 -36.4375 -1.710938 L -35.902344 -1.28125 C -35.582031 -0.960938 -35.367188 -0.746094 -35.261719 -0.746094 C -35.15625 -0.746094 -35.046875 -0.746094 -35.046875 -0.640625 C -35.046875 -0.535156 -34.621094 -0.214844 -34.085938 0.214844 L -33.015625 1.070312 C -33.015625 1.175781 -32.804688 1.175781 -32.695312 1.175781 C -32.484375 1.28125 -32.375 1.390625 -32.375 1.496094 L -32.054688 1.816406 C -31.84375 1.816406 -31.84375 1.816406 -31.84375 1.921875 C -31.84375 2.03125 -31.734375 2.136719 -31.628906 2.136719 C -31.414062 2.136719 -31.308594 2.242188 -31.308594 2.351562 C -31.414062 2.351562 -31.308594 2.457031 -31.199219 2.457031 C -30.988281 2.457031 -30.027344 3.097656 -29.277344 3.632812 C -28.636719 4.058594 -28.316406 4.167969 -28.101562 4.273438 C -27.886719 4.273438 -27.675781 4.382812 -27.355469 4.488281 C -26.605469 5.023438 -24.683594 5.449219 -23.507812 5.234375 C -22.332031 5.128906 -22.117188 5.023438 -22.011719 4.703125 Z M -40.070312 -6.945312 C -39.960938 -6.625 -40.070312 -6.839844 -41.03125 -7.695312 C -42.101562 -8.65625 -46.800781 -14.105469 -46.800781 -14.316406 L -49.898438 -18.164062 L -50.96875 -19.769531 L -51.714844 -20.621094 L -52.144531 -21.261719 L -53.210938 -22.972656 L -53.640625 -23.722656 L -53.960938 -24.253906 L -54.066406 -24.46875 C -54.175781 -24.574219 -54.175781 -24.683594 -54.175781 -24.898438 C -54.28125 -25.003906 -54.175781 -25.109375 -53.960938 -25.109375 C -53.960938 -25.109375 -53.855469 -25.109375 -53.746094 -25.003906 L -53.53125 -24.789062 L -53.425781 -24.789062 L -53.210938 -24.46875 L -53.105469 -24.363281 L -52.785156 -24.148438 L -52.464844 -23.828125 L -51.074219 -22.332031 L -49.472656 -20.300781 C -48.726562 -19.445312 -48.191406 -18.804688 -48.191406 -18.699219 L -47.761719 -18.058594 C -47.015625 -17.203125 -45.304688 -14.746094 -44.984375 -14.316406 C -44.769531 -13.890625 -43.917969 -12.609375 -43.597656 -12.179688 C -43.0625 -11.539062 -41.78125 -9.832031 -41.566406 -9.402344 L -41.246094 -8.976562 Z M -40.070312 -6.945312 "/></g></g></g><g fill="#ffffff" fill-opacity="1"><g transform="translate(106.843602, 164.688016)"><g><path d="M -36.757812 -4.488281 C -36.863281 -4.914062 -37.613281 -5.34375 -38.039062 -5.234375 C -38.253906 -5.234375 -38.46875 -5.023438 -38.574219 -4.914062 C -38.894531 -4.488281 -38.679688 -4.058594 -38.039062 -3.953125 C -37.71875 -3.953125 -37.503906 -3.847656 -37.398438 -3.738281 C -37.183594 -3.417969 -36.542969 -4.058594 -36.757812 -4.488281 Z M -29.0625 1.601562 C -29.171875 0.425781 -29.8125 -1.601562 -30.558594 -3.3125 L -32.695312 -8.015625 L -33.230469 -9.296875 C -33.445312 -9.617188 -33.765625 -9.617188 -33.871094 -9.402344 L -33.980469 -9.1875 L -33.980469 -8.976562 L -33.871094 -8.761719 C -31.84375 -4.058594 -30.558594 -0.855469 -30.238281 0.640625 C -30.238281 0.640625 -29.917969 1.496094 -30.132812 1.921875 C -30.558594 1.921875 -30.988281 1.816406 -31.414062 1.496094 L -32.910156 -0.320312 C -33.980469 -1.601562 -34.511719 -1.921875 -34.726562 -1.390625 C -34.832031 -1.175781 -34.511719 -0.320312 -33.980469 0.425781 C -32.375 2.351562 -31.308594 3.207031 -30.238281 3.207031 L -29.917969 3.207031 C -29.277344 3.207031 -28.957031 2.671875 -29.0625 1.601562 Z M -29.0625 1.601562 "/></g></g></g><g fill="#ffffff" fill-opacity="1"><g transform="translate(106.843602, 155.712406)"><g><path d="M -29.171875 -2.351562 C -29.0625 -2.777344 -29.0625 -3.207031 -29.171875 -3.632812 L -29.171875 -3.953125 C -29.171875 -3.953125 -29.597656 -5.875 -30.558594 -7.90625 L -33.339844 -13.996094 C -33.445312 -14.210938 -33.765625 -14.210938 -33.871094 -13.996094 L -33.980469 -13.890625 L -33.980469 -13.570312 L -33.871094 -13.355469 C -31.84375 -8.65625 -30.558594 -5.449219 -30.238281 -4.058594 C -30.238281 -4.058594 -29.8125 -2.671875 -30.238281 -2.566406 C -31.199219 -2.136719 -32.375 -2.886719 -33.015625 -3.417969 C -33.550781 -3.847656 -34.832031 -4.914062 -34.832031 -3.632812 C -34.832031 -3.417969 -34.941406 -3.097656 -35.046875 -3.097656 C -35.476562 -2.992188 -35.367188 -2.671875 -34.40625 -0.855469 C -33.550781 0.746094 -32.269531 2.777344 -31.199219 4.058594 C -30.773438 4.59375 -30.558594 4.808594 -30.238281 4.808594 C -29.703125 4.808594 -29.597656 4.488281 -29.597656 3.847656 C -29.597656 3.3125 -30.667969 1.175781 -31.308594 0.320312 C -32.054688 -0.535156 -32.804688 -1.921875 -32.695312 -1.921875 L -31.949219 -1.601562 C -31.628906 -1.390625 -31.199219 -1.28125 -30.878906 -1.28125 C -30.453125 -1.175781 -30.132812 -1.175781 -29.703125 -1.496094 C -29.382812 -1.710938 -29.171875 -1.921875 -29.171875 -2.351562 Z M -30.558594 3.632812 L -30.988281 2.992188 C -31.628906 2.351562 -32.804688 0.640625 -33.445312 -0.746094 C -34.085938 -1.816406 -34.085938 -2.03125 -33.871094 -2.03125 C -33.765625 -2.03125 -33.550781 -1.710938 -33.445312 -1.390625 C -33.015625 -0.535156 -32.695312 -0.105469 -32.484375 0.105469 C -32.269531 0.320312 -31.199219 2.136719 -30.773438 2.992188 Z M -30.558594 3.632812 "/></g></g></g><g fill="#ffffff" fill-opacity="1"><g transform="translate(106.843602, 142.0353)"><g><path d="M -28.742188 2.886719 C -29.0625 2.671875 -29.492188 2.03125 -29.8125 1.601562 L -30.667969 0.425781 C -31.09375 0 -31.414062 -0.640625 -32.484375 -2.886719 L -33.125 -4.058594 C -33.339844 -4.59375 -33.339844 -4.703125 -33.015625 -5.128906 C -32.695312 -5.769531 -32.804688 -6.625 -33.339844 -8.121094 L -34.191406 -9.832031 L -34.726562 -11.003906 C -34.832031 -11.21875 -34.941406 -11.753906 -34.941406 -11.96875 C -34.941406 -12.289062 -35.046875 -12.5 -35.261719 -12.824219 C -35.902344 -13.464844 -36.222656 -13.570312 -36.542969 -13.355469 C -36.972656 -13.144531 -36.972656 -12.824219 -36.328125 -11.96875 C -36.117188 -11.539062 -35.902344 -11.21875 -35.902344 -11.113281 C -35.902344 -11.003906 -35.796875 -10.683594 -35.582031 -10.363281 C -34.941406 -9.402344 -33.980469 -7.265625 -33.980469 -6.625 C -33.980469 -6.410156 -34.085938 -6.304688 -34.40625 -6.199219 C -35.046875 -6.089844 -35.15625 -5.769531 -34.832031 -5.128906 C -34.621094 -4.914062 -33.660156 -2.671875 -33.339844 -2.136719 L -32.910156 -1.175781 C -32.695312 -0.855469 -33.125 -1.175781 -33.871094 -2.03125 C -34.832031 -3.097656 -35.476562 -3.3125 -35.6875 -2.671875 C -35.796875 -2.351562 -35.796875 -2.136719 -35.476562 -1.710938 C -34.941406 -0.746094 -32.484375 1.710938 -31.414062 2.566406 L -30.238281 3.527344 C -29.8125 3.847656 -29.382812 4.167969 -29.171875 4.273438 C -28.316406 4.382812 -28.101562 3.417969 -28.742188 2.886719 Z M -28.742188 2.886719 "/></g></g></g><g fill="#ffffff" fill-opacity="1"><g transform="translate(106.843602, 125.366318)"><g><path d="M -36.757812 -4.488281 C -36.863281 -4.914062 -37.613281 -5.34375 -38.039062 -5.234375 C -38.253906 -5.234375 -38.46875 -5.023438 -38.574219 -4.914062 C -38.894531 -4.488281 -38.679688 -4.058594 -38.039062 -3.953125 C -37.71875 -3.953125 -37.503906 -3.847656 -37.398438 -3.738281 C -37.183594 -3.417969 -36.542969 -4.058594 -36.757812 -4.488281 Z M -29.0625 1.601562 C -29.171875 0.425781 -29.8125 -1.601562 -30.558594 -3.3125 L -32.695312 -8.015625 L -33.230469 -9.296875 C -33.445312 -9.617188 -33.765625 -9.617188 -33.871094 -9.402344 L -33.980469 -9.1875 L -33.980469 -8.976562 L -33.871094 -8.761719 C -31.84375 -4.058594 -30.558594 -0.855469 -30.238281 0.640625 C -30.238281 0.640625 -29.917969 1.496094 -30.132812 1.921875 C -30.558594 1.921875 -30.988281 1.816406 -31.414062 1.496094 L -32.910156 -0.320312 C -33.980469 -1.601562 -34.511719 -1.921875 -34.726562 -1.390625 C -34.832031 -1.175781 -34.511719 -0.320312 -33.980469 0.425781 C -32.375 2.351562 -31.308594 3.207031 -30.238281 3.207031 L -29.917969 3.207031 C -29.277344 3.207031 -28.957031 2.671875 -29.0625 1.601562 Z M -29.0625 1.601562 "/></g></g></g><g fill="#ffffff" fill-opacity="1"><g transform="translate(106.843602, 116.390707)"><g><path d="M -24.042969 4.058594 C -24.363281 2.777344 -26.5 0.320312 -27.566406 -0.105469 C -27.886719 -0.320312 -28.53125 -0.535156 -28.957031 -0.640625 C -29.492188 -0.746094 -29.8125 -0.960938 -30.027344 -1.28125 L -30.453125 -2.351562 C -30.878906 -3.207031 -31.308594 -4.59375 -31.734375 -5.984375 C -31.414062 -5.128906 -32.269531 -7.90625 -32.804688 -9.832031 C -33.015625 -10.683594 -33.230469 -10.898438 -33.550781 -10.578125 C -33.765625 -10.363281 -33.765625 -10.152344 -33.550781 -9.511719 C -33.339844 -8.226562 -31.84375 -2.671875 -31.09375 -1.496094 C -30.773438 -0.746094 -31.09375 -0.535156 -32.589844 -0.640625 C -33.980469 -0.855469 -34.085938 -0.855469 -34.191406 -1.390625 C -34.40625 -2.136719 -34.832031 -2.351562 -35.367188 -1.921875 C -35.6875 -1.601562 -35.582031 -1.28125 -35.15625 -0.535156 C -34.621094 0.425781 -34.191406 0.535156 -32.164062 0.535156 C -31.199219 0.535156 -30.347656 0.640625 -30.132812 0.640625 C -30.027344 0.746094 -29.8125 1.175781 -29.597656 1.601562 C -29.492188 2.03125 -29.277344 2.351562 -29.277344 2.457031 L -28.421875 3.632812 C -27.566406 5.128906 -26.925781 5.769531 -26.070312 5.875 C -25.429688 5.875 -25.21875 5.875 -24.898438 5.554688 C -24.683594 5.34375 -24.363281 5.128906 -24.363281 5.128906 C -24.042969 5.128906 -23.828125 4.488281 -24.042969 4.058594 Z M -25.21875 4.058594 C -25.21875 4.488281 -25.644531 4.914062 -26.070312 4.914062 C -26.714844 4.914062 -27.78125 3.097656 -27.886719 2.886719 L -28.53125 1.816406 L -28.957031 1.070312 L -28.421875 1.070312 C -27.78125 1.175781 -27.460938 1.390625 -26.285156 2.566406 C -25.644531 3.207031 -25.21875 3.847656 -25.21875 4.058594 Z M -25.21875 4.058594 "/></g></g></g></svg>