<svg xmlns="http://www.w3.org/2000/svg" xmlns:xlink="http://www.w3.org/1999/xlink" width="500" zoomAndPan="magnify" viewBox="0 0 375 374.999991" height="500" preserveAspectRatio="xMidYMid meet" version="1.0"><defs><clipPath id="cce3782777"><path d="M 5.816406 5.816406 L 368.816406 5.816406 L 368.816406 368.816406 L 5.816406 368.816406 Z M 5.816406 5.816406 " clip-rule="nonzero"/></clipPath></defs><path fill="#3ba3cc" d="M 191.273438 89.1875 C 138.261719 89.1875 95.164062 132.285156 95.164062 185.296875 C 95.164062 203.859375 100.511719 221.789062 110.421875 237.363281 L 112.78125 240.980469 L 103.5 274.328125 L 138.734375 265.992188 L 142.039062 268.035156 C 156.824219 276.84375 173.96875 281.5625 191.273438 281.5625 C 244.285156 281.5625 287.382812 238.464844 287.382812 185.453125 C 287.382812 132.445312 244.285156 89.1875 191.273438 89.1875 Z M 246.015625 226.667969 C 245.070312 231.386719 235.003906 237.363281 228.554688 239.09375 C 212.507812 243.339844 189.859375 231.070312 167.519531 211.566406 C 145.027344 192.058594 129.925781 171.296875 131.8125 154.78125 C 132.601562 148.171875 137.320312 137.320312 141.722656 135.902344 C 146.128906 134.488281 149.273438 135.902344 153.835938 137.320312 C 156.039062 139.835938 158.871094 142.824219 162.015625 146.441406 C 166.261719 151.164062 169.09375 155.410156 170.824219 158.398438 C 172.242188 160.914062 171.769531 164.0625 169.566406 165.949219 L 161.859375 172.871094 C 160.441406 174.128906 159.972656 176.171875 160.757812 177.902344 C 163.117188 182.9375 168.621094 193.320312 176.960938 200.554688 C 185.140625 207.789062 196.308594 211.878906 201.65625 213.453125 C 203.386719 214.082031 205.429688 213.296875 206.375 211.722656 L 212.195312 203.226562 C 213.765625 200.867188 216.914062 199.925781 219.585938 201.027344 C 222.734375 202.441406 227.453125 204.644531 232.644531 208.105469 C 236.574219 210.777344 240.035156 213.136719 242.710938 215.027344 C 245.070312 219.273438 246.957031 222.261719 246.015625 226.667969 Z M 246.015625 226.667969 " fill-opacity="1" fill-rule="nonzero"/><g clip-path="url(#cce3782777)"><path fill="#3ba3cc" d="M 187.5 5.816406 C 87.140625 5.816406 5.816406 87.140625 5.816406 187.5 C 5.816406 287.855469 87.140625 369.179688 187.5 369.179688 C 287.855469 369.179688 369.179688 287.855469 369.179688 187.5 C 369.023438 87.140625 287.699219 5.816406 187.5 5.816406 Z M 191.273438 300.28125 C 171.769531 300.28125 152.734375 295.40625 135.746094 285.96875 L 76.757812 299.96875 L 92.332031 243.8125 C 81.792969 226.035156 76.289062 205.902344 76.289062 185.140625 C 76.289062 121.746094 127.882812 70.152344 191.273438 70.152344 C 254.664062 70.152344 306.261719 121.90625 306.261719 185.296875 C 306.261719 248.6875 254.664062 300.28125 191.273438 300.28125 Z M 191.273438 300.28125 " fill-opacity="1" fill-rule="nonzero"/></g></svg>